<svg width="320" height="53" viewBox="0 0 320 53" fill="none" xmlns="http://www.w3.org/2000/svg">
<g clip-path="url(#clip0_2412_6718)">
<path d="M7.01771 35.7797C5.83568 35.1099 4.92945 34.1643 4.29903 32.9428C3.66862 31.7214 3.31401 30.5591 3.2352 29.4558C3.35341 28.5102 3.60951 27.7813 4.00352 27.2691C4.35813 26.7175 4.79155 26.284 5.30376 25.9688C5.81598 25.6142 6.34789 25.3581 6.89951 25.2005C7.45112 25.0035 7.98304 24.8459 8.49525 24.7277L9.38178 25.0232C9.57878 25.2202 9.77579 25.3975 9.97279 25.5551C10.2092 25.7127 10.4259 25.8703 10.6229 26.0279C11.0169 25.8703 11.2533 25.6339 11.3321 25.3187C11.4503 25.0035 11.5685 24.6883 11.6867 24.3731C11.8049 23.9397 11.9428 23.5063 12.1005 23.0728C12.2581 22.6394 12.4551 22.206 12.6915 21.7726C12.6521 21.418 12.6718 21.1028 12.7506 20.827C12.8294 20.5512 12.9082 20.3148 12.987 20.1178C12.7506 19.9208 12.5733 19.8223 12.4551 19.8223C12.3763 19.7829 12.2187 19.7238 11.9822 19.645C11.864 19.645 11.7458 19.645 11.6276 19.645C11.5094 19.6056 11.3715 19.5662 11.2139 19.5268C10.6229 19.0933 10.2289 18.7387 10.0319 18.4629C9.87429 18.1477 9.69698 17.8325 9.49998 17.5173C9.30297 17.2021 9.12567 16.9263 8.96806 16.6899C8.81046 16.4535 8.63315 16.2368 8.43615 16.0398L7.72693 15.5669L8.08154 14.8577C8.16034 14.7789 8.19974 14.6804 8.19974 14.5622C8.19974 14.4046 8.12094 14.1879 7.96334 13.9121C7.84513 13.3999 7.82543 13.0256 7.90423 12.7892L8.02244 12.0799C8.41645 11.5677 8.63315 11.2722 8.67256 11.1934L9.26357 10.6024C10.1698 10.366 11.0957 10.1099 12.0414 9.83408C12.987 9.51887 13.9129 9.20366 14.8191 8.88845C15.7254 8.57324 16.6513 8.25803 17.5969 7.94283C18.5425 7.62762 19.4882 7.35181 20.4338 7.1154C20.749 6.83959 21.0839 6.68199 21.4385 6.64259C21.8325 6.56379 22.1871 6.50468 22.5023 6.46528C22.7782 6.46528 23.0343 6.44558 23.2707 6.40618C23.5071 6.36678 23.6844 6.26828 23.8026 6.11067C24.4724 5.87427 25.1225 5.67726 25.7529 5.51966C26.935 5.20445 28.4913 4.83014 30.422 4.39673C32.3526 3.96331 34.5197 3.6481 36.9231 3.4511L38.1643 3.392C38.4007 3.4314 38.6371 3.4511 38.8735 3.4511C39.1099 3.4117 39.3463 3.392 39.5827 3.392C41.6316 3.392 42.9909 4.02241 43.6607 5.28325C44.0547 5.48026 44.4094 5.73636 44.7246 6.05157C45.0398 6.32738 45.3353 6.60319 45.6111 6.879C45.8081 7.076 45.9854 7.25331 46.143 7.41091C46.3006 7.52911 46.4385 7.62762 46.5567 7.70642L47.0295 8.17923C47.4629 9.12486 47.5417 10.0508 47.2659 10.957C47.0295 11.4298 46.7734 11.7056 46.4976 11.7844C46.2218 11.8632 45.946 11.942 45.6702 12.0208L44.9019 12.4346C44.3897 12.3952 43.9956 12.3754 43.7198 12.3754C43.4834 12.3754 43.2076 12.3754 42.8924 12.3754C41.7104 12.3754 40.3313 12.4543 38.7553 12.6119C37.2187 12.7301 35.6426 12.9271 34.0272 13.2029C32.4117 13.4393 30.8357 13.7545 29.299 14.1485C27.7624 14.5031 26.4228 14.8971 25.2801 15.3305C24.9649 15.5669 24.5512 15.7836 24.039 15.9807C23.9208 16.0201 23.7435 16.1186 23.5071 16.2762C23.5465 16.5914 23.5465 16.9066 23.5071 17.2218C23.4677 17.4976 23.4086 17.7734 23.3298 18.0492C23.2904 18.2462 23.251 18.4629 23.2116 18.6993C23.2116 18.8963 23.1919 19.113 23.1525 19.3494C22.325 20.3345 21.931 21.4968 21.9704 22.8364L21.6749 23.4275C21.5173 23.5851 21.3794 23.8215 21.2612 24.1367C21.1824 24.4125 21.1824 24.708 21.2612 25.0232L21.4976 25.7324C22.2856 25.6536 23.054 25.5748 23.8026 25.496C24.5906 25.3778 25.418 25.2596 26.2849 25.1414C27.3881 24.9444 28.4913 24.7868 29.5945 24.6686C30.7372 24.511 31.9192 24.4322 33.1406 24.4322H35.4456L34.9137 24.9641L35.5638 25.0232L35.2092 25.9688C35.485 26.087 35.682 26.1855 35.8002 26.2643C35.9578 26.3037 36.0957 26.3628 36.2139 26.4416L36.6276 27.0327C36.8246 27.1509 37.002 27.3479 37.1596 27.6237C37.3172 27.8601 37.4157 28.195 37.4551 28.6284L37.2778 29.2194L34.5 32.7655L34.1454 33.2383L33.5544 33.061C32.8057 33.0216 32.0965 33.1004 31.4267 33.2974C31.1115 33.3762 30.7766 33.4747 30.422 33.5929C30.0674 33.6717 29.7127 33.7111 29.3581 33.7111C28.4125 33.8688 27.6245 34.0067 26.9941 34.1249C26.3637 34.2037 25.7332 34.2825 25.1028 34.3613C24.236 34.5189 23.3889 34.6765 22.5614 34.8341C21.7734 34.9523 21.0248 35.1493 20.3156 35.4251C19.8822 35.4645 19.6261 35.4842 19.5473 35.4842C19.4685 35.4448 19.3897 35.4251 19.3109 35.4251C18.9168 35.4251 18.5228 35.4842 18.1288 35.6024C17.7348 35.7206 17.3605 35.8388 17.0059 35.957C16.7695 36.154 16.6119 36.3707 16.5331 36.6071C16.4543 36.8041 16.3755 37.0208 16.2967 37.2572C16.2179 37.5331 16.0997 37.8089 15.9421 38.0847C15.8239 38.3211 15.6663 38.5772 15.4692 38.853L15.5283 39.9168C15.1737 39.9956 14.9964 40.0547 14.9964 40.0941C14.9964 40.0941 14.9767 40.0941 14.9373 40.0941C14.9373 40.4093 14.8782 40.7048 14.76 40.9807C14.6812 41.2565 14.6024 41.5126 14.5236 41.749C14.4448 41.9066 14.3857 42.0445 14.3463 42.1627C14.3069 42.2809 14.2872 42.3991 14.2872 42.5173C14.6812 43.2265 14.7797 44.0342 14.5827 44.9405C14.4251 45.6891 14.1296 46.3589 13.6962 46.9499C13.2628 47.5015 12.7506 47.9349 12.1596 48.2502C11.5291 48.329 11.0563 48.3093 10.7411 48.1911C10.4653 48.0729 10.1698 47.9546 9.85459 47.8364C9.65758 47.7576 9.46058 47.6985 9.26357 47.6591C9.06657 47.5803 8.86956 47.5212 8.67256 47.4818L7.96334 46.8908C7.84513 46.6544 7.70723 46.4377 7.54962 46.2407C7.39202 46.0043 7.23442 45.7679 7.07681 45.5315C6.87981 45.2557 6.6828 44.9799 6.48579 44.7041C6.28879 44.4282 6.11148 44.113 5.95388 43.7584C5.67807 42.3794 5.61897 41.2368 5.77657 40.3305C5.97358 39.3849 6.22969 38.459 6.5449 37.5528C6.6237 37.2375 6.7025 36.942 6.7813 36.6662C6.8601 36.3904 6.93891 36.0949 7.01771 35.7797ZM65.0703 34.4795C65.0408 34.8341 65.0703 35.1739 65.159 35.499C65.2476 35.824 65.351 36.1491 65.4693 36.4742C65.617 36.7697 65.75 37.0799 65.8682 37.405C65.9864 37.7301 66.075 38.0551 66.1341 38.3802C66.1932 38.7939 66.1932 39.2519 66.1341 39.7543C66.075 40.2271 65.9716 40.6999 65.8239 41.1727C65.6761 41.616 65.484 42.0297 65.2476 42.4139C65.0112 42.7685 64.7305 43.0344 64.4054 43.2117C63.9917 43.7437 63.4893 44.1574 62.8983 44.4529C62.3073 44.7484 61.7606 45.103 61.2583 45.5167C60.9332 45.7236 60.5638 45.8713 60.1501 45.96C59.7659 46.0486 59.367 46.1373 58.9533 46.2259C58.6282 46.4032 58.2441 46.5953 57.8008 46.8022C57.3575 46.9795 56.8995 47.1568 56.4267 47.3341C55.9539 47.4818 55.4811 47.6 55.0083 47.6887C54.5354 47.7478 54.1217 47.7626 53.7671 47.733C52.8806 48.0581 52.0088 48.2649 51.1519 48.3536C50.3245 48.4718 49.3493 48.4127 48.2263 48.1763C47.1625 48.324 46.1726 48.2797 45.2565 48.0433C44.37 47.8069 43.5721 47.4375 42.8629 46.9351C42.1832 46.4032 41.5774 45.7827 41.0455 45.0734C40.5431 44.3347 40.1294 43.5664 39.8044 42.7685C39.5679 41.0841 39.6271 39.5622 39.9817 38.2029C40.3363 36.814 40.8386 35.5433 41.4888 34.3908C42.1684 33.2088 42.9367 32.1302 43.7937 31.155C44.6507 30.1503 45.4781 29.1751 46.276 28.2295C46.4533 28.2886 46.5863 28.2886 46.6749 28.2295C46.7931 28.1408 46.8966 28.0374 46.9852 27.9192C47.0739 27.7714 47.1625 27.6385 47.2512 27.5202C47.3694 27.402 47.5023 27.3282 47.6501 27.2986C47.857 26.8554 48.1525 26.5303 48.5366 26.3234C48.9503 26.087 49.2754 25.762 49.5118 25.3483C49.7778 25.2892 49.9994 25.2005 50.1767 25.0823C50.354 24.9641 50.5165 24.8311 50.6643 24.6834C50.8416 24.5356 51.0189 24.4026 51.1962 24.2844C51.3735 24.1367 51.5804 24.0333 51.8168 23.9741V23.4866C52.3487 23.2502 52.7328 22.9842 52.9693 22.6887C53.2352 22.3636 53.5455 21.9795 53.9001 21.5362C54.1661 21.5067 54.3729 21.4919 54.5207 21.4919C54.698 21.4919 54.9492 21.4623 55.2742 21.4032C55.5106 20.9895 55.7175 20.6792 55.8948 20.4724C56.1016 20.2655 56.3971 20.0439 56.7813 19.8075C57.1359 19.9848 57.5201 20.103 57.9338 20.1621C58.3771 20.2212 58.7612 20.4133 59.0863 20.7383C59.1158 21.0338 59.2045 21.2702 59.3522 21.4476C59.5 21.5953 59.6625 21.7431 59.8398 21.8908C60.0171 22.009 60.1797 22.142 60.3274 22.2898C60.5047 22.4375 60.6229 22.6444 60.682 22.9103C60.8002 22.9399 60.8741 22.9251 60.9036 22.866C60.9628 22.8069 61.0514 22.7921 61.1696 22.8217C61.2583 23.2354 61.3617 23.5161 61.4799 23.6639C61.5981 23.7821 61.7163 24.0333 61.8345 24.4174C61.6867 24.7129 61.5685 25.0232 61.4799 25.3483C61.4208 25.6438 61.2435 25.8654 60.948 26.0132C60.9184 26.22 60.9775 26.3382 61.1253 26.3678C61.273 26.3678 61.3617 26.4416 61.3912 26.5894C61.4208 26.8554 61.3765 27.0474 61.2583 27.1656C61.9675 28.3181 62.6028 29.5445 63.1643 30.8447C63.7258 32.1154 64.3611 33.327 65.0703 34.4795ZM59.5295 38.6905C59.6477 38.3654 59.7955 38.0994 59.9728 37.8926C60.1797 37.6857 60.2979 37.3755 60.3274 36.9617C60.1797 36.7253 60.091 36.548 60.0615 36.4298C60.0319 36.2821 60.0171 36.0604 60.0171 35.7649C59.367 34.8489 58.8055 33.8737 58.3327 32.8394C57.8599 31.7756 57.328 30.7856 56.737 29.8695C56.6779 29.9877 56.5745 30.1059 56.4267 30.2242C56.2789 30.3424 56.1164 30.3128 55.9391 30.1355C55.88 30.3719 55.7766 30.5492 55.6288 30.6674C55.4811 30.7561 55.3185 30.8004 55.1412 30.8004C54.9639 30.7708 54.7719 30.7265 54.565 30.6674C54.3877 30.5788 54.2252 30.4753 54.0774 30.3571C53.2204 31.0368 52.3635 31.7017 51.5065 32.3518C50.6495 33.0019 49.8812 33.7555 49.2015 34.6124C49.0833 34.6716 49.0094 34.7011 48.9799 34.7011C48.9503 34.6716 48.8617 34.6863 48.7139 34.7454C48.4775 35.3069 48.182 35.824 47.8274 36.2968C47.5023 36.7401 47.1773 37.1981 46.8522 37.671C46.5272 38.1438 46.2464 38.6461 46.01 39.1781C45.7736 39.71 45.6406 40.3305 45.6111 41.0398C46.1135 41.4535 46.7045 41.7046 47.3841 41.7933C48.0638 41.882 48.7583 41.8967 49.4675 41.8376C50.2062 41.7785 50.9155 41.6899 51.5951 41.5717C52.3044 41.4239 52.9545 41.35 53.5455 41.35C54.7866 41.0545 55.8505 40.6704 56.737 40.1976C57.6235 39.6952 58.5544 39.1928 59.5295 38.6905ZM77.2896 41.6308C76.8562 43.2068 76.4622 44.4085 76.1075 45.236C75.7923 46.024 75.2998 46.8514 74.63 47.7182C74.1178 47.6394 73.7632 47.6985 73.5662 47.8955C73.3692 48.0926 73.1525 48.2699 72.9161 48.4275C72.5615 48.5063 72.3053 48.5063 72.1477 48.4275C71.9901 48.3487 71.8522 48.2502 71.734 48.132C71.6158 48.0532 71.4582 47.9546 71.2612 47.8364C71.1036 47.7576 70.8475 47.7182 70.4929 47.7182C70.4141 47.403 70.3156 47.1075 70.1974 46.8317C70.1186 46.5559 69.8625 46.4574 69.4291 46.5362C69.5079 46.221 69.5276 45.9649 69.4882 45.7679C69.4488 45.5315 69.3897 45.3345 69.3109 45.1769C69.2715 44.9799 69.2321 44.8026 69.1927 44.645C69.1533 44.448 69.173 44.2115 69.2518 43.9357C69.0548 43.9357 68.8971 43.7978 68.7789 43.522C68.6607 43.2462 68.5228 42.9704 68.3652 42.6946C68.4834 41.9854 68.6016 41.3156 68.7198 40.6851C68.838 40.0547 68.9759 39.4637 69.1336 38.9121C69.3306 38.3605 69.4882 37.8089 69.6064 37.2572C69.7246 36.7056 69.6655 36.1343 69.4291 35.5433C69.5867 35.6615 69.7049 35.6418 69.7837 35.4842C69.8625 35.2872 69.9216 35.0508 69.961 34.775C70.0004 34.4598 70.0201 34.1643 70.0201 33.8885C70.0201 33.5732 70.0004 33.3171 69.961 33.1201C70.355 32.0957 70.6702 31.0516 70.9066 29.9877C71.1824 28.8845 71.4188 27.801 71.6158 26.7372C71.8522 25.6733 72.0886 24.6292 72.325 23.6048C72.5615 22.5803 72.8767 21.6347 73.2707 20.7679C73.7041 20.6891 74.1769 20.7482 74.6891 20.9452C75.2407 21.1028 75.5756 21.3195 75.6938 21.5953C76.7183 20.8073 77.6245 19.8617 78.4125 18.7584C79.2005 17.6158 80.0083 16.5126 80.8357 15.4487C81.6631 14.3849 82.5693 13.4393 83.5544 12.6119C84.5788 11.7844 85.8593 11.2919 87.396 11.1343C88.184 11.7253 89.0508 12.336 89.9964 12.9665C90.9815 13.5575 91.7892 14.3455 92.4196 15.3305C92.7348 15.4881 92.9909 15.6654 93.1879 15.8624C93.4243 16.0201 93.7001 16.1974 94.0154 16.3944V17.1036C94.4882 17.537 94.8625 18.0492 95.1383 18.6402C95.4535 19.1918 95.7293 19.8026 95.9657 20.4724C96.2021 21.1028 96.4385 21.7529 96.6749 22.4227C96.9113 23.0531 97.1871 23.6639 97.5024 24.2549C97.4235 24.4519 97.3841 24.6292 97.3841 24.7868C97.3841 24.905 97.4038 25.0429 97.4432 25.2005C97.5221 25.3581 97.5812 25.5157 97.6206 25.6733C97.66 25.8309 97.66 26.0476 97.6206 26.3234C97.5024 28.0571 96.931 29.4558 95.9066 30.5197C94.9216 31.5835 93.7198 32.47 92.3014 33.1792C90.883 33.8491 89.366 34.4204 87.7506 34.8932C86.1351 35.366 84.6773 35.8782 83.3771 36.4298C83.3771 36.5874 83.4362 36.6662 83.5544 36.6662C83.712 36.6662 83.7711 36.7647 83.7317 36.9617C84.6773 37.5528 85.4259 38.0256 85.9775 38.3802C86.5291 38.7348 87.0414 39.0303 87.5142 39.2667C88.0264 39.5031 88.5583 39.7198 89.1099 39.9168C89.7009 40.0744 90.5087 40.2714 91.5331 40.5078C92.5575 40.7442 93.3455 40.9413 93.8971 41.0989C94.4882 41.2171 95.0201 41.3353 95.4929 41.4535C95.9657 41.5323 96.4385 41.6111 96.9113 41.6899C97.4235 41.7293 98.1328 41.7884 99.039 41.8672C99.3936 42.2218 99.6891 42.6552 99.9255 43.1674C100.201 43.6402 100.379 44.1327 100.457 44.645C100.536 45.1178 100.556 45.5906 100.517 46.0634C100.477 46.4968 100.339 46.8514 100.103 47.1272C100.142 47.2454 100.221 47.3045 100.339 47.3045C100.497 47.2651 100.654 47.2651 100.812 47.3045C100.576 47.4621 100.379 47.6591 100.221 47.8955C100.063 48.132 99.9058 48.3684 99.7482 48.6048C99.5906 48.8412 99.4133 49.0382 99.2163 49.1958C99.0193 49.3928 98.7435 49.511 98.3889 49.5504C97.1674 50.0232 95.6308 50.0429 93.7789 49.6095C91.9271 49.2155 89.5827 48.4669 86.7458 47.3636C85.3274 46.812 84.1651 46.3392 83.2589 45.9452C82.392 45.5118 81.6237 45.0981 80.9539 44.7041C80.3235 44.2706 79.7325 43.8175 79.1808 43.3447C78.6686 42.8719 78.0382 42.3006 77.2896 41.6308ZM85.7411 21.3589C85.3077 21.9893 84.8152 22.5606 84.2636 23.0728C83.7514 23.5851 83.2392 24.117 82.7269 24.6686C82.2541 25.1808 81.8207 25.7718 81.4267 26.4416C81.0327 27.0721 80.7569 27.8207 80.5993 28.6875C81.9783 28.5299 83.4165 28.1556 84.9137 27.5646C86.4109 26.9342 87.8294 26.3431 89.169 25.7915C89.0114 24.5701 88.578 23.5851 87.8688 22.8364C87.199 22.0878 86.4897 21.5953 85.7411 21.3589ZM141.415 46.7135C141.021 46.9105 140.647 47.0878 140.292 47.2454C139.977 47.403 139.602 47.4818 139.169 47.4818C137.632 46.3392 136.825 44.3494 136.746 41.5126C136.706 38.6757 137.317 35.0705 138.578 30.697C138.775 30.5788 138.874 30.3424 138.874 29.9877L138.342 29.3967C138.184 29.3967 138.026 29.4164 137.869 29.4558C137.751 29.4952 137.652 29.6331 137.573 29.8695C136.549 30.6182 135.426 31.4062 134.204 32.2336C132.983 33.0216 131.703 33.7703 130.363 34.4795C129.063 35.1493 127.723 35.7009 126.344 36.1343C125.004 36.5677 123.684 36.7844 122.384 36.7844C119.074 36.7844 116.592 35.1099 114.937 31.7608L114.465 30.8743L113.992 31.6426C113.874 31.8002 113.696 32.1351 113.46 32.6473C113.223 33.1201 112.987 33.6717 112.751 34.3022C112.514 34.9326 112.297 35.5827 112.1 36.2525C111.943 36.8829 111.884 37.4346 111.923 37.9074C111.569 38.262 111.194 38.6757 110.8 39.1485C110.406 39.6213 110.111 40.1532 109.914 40.7442C109.835 41.0595 109.874 41.355 110.032 41.6308C109.953 41.9854 109.776 42.2612 109.5 42.4582C109.342 42.6552 109.165 42.8522 108.968 43.0492C108.81 43.2068 108.673 43.3841 108.554 43.5811C108.476 43.7781 108.416 43.9751 108.377 44.1721C108.377 44.3691 108.357 44.5662 108.318 44.7632C108.318 45.039 108.279 45.2951 108.2 45.5315C107.53 46.9105 106.998 47.797 106.604 48.1911C106.21 48.6245 105.678 48.8412 105.008 48.8412C104.693 48.8412 104.181 48.7821 103.472 48.6639C102.959 48.1123 102.487 47.3636 102.053 46.418C101.659 45.433 101.344 44.3888 101.108 43.2856C100.911 42.1824 100.812 41.0792 100.812 39.9759C100.851 38.8333 101.048 37.8483 101.403 37.0208C101.403 36.9814 101.561 36.5874 101.876 35.8388C102.191 35.0902 102.585 34.1249 103.058 32.9428C103.57 31.7608 104.141 30.4606 104.772 29.0421C105.402 27.5843 106.033 26.1855 106.663 24.8459C107.294 23.4669 107.885 22.206 108.436 21.0634C109.027 19.9208 109.52 19.0539 109.914 18.4629C110.229 17.9901 110.505 17.5567 110.741 17.1627C111.017 16.7293 111.273 16.3156 111.509 15.9215C112.219 14.7001 112.888 13.6954 113.519 12.9074C114.189 12.0799 115.154 11.4298 116.415 10.957C117.282 11.3116 117.912 11.7253 118.306 12.1981L118.424 12.8483C118.582 13.2423 118.818 13.4393 119.134 13.4393C119.567 13.5575 119.922 13.6757 120.197 13.7939C120.513 13.8727 120.848 13.9515 121.202 14.0303C121.478 14.3455 121.734 14.7198 121.97 15.1532C122.286 15.626 122.581 16.0989 122.857 16.5717C123.172 17.0051 123.409 17.4582 123.566 17.931C123.763 18.3644 123.862 18.8175 123.862 19.2903C123.901 19.7632 123.822 20.2557 123.625 20.7679L123.684 21.3589C123.881 21.7135 123.921 22.206 123.803 22.8364C123.763 23.1123 123.743 23.4078 123.743 23.723C123.743 23.9988 123.783 24.314 123.862 24.6686C124.571 25.2202 125.201 25.496 125.753 25.496C126.383 25.496 126.955 25.3581 127.467 25.0823C128.019 24.7671 128.531 24.4519 129.004 24.1367C129.319 23.9003 129.634 23.7033 129.949 23.5457C130.264 23.3487 130.58 23.2305 130.895 23.1911C131.604 22.5212 132.234 21.9302 132.786 21.418C133.377 20.9058 133.988 20.3936 134.618 19.8814C135.8 18.9357 136.943 17.9113 138.046 16.8081C139.149 15.7048 140.036 14.3258 140.706 12.671C141.1 12.4346 141.513 12.3163 141.947 12.3163C142.38 12.3163 142.833 12.4149 143.306 12.6119C143.779 12.8089 144.232 13.0059 144.665 13.2029C144.784 13.2817 144.882 13.3408 144.961 13.3802C145.079 13.4196 145.178 13.459 145.256 13.4984C145.256 13.8924 145.414 14.2273 145.729 14.5031C145.887 14.6213 145.985 14.7001 146.025 14.7395C146.064 14.7789 146.123 14.8183 146.202 14.8577C146.793 15.1729 147.167 15.4881 147.325 15.8033C147.601 16.7096 148.093 17.3991 148.803 17.8719C148.724 18.2659 148.724 18.6402 148.803 18.9948C148.921 19.31 149.059 19.645 149.216 19.9996C149.256 20.1178 149.295 20.236 149.335 20.3542C149.374 20.4724 149.433 20.6103 149.512 20.7679L148.389 20.6497L148.566 21.7726C148.645 22.3242 148.586 22.9349 148.389 23.6048C148.231 24.2746 148.034 24.8065 147.798 25.2005C147.837 26.2249 147.857 27.0327 147.857 27.6237C147.896 28.1753 147.877 28.7072 147.798 29.2194C147.719 29.6922 147.601 30.1453 147.443 30.5788C147.325 31.0122 147.148 31.485 146.911 31.9972C147.069 34.5189 146.773 36.8238 146.025 38.9121C145.316 40.961 144.567 42.8916 143.779 44.7041C143.7 44.9011 143.602 45.0981 143.483 45.2951C143.405 45.4921 143.326 45.6891 143.247 45.8861C142.892 46.0043 142.577 46.1422 142.301 46.2998C142.026 46.418 141.73 46.5559 141.415 46.7135ZM175.65 34.4795C175.62 34.8341 175.65 35.1739 175.738 35.499C175.827 35.824 175.93 36.1491 176.048 36.4742C176.196 36.7697 176.329 37.0799 176.447 37.405C176.566 37.7301 176.654 38.0551 176.713 38.3802C176.772 38.7939 176.772 39.2519 176.713 39.7543C176.654 40.2271 176.551 40.6999 176.403 41.1727C176.255 41.616 176.063 42.0297 175.827 42.4139C175.59 42.7685 175.31 43.0344 174.985 43.2117C174.571 43.7437 174.069 44.1574 173.478 44.4529C172.887 44.7484 172.34 45.103 171.837 45.5167C171.512 45.7236 171.143 45.8713 170.729 45.96C170.345 46.0486 169.946 46.1373 169.533 46.2259C169.207 46.4032 168.823 46.5953 168.38 46.8022C167.937 46.9795 167.479 47.1568 167.006 47.3341C166.533 47.4818 166.06 47.6 165.587 47.6887C165.115 47.7478 164.701 47.7626 164.346 47.733C163.46 48.0581 162.588 48.2649 161.731 48.3536C160.904 48.4718 159.928 48.4127 158.806 48.1763C157.742 48.324 156.752 48.2797 155.836 48.0433C154.949 47.8069 154.151 47.4375 153.442 46.9351C152.762 46.4032 152.157 45.7827 151.625 45.0734C151.122 44.3347 150.709 43.5664 150.384 42.7685C150.147 41.0841 150.206 39.5622 150.561 38.2029C150.915 36.814 151.418 35.5433 152.068 34.3908C152.748 33.2088 153.516 32.1302 154.373 31.155C155.23 30.1503 156.057 29.1751 156.855 28.2295C157.033 28.2886 157.165 28.2886 157.254 28.2295C157.372 28.1408 157.476 28.0374 157.564 27.9192C157.653 27.7714 157.742 27.6385 157.83 27.5202C157.949 27.402 158.082 27.3282 158.229 27.2986C158.436 26.8554 158.732 26.5303 159.116 26.3234C159.53 26.087 159.855 25.762 160.091 25.3483C160.357 25.2892 160.579 25.2005 160.756 25.0823C160.933 24.9641 161.096 24.8311 161.243 24.6834C161.421 24.5356 161.598 24.4026 161.775 24.2844C161.953 24.1367 162.16 24.0333 162.396 23.9741V23.4866C162.928 23.2502 163.312 22.9842 163.548 22.6887C163.814 22.3636 164.125 21.9795 164.479 21.5362C164.745 21.5067 164.952 21.4919 165.1 21.4919C165.277 21.4919 165.528 21.4623 165.853 21.4032C166.09 20.9895 166.297 20.6792 166.474 20.4724C166.681 20.2655 166.976 20.0439 167.361 19.8075C167.715 19.9848 168.099 20.103 168.513 20.1621C168.956 20.2212 169.34 20.4133 169.665 20.7383C169.695 21.0338 169.784 21.2702 169.931 21.4476C170.079 21.5953 170.242 21.7431 170.419 21.8908C170.596 22.009 170.759 22.142 170.907 22.2898C171.084 22.4375 171.202 22.6444 171.261 22.9103C171.379 22.9399 171.453 22.9251 171.483 22.866C171.542 22.8069 171.631 22.7921 171.749 22.8217C171.837 23.2354 171.941 23.5161 172.059 23.6639C172.177 23.7821 172.296 24.0333 172.414 24.4174C172.266 24.7129 172.148 25.0232 172.059 25.3483C172 25.6438 171.823 25.8654 171.527 26.0132C171.498 26.22 171.557 26.3382 171.704 26.3678C171.852 26.3678 171.941 26.4416 171.97 26.5894C172 26.8554 171.956 27.0474 171.837 27.1656C172.547 28.3181 173.182 29.5445 173.743 30.8447C174.305 32.1154 174.94 33.327 175.65 34.4795ZM170.109 38.6905C170.227 38.3654 170.375 38.0994 170.552 37.8926C170.759 37.6857 170.877 37.3755 170.907 36.9617C170.759 36.7253 170.67 36.548 170.641 36.4298C170.611 36.2821 170.596 36.0604 170.596 35.7649C169.946 34.8489 169.385 33.8737 168.912 32.8394C168.439 31.7756 167.907 30.7856 167.316 29.8695C167.257 29.9877 167.154 30.1059 167.006 30.2242C166.858 30.3424 166.696 30.3128 166.518 30.1355C166.459 30.3719 166.356 30.5492 166.208 30.6674C166.06 30.7561 165.898 30.8004 165.72 30.8004C165.543 30.7708 165.351 30.7265 165.144 30.6674C164.967 30.5788 164.804 30.4753 164.657 30.3571C163.8 31.0368 162.943 31.7017 162.086 32.3518C161.229 33.0019 160.46 33.7555 159.781 34.6124C159.663 34.6716 159.589 34.7011 159.559 34.7011C159.53 34.6716 159.441 34.6863 159.293 34.7454C159.057 35.3069 158.761 35.824 158.407 36.2968C158.082 36.7401 157.757 37.1981 157.431 37.671C157.106 38.1438 156.826 38.6461 156.589 39.1781C156.353 39.71 156.22 40.3305 156.19 41.0398C156.693 41.4535 157.284 41.7046 157.963 41.7933C158.643 41.882 159.337 41.8967 160.047 41.8376C160.785 41.7785 161.495 41.6899 162.174 41.5717C162.884 41.4239 163.534 41.35 164.125 41.35C165.366 41.0545 166.43 40.6704 167.316 40.1976C168.203 39.6952 169.134 39.1928 170.109 38.6905ZM179.122 21.1225C179.24 20.5315 179.319 20.0587 179.358 19.7041C179.398 19.31 179.26 18.8963 178.944 18.4629C179.102 17.8325 179.22 17.34 179.299 16.9854C179.417 16.6308 179.437 16.1383 179.358 15.5078C179.713 14.4834 180.245 13.6166 180.954 12.9074C181.703 12.1981 182.51 11.6071 183.377 11.1343C184.244 10.6221 185.15 10.2084 186.096 9.89318C187.041 9.53857 187.928 9.24306 188.755 9.00665C188.755 8.84905 188.677 8.77025 188.519 8.77025C188.361 8.77025 188.322 8.67175 188.401 8.47474C190.528 8.08073 192.656 7.50941 194.784 6.76079C196.951 6.01217 199.157 5.34235 201.403 4.75134C203.649 4.16032 205.954 3.80571 208.318 3.68751C210.682 3.5299 213.164 3.82541 215.765 4.57403C215.922 5.04684 216.139 5.49996 216.415 5.93337C216.691 6.36678 216.967 6.80019 217.242 7.23361C217.558 7.62762 217.833 8.02163 218.07 8.41564C218.306 8.80965 218.444 9.22336 218.483 9.65677C218.956 10.0902 219.331 10.563 219.606 11.0752C219.922 11.548 219.981 12.1981 219.784 13.0256C219.35 13.3408 218.897 13.656 218.424 13.9712C217.952 14.2864 217.459 14.5819 216.947 14.8577C215.174 14.4243 213.401 14.2667 211.628 14.3849C209.855 14.5031 208.259 14.641 206.84 14.7986C206.407 14.3258 205.895 14.1091 205.304 14.1485C204.713 14.1485 204.082 14.247 203.413 14.444C202.782 14.6016 202.152 14.7789 201.521 14.9759C200.891 15.1335 200.3 15.1729 199.748 15.0941C199.315 15.4881 198.743 15.7639 198.034 15.9215C197.325 16.0398 196.576 16.1383 195.788 16.2171C195.749 16.4141 195.788 16.552 195.907 16.6308C196.025 16.7096 196.045 16.8672 195.966 17.1036C196.242 17.4582 196.616 17.7143 197.089 17.8719C197.561 17.9901 198.034 18.1083 198.507 18.2265C199.019 18.3447 199.472 18.522 199.866 18.7584C200.26 18.9554 200.517 19.2903 200.635 19.7632C201.344 19.8026 201.955 19.9996 202.467 20.3542C202.979 20.6694 203.413 21.0634 203.767 21.5362C204.122 22.009 204.378 22.5212 204.535 23.0728C204.693 23.5851 204.752 24.0579 204.713 24.4913C204.87 24.8853 205.028 25.0429 205.186 24.9641C205.383 24.8853 205.599 24.9838 205.836 25.2596C205.993 25.8506 206.348 26.481 206.9 27.1509C207.491 27.7813 207.944 28.4708 208.259 29.2194C208.338 30.4015 208.397 31.4653 208.436 32.4109C208.515 33.3565 208.357 34.2825 207.963 35.1887C207.294 36.9223 206.328 38.4787 205.067 39.8577C203.807 41.2368 202.368 42.4582 200.753 43.522C199.177 44.5465 197.502 45.4527 195.729 46.2407C193.956 46.9893 192.203 47.6197 190.469 48.132C190.312 48.0926 190.115 48.0926 189.878 48.132C189.681 48.1714 189.642 48.0532 189.76 47.7773C189.405 48.0926 188.992 48.2896 188.519 48.3684C188.085 48.4472 187.593 48.4669 187.041 48.4275C186.529 48.4275 185.997 48.4078 185.446 48.3684C184.933 48.329 184.421 48.3487 183.909 48.4275C183.594 48.1123 183.298 47.797 183.022 47.4818C182.786 47.1666 182.589 46.7923 182.431 46.3589C182.234 46.3195 182.136 46.2013 182.136 46.0043C182.175 45.7679 182.097 45.6497 181.9 45.6497C181.9 45.4921 181.919 45.3739 181.959 45.2951C181.998 45.2163 182.037 45.1375 182.077 45.0587C182.234 44.9405 182.294 44.8617 182.254 44.8223C182.254 44.7435 182.195 44.6844 182.077 44.645C181.998 44.5662 181.9 44.4874 181.781 44.4085C181.703 44.3297 181.683 44.2312 181.722 44.113C181.919 43.7584 181.978 43.3447 181.9 42.8719C181.86 42.3597 181.821 41.8475 181.781 41.3353C181.742 40.823 181.781 40.3502 181.9 39.9168C182.018 39.444 182.353 39.05 182.904 38.7348C184.52 38.8924 186.037 38.8136 187.455 38.4984C188.913 38.1832 190.272 37.7498 191.533 37.1981C192.833 36.6465 194.055 36.0555 195.197 35.4251C196.379 34.7553 197.522 34.1446 198.625 33.5929C198.743 33.1989 198.921 32.864 199.157 32.5882C199.433 32.3124 199.709 32.0563 199.985 31.8199C200.26 31.5441 200.517 31.2683 200.753 30.9925C200.989 30.6773 201.167 30.303 201.285 29.8695C201.324 29.7119 201.324 29.5937 201.285 29.5149C201.245 29.4361 201.186 29.377 201.108 29.3376C201.029 29.2588 200.95 29.18 200.871 29.1012C200.792 29.0224 200.753 28.9042 200.753 28.7466C200.635 28.7072 200.517 28.6678 200.398 28.6284C200.32 28.589 200.241 28.5693 200.162 28.5693C199.138 28.0571 198.054 27.6237 196.911 27.2691C195.769 26.9145 194.803 26.5204 194.015 26.087C193.543 26.4022 193.07 26.481 192.597 26.3234C192.124 26.1658 191.553 26.0082 190.883 25.8506C189.228 25.7718 187.652 25.6142 186.155 25.3778C184.697 25.1414 183.279 24.7277 181.9 24.1367C181.821 23.9003 181.722 23.7033 181.604 23.5457C181.486 23.3487 181.21 23.2896 180.777 23.3684C180.501 22.9743 180.205 22.6197 179.89 22.3045C179.614 21.9499 179.358 21.5559 179.122 21.1225ZM246.498 30.0468C246.458 30.5197 246.498 30.9728 246.616 31.4062C246.734 31.8396 246.872 32.273 247.03 32.7064C247.227 33.1004 247.404 33.5141 247.561 33.9476C247.719 34.381 247.837 34.8144 247.916 35.2478C247.995 35.7994 247.995 36.4101 247.916 37.0799C247.837 37.7104 247.699 38.3408 247.502 38.9712C247.305 39.5622 247.049 40.1138 246.734 40.626C246.419 41.0989 246.045 41.4535 245.611 41.6899C245.059 42.3991 244.39 42.9507 243.602 43.3447C242.814 43.7387 242.085 44.2115 241.415 44.7632C240.981 45.039 240.489 45.236 239.937 45.3542C239.425 45.4724 238.893 45.5906 238.342 45.7088C237.908 45.9452 237.396 46.2013 236.805 46.4771C236.214 46.7135 235.603 46.9499 234.973 47.1863C234.342 47.3833 233.712 47.5409 233.082 47.6591C232.451 47.7379 231.9 47.7576 231.427 47.7182C230.245 48.1517 229.082 48.4275 227.94 48.5457C226.836 48.7033 225.536 48.6245 224.039 48.3093C222.621 48.5063 221.301 48.4472 220.079 48.132C218.897 47.8167 217.833 47.3242 216.888 46.6544C215.981 45.9452 215.174 45.1178 214.465 44.1721C213.795 43.1871 213.243 42.1627 212.81 41.0989C212.494 38.853 212.573 36.8238 213.046 35.0114C213.519 33.1595 214.189 31.4653 215.056 29.9286C215.962 28.3526 216.986 26.9145 218.129 25.6142C219.271 24.2746 220.375 22.9743 221.439 21.7135C221.675 21.7923 221.852 21.7923 221.97 21.7135C222.128 21.5953 222.266 21.4574 222.384 21.2998C222.502 21.1028 222.621 20.9255 222.739 20.7679C222.896 20.6103 223.074 20.5118 223.271 20.4724C223.546 19.8814 223.941 19.4479 224.453 19.1721C225.004 18.8569 225.438 18.4235 225.753 17.8719C226.108 17.7931 226.403 17.6749 226.639 17.5173C226.876 17.3597 227.093 17.1824 227.29 16.9854C227.526 16.7884 227.762 16.6111 227.999 16.4535C228.235 16.2565 228.511 16.1186 228.826 16.0398V15.3896C229.535 15.0744 230.048 14.7198 230.363 14.3258C230.717 13.8924 231.131 13.3802 231.604 12.7892C231.959 12.7498 232.234 12.7301 232.431 12.7301C232.668 12.7301 233.003 12.6907 233.436 12.6119C233.751 12.0602 234.027 11.6465 234.264 11.3707C234.539 11.0949 234.933 10.7994 235.446 10.4842C235.918 10.7206 236.431 10.8782 236.982 10.957C237.573 11.0358 238.085 11.2919 238.519 11.7253C238.558 12.1193 238.677 12.4346 238.874 12.671C239.071 12.868 239.287 13.065 239.524 13.262C239.76 13.4196 239.977 13.5969 240.174 13.7939C240.41 13.9909 240.568 14.2667 240.647 14.6213C240.804 14.6607 240.903 14.641 240.942 14.5622C241.021 14.4834 241.139 14.4637 241.297 14.5031C241.415 15.0547 241.553 15.429 241.71 15.626C241.868 15.7836 242.026 16.1186 242.183 16.6308C241.986 17.0248 241.829 17.4385 241.71 17.8719C241.632 18.2659 241.395 18.5614 241.001 18.7584C240.962 19.0342 241.041 19.1918 241.238 19.2312C241.435 19.2312 241.553 19.3297 241.592 19.5268C241.632 19.8814 241.572 20.1375 241.415 20.2951C242.361 21.8317 243.208 23.4669 243.956 25.2005C244.705 26.8948 245.552 28.5102 246.498 30.0468ZM239.11 35.6615C239.268 35.2281 239.465 34.8735 239.701 34.5977C239.977 34.3219 240.134 33.9082 240.174 33.3565C239.977 33.0413 239.859 32.8049 239.819 32.6473C239.78 32.4503 239.76 32.1548 239.76 31.7608C238.893 30.5394 238.145 29.2391 237.514 27.8601C236.884 26.4416 236.175 25.1217 235.387 23.9003C235.308 24.0579 235.17 24.2155 234.973 24.3731C234.776 24.5307 234.559 24.4913 234.323 24.2549C234.244 24.5701 234.106 24.8065 233.909 24.9641C233.712 25.0823 233.495 25.1414 233.259 25.1414C233.022 25.102 232.766 25.0429 232.491 24.9641C232.254 24.8459 232.037 24.708 231.84 24.5504C230.698 25.4566 229.555 26.3431 228.413 27.21C227.27 28.0768 226.245 29.0815 225.339 30.2242C225.182 30.303 225.083 30.3424 225.044 30.3424C225.004 30.303 224.886 30.3227 224.689 30.4015C224.374 31.1501 223.98 31.8396 223.507 32.47C223.074 33.061 222.64 33.6717 222.207 34.3022C221.773 34.9326 221.399 35.6024 221.084 36.3116C220.769 37.0208 220.591 37.8483 220.552 38.7939C221.222 39.3455 222.01 39.6804 222.916 39.7986C223.822 39.9168 224.748 39.9365 225.694 39.8577C226.679 39.7789 227.625 39.6607 228.531 39.5031C229.476 39.3061 230.343 39.2076 231.131 39.2076C232.786 38.8136 234.204 38.3014 235.387 37.671C236.569 37.0011 237.81 36.3313 239.11 35.6615ZM283.791 14.1485C283.87 15.0153 284.007 15.7639 284.204 16.3944C284.402 17.0248 284.618 17.6355 284.855 18.2265C285.052 18.7781 285.229 19.3297 285.387 19.8814C285.584 20.3936 285.721 21.024 285.8 21.7726C285.485 22.797 285.249 23.7427 285.091 24.6095C284.973 25.4763 284.835 26.3825 284.677 27.3282C284.047 28.7072 283.436 29.9286 282.845 30.9925C282.254 32.0563 281.781 32.9822 281.427 33.7703C281.23 33.9673 281.052 34.2037 280.895 34.4795C280.777 34.7159 280.639 34.972 280.481 35.2478C280.402 35.366 280.304 35.5433 280.186 35.7797C280.067 36.0161 279.969 36.1737 279.89 36.2525L278.708 35.8388L278.472 37.3163L277.644 37.5528L277.053 38.262C276.305 39.5622 275.517 40.6654 274.689 41.5717C273.862 42.4385 272.916 43.2265 271.852 43.9357C270.828 44.6056 269.646 45.236 268.306 45.827C267.006 46.418 265.528 47.0681 263.874 47.7773C263.204 47.6985 262.613 47.6591 262.1 47.6591C261.628 47.6197 261.175 47.5803 260.741 47.5409C259.993 47.5409 259.067 47.4818 257.963 47.3636C257.845 47.0484 257.668 46.8317 257.431 46.7135C257.195 46.5953 256.978 46.5362 256.781 46.5362C256.112 46.221 255.599 45.7679 255.245 45.1769C254.929 44.5465 254.614 43.8766 254.299 43.1674C254.102 42.734 253.905 42.34 253.708 41.9854C253.511 41.5914 253.294 41.1974 253.058 40.8033L254.063 40.5078L252.762 39.0894C252.684 38.9712 252.585 38.8727 252.467 38.7939C252.349 38.6757 252.25 38.5575 252.171 38.4393L252.112 37.4937C251.994 34.775 251.935 32.2927 251.935 30.0468C251.974 27.7616 252.29 25.7324 252.881 23.9594V23.3093C252.999 22.4424 253.117 21.7332 253.235 21.1816C253.353 20.5906 253.452 20.039 253.531 19.5268C253.649 18.6599 253.826 17.8522 254.063 17.1036C254.614 16.9854 255.028 16.7687 255.304 16.4535C255.58 16.0989 255.816 15.7836 256.013 15.5078C256.565 15.4684 256.939 15.5472 257.136 15.7442C257.333 15.9412 257.53 16.2565 257.727 16.6899C257.924 17.0445 258.16 17.4385 258.436 17.8719C258.751 18.3053 259.204 18.6402 259.796 18.8766C259.874 19.1918 259.973 19.5268 260.091 19.8814C260.249 20.1966 260.406 20.5512 260.564 20.9452C260.879 21.615 261.155 22.3242 261.391 23.0728C261.667 23.7821 261.825 24.4716 261.864 25.1414C261.47 25.89 261.155 26.7569 260.918 27.7419C260.721 28.7269 260.584 29.7316 260.505 30.7561C260.465 31.7411 260.485 32.7064 260.564 33.652C260.682 34.5583 260.859 35.3266 261.096 35.957L261.45 36.7253L262.455 36.6071C263.637 36.2919 264.701 35.957 265.647 35.6024C266.632 35.2084 267.538 34.7553 268.365 34.2431C269.193 33.7308 269.981 33.1398 270.729 32.47C271.478 31.7608 272.266 30.9531 273.093 30.0468C273.921 29.1406 274.63 28.1162 275.221 26.9736C275.851 25.7915 276.364 24.5701 276.758 23.3093C277.191 22.0484 277.506 20.8073 277.703 19.5859C277.94 18.325 278.097 17.143 278.176 16.0398C278.846 15.8033 279.181 15.3305 279.181 14.6213L279.063 13.9712C278.905 13.7348 278.905 13.459 279.063 13.1438C279.299 12.3952 279.851 11.8238 280.717 11.4298C281.348 11.8238 281.9 12.2572 282.372 12.7301C282.885 13.2029 283.357 13.6757 283.791 14.1485ZM299.926 47.1272C298.822 47.4818 297.621 47.8364 296.32 48.1911C295.02 48.5457 293.72 48.723 292.42 48.723C290.45 48.723 288.893 48.2305 287.751 47.2454C287.554 46.812 287.376 46.5165 287.219 46.3589C287.1 46.2013 286.982 46.0437 286.864 45.8861C286.785 45.6891 286.726 45.433 286.687 45.1178C286.214 44.5662 285.84 43.9357 285.564 43.2265C285.288 42.4779 285.091 41.7293 284.973 40.9807C284.894 40.1926 284.874 39.4046 284.914 38.6166C284.993 37.8286 285.13 37.0799 285.327 36.3707C285.406 36.2131 285.446 36.0555 285.446 35.8979C285.485 35.7403 285.524 35.563 285.564 35.366C285.721 34.7356 285.879 34.1249 286.037 33.5338C286.234 32.9428 286.49 32.4306 286.805 31.9972C286.647 31.6426 286.647 31.2486 286.805 30.8152C286.963 30.3818 287.14 29.9877 287.337 29.6331C287.888 28.1359 288.342 26.8751 288.696 25.8506C289.09 24.7868 289.484 23.7427 289.878 22.7182C290.548 20.9452 291.178 19.1918 291.77 17.4582C292.361 15.7245 292.892 13.853 293.365 11.8435C293.68 11.6465 293.917 11.5086 294.074 11.4298C294.311 11.351 294.508 11.2919 294.665 11.2525C295.375 11.6071 296.202 11.9617 297.148 12.3163C298.093 12.6316 298.881 12.7892 299.512 12.7892C299.827 12.9862 300.024 13.1438 300.103 13.262C300.182 13.3408 300.26 13.4196 300.339 13.4984C300.773 14.0106 301.147 14.5425 301.462 15.0941C301.777 15.6063 301.876 16.2959 301.758 17.1627C301.521 17.5173 301.344 17.6946 301.226 17.6946C301.029 18.4826 300.812 19.1524 300.576 19.7041C300.379 20.2557 300.162 20.8073 299.926 21.3589C299.65 21.9499 299.394 22.5409 299.157 23.132C298.921 23.723 298.724 24.4519 298.566 25.3187C298.409 25.5157 298.29 25.693 298.212 25.8506C298.172 26.0082 298.113 26.1855 298.034 26.3825C297.955 26.5795 297.857 26.7963 297.739 27.0327C297.66 27.2297 297.522 27.407 297.325 27.5646C297.207 28.589 297.01 29.4164 296.734 30.0468C296.498 30.6773 296.242 31.3077 295.966 31.9381C295.493 33.0807 295.059 34.2234 294.665 35.366C294.311 36.5086 294.094 37.8089 294.015 39.2667C294.212 39.1879 294.39 39.1485 294.547 39.1485C294.744 39.1485 294.922 39.1485 295.079 39.1485C295.434 39.1485 295.848 39.2076 296.32 39.3258C297.502 38.6954 298.783 38.3211 300.162 38.2029C301.58 38.0847 302.979 38.0059 304.358 37.9665C304.91 37.9665 305.461 37.9665 306.013 37.9665C306.565 37.9665 307.077 37.9271 307.55 37.8483C307.904 38.0453 308.121 38.1635 308.2 38.2029C308.318 38.2029 308.476 38.2029 308.673 38.2029C308.948 38.2029 309.185 38.2226 309.382 38.262C309.855 38.6954 310.308 39.0106 310.741 39.2076C311.175 39.4046 311.628 39.5819 312.1 39.7395C312.534 39.8971 312.948 40.0744 313.342 40.2714C313.775 40.429 314.189 40.6654 314.583 40.9807L314.996 43.522C315.272 43.8766 315.39 44.113 315.351 44.2312C315.351 44.5465 315.272 44.7829 315.115 44.9405L315.233 45.5906C314.642 45.7088 314.228 45.8467 313.992 46.0043C313.795 46.1619 313.598 46.3392 313.401 46.5362C313.086 46.5756 312.849 46.5953 312.691 46.5953C312.573 46.5953 312.455 46.5953 312.337 46.5953C311.785 46.5953 311.115 46.6938 310.327 46.8908C309.264 46.5362 308.16 46.3589 307.018 46.3589C306.584 46.3589 306.131 46.3786 305.658 46.418C305.186 46.4574 304.713 46.4968 304.24 46.5362C303.767 46.615 303.275 46.6741 302.762 46.7135C302.29 46.7529 301.797 46.7726 301.285 46.7726L299.926 47.1272Z" fill="black"/>
<path d="M240.437 27.5062C240.516 27.8214 240.575 28.1169 240.615 28.3927C240.654 28.6685 240.713 28.9641 240.792 29.2793C240.634 29.6733 240.496 30.0673 240.378 30.4613C240.26 30.8159 240.142 31.1705 240.024 31.5251C239.905 31.8009 239.827 31.9782 239.787 32.057C239.748 32.1358 239.728 32.1949 239.728 32.2344C239.728 32.2737 239.728 32.3328 239.728 32.4117C239.767 32.4511 239.787 32.6087 239.787 32.8845L239.551 33.5936C239.354 33.8695 239.117 34.0862 238.842 34.2438C238.566 34.4014 238.29 34.5393 238.014 34.6575C237.935 34.7363 237.817 34.7954 237.659 34.8348C237.502 34.9136 237.384 34.9924 237.305 35.0712L237.128 35.7805L236.359 35.8986C235.689 36.0563 235.118 36.135 234.645 36.135H233.936C233.463 35.7016 233.089 35.3667 232.813 35.1303C232.537 34.8939 232.242 34.6772 231.927 34.4802C231.533 33.9286 231.316 33.5346 231.277 33.2982C231.237 33.0223 231.178 32.7663 231.099 32.5299C231.02 32.0176 230.922 31.6827 230.804 31.5251L229.976 30.6977L230.686 30.1658L230.035 29.0429C230.508 28.6883 230.863 28.4321 231.099 28.2745C231.336 28.1169 231.533 27.9593 231.69 27.8017C231.848 27.6047 232.025 27.3683 232.222 27.0925C232.419 26.8167 232.734 26.3636 233.168 25.7332L233.7 24.9648L234.468 25.3786C234.626 25.4968 234.961 25.615 235.473 25.7332C236.024 25.812 236.497 25.8908 236.891 25.9696C237.561 26.1666 238.191 26.3242 238.782 26.4424C239.374 26.5212 239.846 26.7182 240.201 27.0334L240.437 27.5062Z" fill="black"/>
</g>
<defs>
<clipPath id="clip0_2412_6718">
<rect width="320" height="52.9551" fill="white"/>
</clipPath>
</defs>
</svg>
