<svg width="59" height="60" viewBox="0 0 59 60" fill="none" xmlns="http://www.w3.org/2000/svg">
<path d="M5 42.8125C3.4375 41.9271 2.23958 40.6771 1.40625 39.0625C0.572917 37.4479 0.104167 35.9115 0 34.4531C0.15625 33.2031 0.494792 32.2396 1.01563 31.5625C1.48438 30.8333 2.05729 30.2604 2.73438 29.8438C3.41146 29.375 4.11458 29.0365 4.84375 28.8281C5.57292 28.5677 6.27604 28.3594 6.95313 28.2031L8.125 28.5938C8.38542 28.8542 8.64583 29.0885 8.90625 29.2969C9.21875 29.5052 9.50521 29.7135 9.76563 29.9219C10.2865 29.7135 10.599 29.401 10.7031 28.9844C10.8594 28.5677 11.0156 28.151 11.1719 27.7344C11.3281 27.1615 11.5104 26.5885 11.7188 26.0156C11.9271 25.4427 12.1875 24.8698 12.5 24.2969C12.4479 23.8281 12.474 23.4115 12.5781 23.0469C12.6823 22.6823 12.7865 22.3698 12.8906 22.1094C12.5781 21.849 12.3438 21.7188 12.1875 21.7188C12.0833 21.6667 11.875 21.5885 11.5625 21.4844C11.4063 21.4844 11.25 21.4844 11.0938 21.4844C10.9375 21.4323 10.7552 21.3802 10.5469 21.3281C9.76563 20.7552 9.24479 20.2865 8.98438 19.9219C8.77604 19.5052 8.54167 19.0885 8.28125 18.6719C8.02083 18.2552 7.78646 17.8906 7.57813 17.5781C7.36979 17.2656 7.13542 16.9792 6.875 16.7188L5.9375 16.0938L6.40625 15.1562C6.51042 15.0521 6.5625 14.9219 6.5625 14.7656C6.5625 14.5573 6.45833 14.2708 6.25 13.9062C6.09375 13.2292 6.06771 12.7344 6.17188 12.4219L6.32813 11.4844C6.84896 10.8073 7.13542 10.4167 7.1875 10.3125L7.96875 9.53125C9.16667 9.21875 10.3906 8.88021 11.6406 8.51562C12.8906 8.09896 14.1146 7.68229 15.3125 7.26562C16.5104 6.84896 17.7344 6.43229 18.9844 6.01562C20.2344 5.59896 21.4844 5.23438 22.7344 4.92188C23.151 4.55729 23.5938 4.34896 24.0625 4.29688C24.5833 4.19271 25.0521 4.11458 25.4688 4.0625C25.8333 4.0625 26.1719 4.03646 26.4844 3.98438C26.7969 3.93229 27.0313 3.80208 27.1875 3.59375C28.0729 3.28125 28.9323 3.02083 29.7656 2.8125C31.3281 2.39583 33.3854 1.90104 35.9375 1.32812C38.4896 0.755208 41.3542 0.338542 44.5312 0.078125L46.1719 0C46.4844 0.0520833 46.7969 0.078125 47.1094 0.078125C47.4219 0.0260417 47.7344 0 48.0469 0C50.7552 0 52.5521 0.833333 53.4375 2.5C53.9583 2.76042 54.4271 3.09896 54.8438 3.51562C55.2604 3.88021 55.651 4.24479 56.0156 4.60938C56.276 4.86979 56.5104 5.10417 56.7188 5.3125C56.9271 5.46875 57.1094 5.59896 57.2656 5.70312L57.8906 6.32812C58.4635 7.57812 58.5677 8.80208 58.2031 10C57.8906 10.625 57.5521 10.9896 57.1875 11.0938C56.8229 11.1979 56.4583 11.3021 56.0938 11.4062L55.0781 11.9531C54.401 11.901 53.8802 11.875 53.5156 11.875C53.2031 11.875 52.8385 11.875 52.4219 11.875C50.8594 11.875 49.0365 11.9792 46.9531 12.1875C44.9219 12.3438 42.8385 12.6042 40.7031 12.9688C38.5677 13.2812 36.4844 13.6979 34.4531 14.2188C32.4219 14.6875 30.651 15.2083 29.1406 15.7812C28.724 16.0938 28.1771 16.3802 27.5 16.6406C27.3438 16.6927 27.1094 16.8229 26.7969 17.0312C26.849 17.4479 26.849 17.8646 26.7969 18.2812C26.7448 18.6458 26.6667 19.0104 26.5625 19.375C26.5104 19.6354 26.4583 19.9219 26.4063 20.2344C26.4063 20.4948 26.3802 20.7812 26.3281 21.0938C25.2344 22.3958 24.7135 23.9323 24.7656 25.7031L24.375 26.4844C24.1667 26.6927 23.9844 27.0052 23.8281 27.4219C23.724 27.7865 23.724 28.1771 23.8281 28.5938L24.1406 29.5312C25.1823 29.4271 26.1979 29.3229 27.1875 29.2188C28.2292 29.0625 29.3229 28.9062 30.4688 28.75C31.9271 28.4896 33.3854 28.2812 34.8438 28.125C36.3542 27.9167 37.9167 27.8125 39.5312 27.8125H42.5781L41.875 28.5156L42.7344 28.5938L42.2656 29.8438C42.6302 30 42.8906 30.1302 43.0469 30.2344C43.2552 30.2865 43.4375 30.3646 43.5938 30.4688L44.1406 31.25C44.401 31.4062 44.6354 31.6667 44.8438 32.0312C45.0521 32.3438 45.1823 32.7865 45.2344 33.3594L45 34.1406L41.3281 38.8281L40.8594 39.4531L40.0781 39.2188C39.0885 39.1667 38.151 39.2708 37.2656 39.5312C36.849 39.6354 36.4063 39.7656 35.9375 39.9219C35.4688 40.026 35 40.0781 34.5313 40.0781C33.2812 40.2865 32.2396 40.4688 31.4063 40.625C30.5729 40.7292 29.7396 40.8333 28.9063 40.9375C27.7604 41.1458 26.6406 41.3542 25.5469 41.5625C24.5052 41.7188 23.5156 41.9792 22.5781 42.3438C22.0052 42.3958 21.6667 42.4219 21.5625 42.4219C21.4583 42.3698 21.3542 42.3438 21.25 42.3438C20.7292 42.3438 20.2083 42.4219 19.6875 42.5781C19.1667 42.7344 18.6719 42.8906 18.2031 43.0469C17.8906 43.3073 17.6823 43.5938 17.5781 43.9062C17.474 44.1667 17.3698 44.4531 17.2656 44.7656C17.1615 45.1302 17.0052 45.4948 16.7969 45.8594C16.6406 46.1719 16.4323 46.5104 16.1719 46.875L16.25 48.2812C15.7813 48.3854 15.5469 48.4635 15.5469 48.5156C15.5469 48.5156 15.5208 48.5156 15.4688 48.5156C15.4688 48.9323 15.3906 49.3229 15.2344 49.6875C15.1302 50.0521 15.026 50.3906 14.9219 50.7031C14.8177 50.9115 14.7396 51.0938 14.6875 51.25C14.6354 51.4062 14.6094 51.5625 14.6094 51.7188C15.1302 52.6562 15.2604 53.724 15 54.9219C14.7917 55.9115 14.401 56.7969 13.8281 57.5781C13.2552 58.3073 12.5781 58.8802 11.7969 59.2969C10.9635 59.401 10.3385 59.375 9.92188 59.2188C9.55729 59.0625 9.16667 58.9062 8.75 58.75C8.48958 58.6458 8.22917 58.5677 7.96875 58.5156C7.70833 58.4115 7.44792 58.3333 7.1875 58.2812L6.25 57.5C6.09375 57.1875 5.91146 56.901 5.70313 56.6406C5.49479 56.3281 5.28646 56.0156 5.07813 55.7031C4.81771 55.3385 4.55729 54.974 4.29688 54.6094C4.03646 54.2448 3.80208 53.8281 3.59375 53.3594C3.22917 51.5365 3.15104 50.026 3.35938 48.8281C3.61979 47.5781 3.95833 46.3542 4.375 45.1562C4.47917 44.7396 4.58333 44.349 4.6875 43.9844C4.79167 43.6198 4.89583 43.2292 5 42.8125Z" fill="#FF9010"/>
</svg>
