<svg width="415" height="93" viewBox="0 0 415 93" fill="none" xmlns="http://www.w3.org/2000/svg">
<path d="M5 73.0723C3.4375 72.1868 2.23958 70.9368 1.40625 69.3223C0.572917 67.7077 0.104167 66.1712 0 64.7129C0.15625 63.4629 0.494792 62.4993 1.01563 61.8223C1.48438 61.0931 2.05729 60.5202 2.73438 60.1035C3.41146 59.6348 4.11458 59.2962 4.84375 59.0879C5.57292 58.8275 6.27604 58.6191 6.95313 58.4629L8.125 58.8535C8.38542 59.1139 8.64583 59.3483 8.90625 59.5566C9.21875 59.765 9.50521 59.9733 9.76563 60.1816C10.2865 59.9733 10.599 59.6608 10.7031 59.2441C10.8594 58.8275 11.0156 58.4108 11.1719 57.9941C11.3281 57.4212 11.5104 56.8483 11.7188 56.2754C11.9271 55.7025 12.1875 55.1296 12.5 54.5566C12.4479 54.0879 12.474 53.6712 12.5781 53.3066C12.6823 52.9421 12.7865 52.6296 12.8906 52.3691C12.5781 52.1087 12.3438 51.9785 12.1875 51.9785C12.0833 51.9264 11.875 51.8483 11.5625 51.7441C11.4063 51.7441 11.25 51.7441 11.0938 51.7441C10.9375 51.6921 10.7552 51.64 10.5469 51.5879C9.76563 51.015 9.24479 50.5462 8.98438 50.1816C8.77604 49.765 8.54167 49.3483 8.28125 48.9316C8.02083 48.515 7.78646 48.1504 7.57813 47.8379C7.36979 47.5254 7.13542 47.2389 6.875 46.9785L5.9375 46.3535L6.40625 45.416C6.51042 45.3118 6.5625 45.1816 6.5625 45.0254C6.5625 44.8171 6.45833 44.5306 6.25 44.166C6.09375 43.4889 6.06771 42.9941 6.17188 42.6816L6.32813 41.7441C6.84896 41.0671 7.13542 40.6764 7.1875 40.5723L7.96875 39.791C9.16667 39.4785 10.3906 39.14 11.6406 38.7754C12.8906 38.3587 14.1146 37.9421 15.3125 37.5254C16.5104 37.1087 17.7344 36.6921 18.9844 36.2754C20.2344 35.8587 21.4844 35.4941 22.7344 35.1816C23.151 34.8171 23.5938 34.6087 24.0625 34.5566C24.5833 34.4525 25.0521 34.3743 25.4688 34.3223C25.8333 34.3223 26.1719 34.2962 26.4844 34.2441C26.7969 34.1921 27.0313 34.0618 27.1875 33.8535C28.0729 33.541 28.9323 33.2806 29.7656 33.0723C31.3281 32.6556 33.3854 32.1608 35.9375 31.5879C38.4896 31.015 41.3542 30.5983 44.5312 30.3379L46.1719 30.2598C46.4844 30.3118 46.7969 30.3379 47.1094 30.3379C47.4219 30.2858 47.7344 30.2598 48.0469 30.2598C50.7552 30.2598 52.5521 31.0931 53.4375 32.7598C53.9583 33.0202 54.4271 33.3587 54.8438 33.7754C55.2604 34.14 55.651 34.5046 56.0156 34.8691C56.276 35.1296 56.5104 35.3639 56.7188 35.5723C56.9271 35.7285 57.1094 35.8587 57.2656 35.9629L57.8906 36.5879C58.4635 37.8379 58.5677 39.0618 58.2031 40.2598C57.8906 40.8848 57.5521 41.2493 57.1875 41.3535C56.8229 41.4577 56.4583 41.5618 56.0938 41.666L55.0781 42.2129C54.401 42.1608 53.8802 42.1348 53.5156 42.1348C53.2031 42.1348 52.8385 42.1348 52.4219 42.1348C50.8594 42.1348 49.0365 42.2389 46.9531 42.4473C44.9219 42.6035 42.8385 42.8639 40.7031 43.2285C38.5677 43.541 36.4844 43.9577 34.4531 44.4785C32.4219 44.9473 30.651 45.4681 29.1406 46.041C28.724 46.3535 28.1771 46.64 27.5 46.9004C27.3438 46.9525 27.1094 47.0827 26.7969 47.291C26.849 47.7077 26.849 48.1243 26.7969 48.541C26.7448 48.9056 26.6667 49.2702 26.5625 49.6348C26.5104 49.8952 26.4583 50.1816 26.4063 50.4941C26.4063 50.7546 26.3802 51.041 26.3281 51.3535C25.2344 52.6556 24.7135 54.1921 24.7656 55.9629L24.375 56.7441C24.1667 56.9525 23.9844 57.265 23.8281 57.6816C23.724 58.0462 23.724 58.4368 23.8281 58.8535L24.1406 59.791C25.1823 59.6868 26.1979 59.5827 27.1875 59.4785C28.2292 59.3223 29.3229 59.166 30.4688 59.0098C31.9271 58.7493 33.3854 58.541 34.8438 58.3848C36.3542 58.1764 37.9167 58.0723 39.5312 58.0723H42.5781L41.875 58.7754L42.7344 58.8535L42.2656 60.1035C42.6302 60.2598 42.8906 60.39 43.0469 60.4941C43.2552 60.5462 43.4375 60.6243 43.5938 60.7285L44.1406 61.5098C44.401 61.666 44.6354 61.9264 44.8438 62.291C45.0521 62.6035 45.1823 63.0462 45.2344 63.6191L45 64.4004L41.3281 69.0879L40.8594 69.7129L40.0781 69.4785C39.0885 69.4264 38.151 69.5306 37.2656 69.791C36.849 69.8952 36.4063 70.0254 35.9375 70.1816C35.4688 70.2858 35 70.3379 34.5313 70.3379C33.2812 70.5462 32.2396 70.7285 31.4063 70.8848C30.5729 70.9889 29.7396 71.0931 28.9063 71.1973C27.7604 71.4056 26.6406 71.6139 25.5469 71.8223C24.5052 71.9785 23.5156 72.2389 22.5781 72.6035C22.0052 72.6556 21.6667 72.6816 21.5625 72.6816C21.4583 72.6296 21.3542 72.6035 21.25 72.6035C20.7292 72.6035 20.2083 72.6816 19.6875 72.8379C19.1667 72.9941 18.6719 73.1504 18.2031 73.3066C17.8906 73.5671 17.6823 73.8535 17.5781 74.166C17.474 74.4264 17.3698 74.7129 17.2656 75.0254C17.1615 75.39 17.0052 75.7546 16.7969 76.1191C16.6406 76.4316 16.4323 76.7702 16.1719 77.1348L16.25 78.541C15.7813 78.6452 15.5469 78.7233 15.5469 78.7754C15.5469 78.7754 15.5208 78.7754 15.4688 78.7754C15.4688 79.1921 15.3906 79.5827 15.2344 79.9473C15.1302 80.3118 15.026 80.6504 14.9219 80.9629C14.8177 81.1712 14.7396 81.3535 14.6875 81.5098C14.6354 81.666 14.6094 81.8223 14.6094 81.9785C15.1302 82.916 15.2604 83.9837 15 85.1816C14.7917 86.1712 14.401 87.0566 13.8281 87.8379C13.2552 88.5671 12.5781 89.14 11.7969 89.5566C10.9635 89.6608 10.3385 89.6348 9.92188 89.4785C9.55729 89.3223 9.16667 89.166 8.75 89.0098C8.48958 88.9056 8.22917 88.8275 7.96875 88.7754C7.70833 88.6712 7.44792 88.5931 7.1875 88.541L6.25 87.7598C6.09375 87.4473 5.91146 87.1608 5.70313 86.9004C5.49479 86.5879 5.28646 86.2754 5.07813 85.9629C4.81771 85.5983 4.55729 85.2337 4.29688 84.8691C4.03646 84.5046 3.80208 84.0879 3.59375 83.6191C3.22917 81.7962 3.15104 80.2858 3.35938 79.0879C3.61979 77.8379 3.95833 76.6139 4.375 75.416C4.47917 74.9993 4.58333 74.6087 4.6875 74.2441C4.79167 73.8796 4.89583 73.4889 5 73.0723ZM81.7383 71.3535C81.6992 71.8223 81.7383 72.2715 81.8555 72.7012C81.9727 73.1309 82.1094 73.5605 82.2656 73.9902C82.4609 74.3809 82.6367 74.791 82.793 75.2207C82.9492 75.6504 83.0664 76.0801 83.1445 76.5098C83.2227 77.0566 83.2227 77.6621 83.1445 78.3262C83.0664 78.9512 82.9297 79.5762 82.7344 80.2012C82.5391 80.7871 82.2852 81.334 81.9727 81.8418C81.6602 82.3105 81.2891 82.6621 80.8594 82.8965C80.3125 83.5996 79.6484 84.1465 78.8672 84.5371C78.0859 84.9277 77.3633 85.3965 76.6992 85.9434C76.2695 86.2168 75.7812 86.4121 75.2344 86.5293C74.7266 86.6465 74.1992 86.7637 73.6523 86.8809C73.2227 87.1152 72.7148 87.3691 72.1289 87.6426C71.543 87.877 70.9375 88.1113 70.3125 88.3457C69.6875 88.541 69.0625 88.6973 68.4375 88.8145C67.8125 88.8926 67.2656 88.9121 66.7969 88.873C65.625 89.3027 64.4727 89.5762 63.3398 89.6934C62.2461 89.8496 60.957 89.7715 59.4727 89.459C58.0664 89.6543 56.7578 89.5957 55.5469 89.2832C54.375 88.9707 53.3203 88.4824 52.3828 87.8184C51.4844 87.1152 50.6836 86.2949 49.9805 85.3574C49.3164 84.3809 48.7695 83.3652 48.3398 82.3105C48.0273 80.084 48.1055 78.0723 48.5742 76.2754C49.043 74.4395 49.707 72.7598 50.5664 71.2363C51.4648 69.6738 52.4805 68.248 53.6133 66.959C54.7461 65.6309 55.8398 64.3418 56.8945 63.0918C57.1289 63.1699 57.3047 63.1699 57.4219 63.0918C57.5781 62.9746 57.7148 62.8379 57.832 62.6816C57.9492 62.4863 58.0664 62.3105 58.1836 62.1543C58.3398 61.998 58.5156 61.9004 58.7109 61.8613C58.9844 61.2754 59.375 60.8457 59.8828 60.5723C60.4297 60.2598 60.8594 59.8301 61.1719 59.2832C61.5234 59.2051 61.8164 59.0879 62.0508 58.9316C62.2852 58.7754 62.5 58.5996 62.6953 58.4043C62.9297 58.209 63.1641 58.0332 63.3984 57.877C63.6328 57.6816 63.9062 57.5449 64.2188 57.4668V56.8223C64.9219 56.5098 65.4297 56.1582 65.7422 55.7676C66.0938 55.3379 66.5039 54.8301 66.9727 54.2441C67.3242 54.2051 67.5977 54.1855 67.793 54.1855C68.0273 54.1855 68.3594 54.1465 68.7891 54.0684C69.1016 53.5215 69.375 53.1113 69.6094 52.8379C69.8828 52.5645 70.2734 52.2715 70.7812 51.959C71.25 52.1934 71.7578 52.3496 72.3047 52.4277C72.8906 52.5059 73.3984 52.7598 73.8281 53.1895C73.8672 53.5801 73.9844 53.8926 74.1797 54.127C74.375 54.3223 74.5898 54.5176 74.8242 54.7129C75.0586 54.8691 75.2734 55.0449 75.4688 55.2402C75.7031 55.4355 75.8594 55.709 75.9375 56.0605C76.0938 56.0996 76.1914 56.0801 76.2305 56.002C76.3086 55.9238 76.4258 55.9043 76.582 55.9434C76.6992 56.4902 76.8359 56.8613 76.9922 57.0566C77.1484 57.2129 77.3047 57.5449 77.4609 58.0527C77.2656 58.4434 77.1094 58.8535 76.9922 59.2832C76.9141 59.6738 76.6797 59.9668 76.2891 60.1621C76.25 60.4355 76.3281 60.5918 76.5234 60.6309C76.7188 60.6309 76.8359 60.7285 76.875 60.9238C76.9141 61.2754 76.8555 61.5293 76.6992 61.6855C77.6367 63.209 78.4766 64.8301 79.2188 66.5488C79.9609 68.2285 80.8008 69.8301 81.7383 71.3535ZM74.4141 76.9199C74.5703 76.4902 74.7656 76.1387 75 75.8652C75.2734 75.5918 75.4297 75.1816 75.4688 74.6348C75.2734 74.3223 75.1562 74.0879 75.1172 73.9316C75.0781 73.7363 75.0586 73.4434 75.0586 73.0527C74.1992 71.8418 73.457 70.5527 72.832 69.1855C72.207 67.7793 71.5039 66.4707 70.7227 65.2598C70.6445 65.416 70.5078 65.5723 70.3125 65.7285C70.1172 65.8848 69.9023 65.8457 69.668 65.6113C69.5898 65.9238 69.4531 66.1582 69.2578 66.3145C69.0625 66.4316 68.8477 66.4902 68.6133 66.4902C68.3789 66.4512 68.125 66.3926 67.8516 66.3145C67.6172 66.1973 67.4023 66.0605 67.207 65.9043C66.0742 66.8027 64.9414 67.6816 63.8086 68.541C62.6758 69.4004 61.6602 70.3965 60.7617 71.5293C60.6055 71.6074 60.5078 71.6465 60.4688 71.6465C60.4297 71.6074 60.3125 71.627 60.1172 71.7051C59.8047 72.4473 59.4141 73.1309 58.9453 73.7559C58.5156 74.3418 58.0859 74.9473 57.6563 75.5723C57.2266 76.1973 56.8555 76.8613 56.543 77.5645C56.2305 78.2676 56.0547 79.0879 56.0156 80.0254C56.6797 80.5723 57.4609 80.9043 58.3594 81.0215C59.2578 81.1387 60.1758 81.1582 61.1133 81.0801C62.0898 81.002 63.0273 80.8848 63.9258 80.7285C64.8633 80.5332 65.7227 80.4355 66.5039 80.4355C68.1445 80.0449 69.5508 79.5371 70.7227 78.9121C71.8945 78.248 73.125 77.584 74.4141 76.9199ZM97.8906 80.8066C97.3177 82.89 96.7969 84.4785 96.3281 85.5723C95.9115 86.6139 95.2604 87.7077 94.375 88.8535C93.6979 88.7493 93.2292 88.8275 92.9688 89.0879C92.7083 89.3483 92.4219 89.5827 92.1094 89.791C91.6406 89.8952 91.3021 89.8952 91.0938 89.791C90.8854 89.6868 90.7031 89.5566 90.5469 89.4004C90.3906 89.2962 90.1823 89.166 89.9219 89.0098C89.7135 88.9056 89.375 88.8535 88.9062 88.8535C88.8021 88.4368 88.6719 88.0462 88.5156 87.6816C88.4115 87.3171 88.0729 87.1868 87.5 87.291C87.6042 86.8743 87.6302 86.5358 87.5781 86.2754C87.526 85.9629 87.4479 85.7025 87.3438 85.4941C87.2917 85.2337 87.2396 84.9993 87.1875 84.791C87.1354 84.5306 87.1615 84.2181 87.2656 83.8535C87.0052 83.8535 86.7969 83.6712 86.6406 83.3066C86.4844 82.9421 86.3021 82.5775 86.0938 82.2129C86.25 81.2754 86.4062 80.39 86.5625 79.5566C86.7188 78.7233 86.901 77.9421 87.1094 77.2129C87.3698 76.4837 87.5781 75.7546 87.7344 75.0254C87.8906 74.2962 87.8125 73.541 87.5 72.7598C87.7083 72.916 87.8646 72.89 87.9688 72.6816C88.0729 72.4212 88.151 72.1087 88.2031 71.7441C88.2552 71.3275 88.2812 70.9368 88.2812 70.5723C88.2812 70.1556 88.2552 69.8171 88.2031 69.5566C88.724 68.2025 89.1406 66.8223 89.4531 65.416C89.8177 63.9577 90.1302 62.5254 90.3906 61.1191C90.7031 59.7129 91.0156 58.3327 91.3281 56.9785C91.6406 55.6243 92.0573 54.3743 92.5781 53.2285C93.151 53.1243 93.776 53.2025 94.4531 53.4629C95.1823 53.6712 95.625 53.9577 95.7812 54.3223C97.1354 53.2806 98.3333 52.0306 99.375 50.5723C100.417 49.0618 101.484 47.6035 102.578 46.1973C103.672 44.791 104.87 43.541 106.172 42.4473C107.526 41.3535 109.219 40.7025 111.25 40.4941C112.292 41.2754 113.438 42.0827 114.688 42.916C115.99 43.6973 117.057 44.7389 117.891 46.041C118.307 46.2493 118.646 46.4837 118.906 46.7441C119.219 46.9525 119.583 47.1868 120 47.4473V48.3848C120.625 48.9577 121.12 49.6348 121.484 50.416C121.901 51.1452 122.266 51.9525 122.578 52.8379C122.891 53.6712 123.203 54.5306 123.516 55.416C123.828 56.2493 124.193 57.0566 124.609 57.8379C124.505 58.0983 124.453 58.3327 124.453 58.541C124.453 58.6973 124.479 58.8796 124.531 59.0879C124.635 59.2962 124.714 59.5046 124.766 59.7129C124.818 59.9212 124.818 60.2077 124.766 60.5723C124.609 62.8639 123.854 64.7129 122.5 66.1191C121.198 67.5254 119.609 68.6973 117.734 69.6348C115.859 70.5202 113.854 71.2754 111.719 71.9004C109.583 72.5254 107.656 73.2025 105.938 73.9316C105.938 74.14 106.016 74.2441 106.172 74.2441C106.38 74.2441 106.458 74.3743 106.406 74.6348C107.656 75.416 108.646 76.041 109.375 76.5098C110.104 76.9785 110.781 77.3691 111.406 77.6816C112.083 77.9941 112.786 78.2806 113.516 78.541C114.297 78.7493 115.365 79.0098 116.719 79.3223C118.073 79.6348 119.115 79.8952 119.844 80.1035C120.625 80.2598 121.328 80.416 121.953 80.5723C122.578 80.6764 123.203 80.7806 123.828 80.8848C124.505 80.9368 125.443 81.015 126.641 81.1191C127.109 81.5879 127.5 82.1608 127.812 82.8379C128.177 83.4629 128.411 84.1139 128.516 84.791C128.62 85.416 128.646 86.041 128.594 86.666C128.542 87.2389 128.359 87.7077 128.047 88.0723C128.099 88.2285 128.203 88.3066 128.359 88.3066C128.568 88.2546 128.776 88.2546 128.984 88.3066C128.672 88.515 128.411 88.7754 128.203 89.0879C127.995 89.4004 127.786 89.7129 127.578 90.0254C127.37 90.3379 127.135 90.5983 126.875 90.8066C126.615 91.0671 126.25 91.2233 125.781 91.2754C124.167 91.9004 122.135 91.9264 119.688 91.3535C117.24 90.8327 114.141 89.8431 110.391 88.3848C108.516 87.6556 106.979 87.0306 105.781 86.5098C104.635 85.9368 103.62 85.39 102.734 84.8691C101.901 84.2962 101.12 83.6973 100.391 83.0723C99.7135 82.4473 98.8802 81.6921 97.8906 80.8066ZM109.062 54.0098C108.49 54.8431 107.839 55.5983 107.109 56.2754C106.432 56.9525 105.755 57.6556 105.078 58.3848C104.453 59.0618 103.88 59.8431 103.359 60.7285C102.839 61.5618 102.474 62.5514 102.266 63.6973C104.089 63.4889 105.99 62.9941 107.969 62.2129C109.948 61.3796 111.823 60.5983 113.594 59.8691C113.385 58.2546 112.812 56.9525 111.875 55.9629C110.99 54.9733 110.052 54.3223 109.062 54.0098ZM182.656 87.5254C182.135 87.7858 181.641 88.0202 181.172 88.2285C180.755 88.4368 180.26 88.541 179.688 88.541C177.656 87.0306 176.589 84.4004 176.484 80.6504C176.432 76.9004 177.24 72.1348 178.906 66.3535C179.167 66.1973 179.297 65.8848 179.297 65.416L178.594 64.6348C178.385 64.6348 178.177 64.6608 177.969 64.7129C177.812 64.765 177.682 64.9473 177.578 65.2598C176.224 66.2493 174.74 67.291 173.125 68.3848C171.51 69.4264 169.818 70.416 168.047 71.3535C166.328 72.2389 164.557 72.9681 162.734 73.541C160.964 74.1139 159.219 74.4004 157.5 74.4004C153.125 74.4004 149.844 72.1868 147.656 67.7598L147.031 66.5879L146.406 67.6035C146.25 67.8118 146.016 68.2546 145.703 68.9316C145.391 69.5566 145.078 70.2858 144.766 71.1191C144.453 71.9525 144.167 72.8118 143.906 73.6973C143.698 74.5306 143.62 75.2598 143.672 75.8848C143.203 76.3535 142.708 76.9004 142.188 77.5254C141.667 78.1504 141.276 78.8535 141.016 79.6348C140.911 80.0514 140.964 80.4421 141.172 80.8066C141.068 81.2754 140.833 81.64 140.469 81.9004C140.26 82.1608 140.026 82.4212 139.766 82.6816C139.557 82.89 139.375 83.1243 139.219 83.3848C139.115 83.6452 139.036 83.9056 138.984 84.166C138.984 84.4264 138.958 84.6868 138.906 84.9473C138.906 85.3118 138.854 85.6504 138.75 85.9629C137.865 87.7858 137.161 88.9577 136.641 89.4785C136.12 90.0514 135.417 90.3379 134.531 90.3379C134.115 90.3379 133.438 90.2598 132.5 90.1035C131.823 89.3743 131.198 88.3848 130.625 87.1348C130.104 85.8327 129.688 84.4525 129.375 82.9941C129.115 81.5358 128.984 80.0775 128.984 78.6191C129.036 77.1087 129.297 75.8066 129.766 74.7129C129.766 74.6608 129.974 74.14 130.391 73.1504C130.807 72.1608 131.328 70.8848 131.953 69.3223C132.63 67.7598 133.385 66.041 134.219 64.166C135.052 62.2389 135.885 60.39 136.719 58.6191C137.552 56.7962 138.333 55.1296 139.062 53.6191C139.844 52.1087 140.495 50.9629 141.016 50.1816C141.432 49.5566 141.797 48.9837 142.109 48.4629C142.474 47.89 142.812 47.3431 143.125 46.8223C144.062 45.2077 144.948 43.8796 145.781 42.8379C146.667 41.7441 147.943 40.8848 149.609 40.2598C150.755 40.7285 151.589 41.2754 152.109 41.9004L152.266 42.7598C152.474 43.2806 152.786 43.541 153.203 43.541C153.776 43.6973 154.245 43.8535 154.609 44.0098C155.026 44.1139 155.469 44.2181 155.938 44.3223C156.302 44.7389 156.641 45.2337 156.953 45.8066C157.37 46.4316 157.76 47.0566 158.125 47.6816C158.542 48.2546 158.854 48.8535 159.062 49.4785C159.323 50.0514 159.453 50.6504 159.453 51.2754C159.505 51.9004 159.401 52.5514 159.141 53.2285L159.219 54.0098C159.479 54.4785 159.531 55.1296 159.375 55.9629C159.323 56.3275 159.297 56.7181 159.297 57.1348C159.297 57.4993 159.349 57.916 159.453 58.3848C160.391 59.1139 161.224 59.4785 161.953 59.4785C162.786 59.4785 163.542 59.2962 164.219 58.9316C164.948 58.515 165.625 58.0983 166.25 57.6816C166.667 57.3691 167.083 57.1087 167.5 56.9004C167.917 56.64 168.333 56.4837 168.75 56.4316C169.688 55.5462 170.521 54.765 171.25 54.0879C172.031 53.4108 172.839 52.7337 173.672 52.0566C175.234 50.8066 176.745 49.4525 178.203 47.9941C179.661 46.5358 180.833 44.7129 181.719 42.5254C182.24 42.2129 182.786 42.0566 183.359 42.0566C183.932 42.0566 184.531 42.1868 185.156 42.4473C185.781 42.7077 186.38 42.9681 186.953 43.2285C187.109 43.3327 187.24 43.4108 187.344 43.4629C187.5 43.515 187.63 43.5671 187.734 43.6191C187.734 44.14 187.943 44.5827 188.359 44.9473C188.568 45.1035 188.698 45.2077 188.75 45.2598C188.802 45.3118 188.88 45.3639 188.984 45.416C189.766 45.8327 190.26 46.2493 190.469 46.666C190.833 47.8639 191.484 48.7754 192.422 49.4004C192.318 49.9212 192.318 50.416 192.422 50.8848C192.578 51.3014 192.76 51.7441 192.969 52.2129C193.021 52.3691 193.073 52.5254 193.125 52.6816C193.177 52.8379 193.255 53.0202 193.359 53.2285L191.875 53.0723L192.109 54.5566C192.214 55.2858 192.135 56.0931 191.875 56.9785C191.667 57.8639 191.406 58.5671 191.094 59.0879C191.146 60.4421 191.172 61.5098 191.172 62.291C191.224 63.0202 191.198 63.7233 191.094 64.4004C190.99 65.0254 190.833 65.6243 190.625 66.1973C190.469 66.7702 190.234 67.3952 189.922 68.0723C190.13 71.4056 189.74 74.4525 188.75 77.2129C187.812 79.9212 186.823 82.4733 185.781 84.8691C185.677 85.1296 185.547 85.39 185.391 85.6504C185.286 85.9108 185.182 86.1712 185.078 86.4316C184.609 86.5879 184.193 86.7702 183.828 86.9785C183.464 87.1348 183.073 87.3171 182.656 87.5254ZM227.91 71.3535C227.871 71.8223 227.91 72.2715 228.027 72.7012C228.145 73.1309 228.281 73.5605 228.438 73.9902C228.633 74.3809 228.809 74.791 228.965 75.2207C229.121 75.6504 229.238 76.0801 229.316 76.5098C229.395 77.0566 229.395 77.6621 229.316 78.3262C229.238 78.9512 229.102 79.5762 228.906 80.2012C228.711 80.7871 228.457 81.334 228.145 81.8418C227.832 82.3105 227.461 82.6621 227.031 82.8965C226.484 83.5996 225.82 84.1465 225.039 84.5371C224.258 84.9277 223.535 85.3965 222.871 85.9434C222.441 86.2168 221.953 86.4121 221.406 86.5293C220.898 86.6465 220.371 86.7637 219.824 86.8809C219.395 87.1152 218.887 87.3691 218.301 87.6426C217.715 87.877 217.109 88.1113 216.484 88.3457C215.859 88.541 215.234 88.6973 214.609 88.8145C213.984 88.8926 213.438 88.9121 212.969 88.873C211.797 89.3027 210.645 89.5762 209.512 89.6934C208.418 89.8496 207.129 89.7715 205.645 89.459C204.238 89.6543 202.93 89.5957 201.719 89.2832C200.547 88.9707 199.492 88.4824 198.555 87.8184C197.656 87.1152 196.855 86.2949 196.152 85.3574C195.488 84.3809 194.941 83.3652 194.512 82.3105C194.199 80.084 194.277 78.0723 194.746 76.2754C195.215 74.4395 195.879 72.7598 196.738 71.2363C197.637 69.6738 198.652 68.248 199.785 66.959C200.918 65.6309 202.012 64.3418 203.066 63.0918C203.301 63.1699 203.477 63.1699 203.594 63.0918C203.75 62.9746 203.887 62.8379 204.004 62.6816C204.121 62.4863 204.238 62.3105 204.355 62.1543C204.512 61.998 204.688 61.9004 204.883 61.8613C205.156 61.2754 205.547 60.8457 206.055 60.5723C206.602 60.2598 207.031 59.8301 207.344 59.2832C207.695 59.2051 207.988 59.0879 208.223 58.9316C208.457 58.7754 208.672 58.5996 208.867 58.4043C209.102 58.209 209.336 58.0332 209.57 57.877C209.805 57.6816 210.078 57.5449 210.391 57.4668V56.8223C211.094 56.5098 211.602 56.1582 211.914 55.7676C212.266 55.3379 212.676 54.8301 213.145 54.2441C213.496 54.2051 213.77 54.1855 213.965 54.1855C214.199 54.1855 214.531 54.1465 214.961 54.0684C215.273 53.5215 215.547 53.1113 215.781 52.8379C216.055 52.5645 216.445 52.2715 216.953 51.959C217.422 52.1934 217.93 52.3496 218.477 52.4277C219.062 52.5059 219.57 52.7598 220 53.1895C220.039 53.5801 220.156 53.8926 220.352 54.127C220.547 54.3223 220.762 54.5176 220.996 54.7129C221.23 54.8691 221.445 55.0449 221.641 55.2402C221.875 55.4355 222.031 55.709 222.109 56.0605C222.266 56.0996 222.363 56.0801 222.402 56.002C222.48 55.9238 222.598 55.9043 222.754 55.9434C222.871 56.4902 223.008 56.8613 223.164 57.0566C223.32 57.2129 223.477 57.5449 223.633 58.0527C223.438 58.4434 223.281 58.8535 223.164 59.2832C223.086 59.6738 222.852 59.9668 222.461 60.1621C222.422 60.4355 222.5 60.5918 222.695 60.6309C222.891 60.6309 223.008 60.7285 223.047 60.9238C223.086 61.2754 223.027 61.5293 222.871 61.6855C223.809 63.209 224.648 64.8301 225.391 66.5488C226.133 68.2285 226.973 69.8301 227.91 71.3535ZM220.586 76.9199C220.742 76.4902 220.938 76.1387 221.172 75.8652C221.445 75.5918 221.602 75.1816 221.641 74.6348C221.445 74.3223 221.328 74.0879 221.289 73.9316C221.25 73.7363 221.23 73.4434 221.23 73.0527C220.371 71.8418 219.629 70.5527 219.004 69.1855C218.379 67.7793 217.676 66.4707 216.895 65.2598C216.816 65.416 216.68 65.5723 216.484 65.7285C216.289 65.8848 216.074 65.8457 215.84 65.6113C215.762 65.9238 215.625 66.1582 215.43 66.3145C215.234 66.4316 215.02 66.4902 214.785 66.4902C214.551 66.4512 214.297 66.3926 214.023 66.3145C213.789 66.1973 213.574 66.0605 213.379 65.9043C212.246 66.8027 211.113 67.6816 209.98 68.541C208.848 69.4004 207.832 70.3965 206.934 71.5293C206.777 71.6074 206.68 71.6465 206.641 71.6465C206.602 71.6074 206.484 71.627 206.289 71.7051C205.977 72.4473 205.586 73.1309 205.117 73.7559C204.688 74.3418 204.258 74.9473 203.828 75.5723C203.398 76.1973 203.027 76.8613 202.715 77.5645C202.402 78.2676 202.227 79.0879 202.188 80.0254C202.852 80.5723 203.633 80.9043 204.531 81.0215C205.43 81.1387 206.348 81.1582 207.285 81.0801C208.262 81.002 209.199 80.8848 210.098 80.7285C211.035 80.5332 211.895 80.4355 212.676 80.4355C214.316 80.0449 215.723 79.5371 216.895 78.9121C218.066 78.248 219.297 77.584 220.586 76.9199ZM232.5 53.6973C232.656 52.916 232.76 52.291 232.812 51.8223C232.865 51.3014 232.682 50.7546 232.266 50.1816C232.474 49.3483 232.63 48.6973 232.734 48.2285C232.891 47.7598 232.917 47.1087 232.812 46.2754C233.281 44.9212 233.984 43.7754 234.922 42.8379C235.911 41.9004 236.979 41.1191 238.125 40.4941C239.271 39.8171 240.469 39.2702 241.719 38.8535C242.969 38.3848 244.141 37.9941 245.234 37.6816C245.234 37.4733 245.13 37.3691 244.922 37.3691C244.714 37.3691 244.661 37.2389 244.766 36.9785C247.578 36.4577 250.391 35.7025 253.203 34.7129C256.068 33.7233 258.984 32.8379 261.953 32.0566C264.922 31.2754 267.969 30.8066 271.094 30.6504C274.219 30.4421 277.5 30.8327 280.938 31.8223C281.146 32.4473 281.432 33.0462 281.797 33.6191C282.161 34.1921 282.526 34.765 282.891 35.3379C283.307 35.8587 283.672 36.3796 283.984 36.9004C284.297 37.4212 284.479 37.9681 284.531 38.541C285.156 39.1139 285.651 39.7389 286.016 40.416C286.432 41.041 286.51 41.9004 286.25 42.9941C285.677 43.4108 285.078 43.8275 284.453 44.2441C283.828 44.6608 283.177 45.0514 282.5 45.416C280.156 44.8431 277.812 44.6348 275.469 44.791C273.125 44.9473 271.016 45.1296 269.141 45.3379C268.568 44.7129 267.891 44.4264 267.109 44.4785C266.328 44.4785 265.495 44.6087 264.609 44.8691C263.776 45.0775 262.943 45.3118 262.109 45.5723C261.276 45.7806 260.495 45.8327 259.766 45.7285C259.193 46.2493 258.438 46.6139 257.5 46.8223C256.562 46.9785 255.573 47.1087 254.531 47.2129C254.479 47.4733 254.531 47.6556 254.688 47.7598C254.844 47.8639 254.87 48.0723 254.766 48.3848C255.13 48.8535 255.625 49.1921 256.25 49.4004C256.875 49.5566 257.5 49.7129 258.125 49.8691C258.802 50.0254 259.401 50.2598 259.922 50.5723C260.443 50.8327 260.781 51.2754 260.938 51.9004C261.875 51.9525 262.682 52.2129 263.359 52.6816C264.036 53.0983 264.609 53.6191 265.078 54.2441C265.547 54.8691 265.885 55.5462 266.094 56.2754C266.302 56.9525 266.38 57.5775 266.328 58.1504C266.536 58.6712 266.745 58.8796 266.953 58.7754C267.214 58.6712 267.5 58.8014 267.812 59.166C268.021 59.9473 268.49 60.7806 269.219 61.666C270 62.4993 270.599 63.4108 271.016 64.4004C271.12 65.9629 271.198 67.3691 271.25 68.6191C271.354 69.8691 271.146 71.0931 270.625 72.291C269.74 74.5827 268.464 76.64 266.797 78.4629C265.13 80.2858 263.229 81.9004 261.094 83.3066C259.01 84.6608 256.797 85.8587 254.453 86.9004C252.109 87.89 249.792 88.7233 247.5 89.4004C247.292 89.3483 247.031 89.3483 246.719 89.4004C246.458 89.4525 246.406 89.2962 246.562 88.9316C246.094 89.3483 245.547 89.6087 244.922 89.7129C244.349 89.8171 243.698 89.8431 242.969 89.791C242.292 89.791 241.589 89.765 240.859 89.7129C240.182 89.6608 239.505 89.6868 238.828 89.791C238.411 89.3743 238.021 88.9577 237.656 88.541C237.344 88.1243 237.083 87.6296 236.875 87.0566C236.615 87.0046 236.484 86.8483 236.484 86.5879C236.536 86.2754 236.432 86.1191 236.172 86.1191C236.172 85.9108 236.198 85.7546 236.25 85.6504C236.302 85.5462 236.354 85.4421 236.406 85.3379C236.615 85.1816 236.693 85.0775 236.641 85.0254C236.641 84.9212 236.562 84.8431 236.406 84.791C236.302 84.6868 236.172 84.5827 236.016 84.4785C235.911 84.3743 235.885 84.2441 235.938 84.0879C236.198 83.6191 236.276 83.0723 236.172 82.4473C236.12 81.7702 236.068 81.0931 236.016 80.416C235.964 79.7389 236.016 79.1139 236.172 78.541C236.328 77.916 236.771 77.3952 237.5 76.9785C239.635 77.1868 241.641 77.0827 243.516 76.666C245.443 76.2493 247.24 75.6764 248.906 74.9473C250.625 74.2181 252.24 73.4368 253.75 72.6035C255.312 71.7181 256.823 70.9108 258.281 70.1816C258.438 69.6608 258.672 69.2181 258.984 68.8535C259.349 68.4889 259.714 68.1504 260.078 67.8379C260.443 67.4733 260.781 67.1087 261.094 66.7441C261.406 66.3275 261.641 65.8327 261.797 65.2598C261.849 65.0514 261.849 64.8952 261.797 64.791C261.745 64.6868 261.667 64.6087 261.562 64.5566C261.458 64.4525 261.354 64.3483 261.25 64.2441C261.146 64.14 261.094 63.9837 261.094 63.7754C260.938 63.7233 260.781 63.6712 260.625 63.6191C260.521 63.5671 260.417 63.541 260.312 63.541C258.958 62.8639 257.526 62.291 256.016 61.8223C254.505 61.3535 253.229 60.8327 252.188 60.2598C251.562 60.6764 250.938 60.7806 250.312 60.5723C249.688 60.3639 248.932 60.1556 248.047 59.9473C245.859 59.8431 243.776 59.6348 241.797 59.3223C239.87 59.0098 237.995 58.4629 236.172 57.6816C236.068 57.3691 235.938 57.1087 235.781 56.9004C235.625 56.64 235.26 56.5618 234.688 56.666C234.323 56.1452 233.932 55.6764 233.516 55.2598C233.151 54.791 232.812 54.2702 232.5 53.6973ZM321.562 65.4941C321.51 66.1191 321.562 66.7181 321.719 67.291C321.875 67.8639 322.057 68.4368 322.266 69.0098C322.526 69.5306 322.76 70.0775 322.969 70.6504C323.177 71.2233 323.333 71.7962 323.438 72.3691C323.542 73.0983 323.542 73.9056 323.438 74.791C323.333 75.6243 323.151 76.4577 322.891 77.291C322.63 78.0723 322.292 78.8014 321.875 79.4785C321.458 80.1035 320.964 80.5723 320.391 80.8848C319.661 81.8223 318.776 82.5514 317.734 83.0723C316.693 83.5931 315.729 84.2181 314.844 84.9473C314.271 85.3118 313.62 85.5723 312.891 85.7285C312.214 85.8848 311.51 86.041 310.781 86.1973C310.208 86.5098 309.531 86.8483 308.75 87.2129C307.969 87.5254 307.161 87.8379 306.328 88.1504C305.495 88.4108 304.661 88.6191 303.828 88.7754C302.995 88.8796 302.266 88.9056 301.641 88.8535C300.078 89.4264 298.542 89.791 297.031 89.9473C295.573 90.1556 293.854 90.0514 291.875 89.6348C290 89.8952 288.255 89.8171 286.641 89.4004C285.078 88.9837 283.672 88.3327 282.422 87.4473C281.224 86.5098 280.156 85.416 279.219 84.166C278.333 82.8639 277.604 81.5098 277.031 80.1035C276.615 77.1348 276.719 74.4525 277.344 72.0566C277.969 69.6087 278.854 67.3691 280 65.3379C281.198 63.2546 282.552 61.3535 284.062 59.6348C285.573 57.8639 287.031 56.1452 288.438 54.4785C288.75 54.5827 288.984 54.5827 289.141 54.4785C289.349 54.3223 289.531 54.14 289.688 53.9316C289.844 53.6712 290 53.4368 290.156 53.2285C290.365 53.0202 290.599 52.89 290.859 52.8379C291.224 52.0566 291.745 51.4837 292.422 51.1191C293.151 50.7025 293.724 50.1296 294.141 49.4004C294.609 49.2962 295 49.14 295.312 48.9316C295.625 48.7233 295.911 48.4889 296.172 48.2285C296.484 47.9681 296.797 47.7337 297.109 47.5254C297.422 47.265 297.786 47.0827 298.203 46.9785V46.1191C299.141 45.7025 299.818 45.2337 300.234 44.7129C300.703 44.14 301.25 43.4629 301.875 42.6816C302.344 42.6296 302.708 42.6035 302.969 42.6035C303.281 42.6035 303.724 42.5514 304.297 42.4473C304.714 41.7181 305.078 41.1712 305.391 40.8066C305.755 40.4421 306.276 40.0514 306.953 39.6348C307.578 39.9473 308.255 40.1556 308.984 40.2598C309.766 40.3639 310.443 40.7025 311.016 41.2754C311.068 41.7962 311.224 42.2129 311.484 42.5254C311.745 42.7858 312.031 43.0462 312.344 43.3066C312.656 43.515 312.943 43.7493 313.203 44.0098C313.516 44.2702 313.724 44.6348 313.828 45.1035C314.036 45.1556 314.167 45.1296 314.219 45.0254C314.323 44.9212 314.479 44.8952 314.688 44.9473C314.844 45.6764 315.026 46.1712 315.234 46.4316C315.443 46.64 315.651 47.0827 315.859 47.7598C315.599 48.2806 315.391 48.8275 315.234 49.4004C315.13 49.9212 314.818 50.3118 314.297 50.5723C314.245 50.9368 314.349 51.1452 314.609 51.1973C314.87 51.1973 315.026 51.3275 315.078 51.5879C315.13 52.0566 315.052 52.3952 314.844 52.6035C316.094 54.6348 317.214 56.7962 318.203 59.0879C319.193 61.3275 320.312 63.4629 321.562 65.4941ZM311.797 72.916C312.005 72.3431 312.266 71.8743 312.578 71.5098C312.943 71.1452 313.151 70.5983 313.203 69.8691C312.943 69.4525 312.786 69.14 312.734 68.9316C312.682 68.6712 312.656 68.2806 312.656 67.7598C311.51 66.1452 310.521 64.4264 309.688 62.6035C308.854 60.7285 307.917 58.9837 306.875 57.3691C306.771 57.5775 306.589 57.7858 306.328 57.9941C306.068 58.2025 305.781 58.1504 305.469 57.8379C305.365 58.2546 305.182 58.5671 304.922 58.7754C304.661 58.9316 304.375 59.0098 304.062 59.0098C303.75 58.9577 303.411 58.8796 303.047 58.7754C302.734 58.6191 302.448 58.4368 302.188 58.2285C300.677 59.4264 299.167 60.5983 297.656 61.7441C296.146 62.89 294.792 64.2181 293.594 65.7285C293.385 65.8327 293.255 65.8848 293.203 65.8848C293.151 65.8327 292.995 65.8587 292.734 65.9629C292.318 66.9525 291.797 67.8639 291.172 68.6973C290.599 69.4785 290.026 70.2858 289.453 71.1191C288.88 71.9525 288.385 72.8379 287.969 73.7754C287.552 74.7129 287.318 75.8066 287.266 77.0566C288.151 77.7858 289.193 78.2285 290.391 78.3848C291.589 78.541 292.812 78.5671 294.062 78.4629C295.365 78.3587 296.615 78.2025 297.812 77.9941C299.062 77.7337 300.208 77.6035 301.25 77.6035C303.438 77.0827 305.312 76.4056 306.875 75.5723C308.438 74.6868 310.078 73.8014 311.797 72.916ZM370.859 44.4785C370.964 45.6243 371.146 46.6139 371.406 47.4473C371.667 48.2806 371.953 49.0879 372.266 49.8691C372.526 50.5983 372.76 51.3275 372.969 52.0566C373.229 52.7337 373.411 53.5671 373.516 54.5566C373.099 55.9108 372.786 57.1608 372.578 58.3066C372.422 59.4525 372.24 60.6504 372.031 61.9004C371.198 63.7233 370.391 65.3379 369.609 66.7441C368.828 68.1504 368.203 69.3743 367.734 70.416C367.474 70.6764 367.24 70.9889 367.031 71.3535C366.875 71.666 366.693 72.0046 366.484 72.3691C366.38 72.5254 366.25 72.7598 366.094 73.0723C365.938 73.3848 365.807 73.5931 365.703 73.6973L364.141 73.1504L363.828 75.1035L362.734 75.416L361.953 76.3535C360.964 78.0723 359.922 79.5306 358.828 80.7285C357.734 81.8743 356.484 82.916 355.078 83.8535C353.724 84.7389 352.161 85.5723 350.391 86.3535C348.672 87.1348 346.719 87.9941 344.531 88.9316C343.646 88.8275 342.865 88.7754 342.188 88.7754C341.562 88.7233 340.964 88.6712 340.391 88.6191C339.401 88.6191 338.177 88.541 336.719 88.3848C336.562 87.9681 336.328 87.6816 336.016 87.5254C335.703 87.3691 335.417 87.291 335.156 87.291C334.271 86.8743 333.594 86.2754 333.125 85.4941C332.708 84.6608 332.292 83.7754 331.875 82.8379C331.615 82.265 331.354 81.7441 331.094 81.2754C330.833 80.7546 330.547 80.2337 330.234 79.7129L331.562 79.3223L329.844 77.4473C329.74 77.291 329.609 77.1608 329.453 77.0566C329.297 76.9004 329.167 76.7441 329.062 76.5879L328.984 75.3379C328.828 71.7441 328.75 68.4629 328.75 65.4941C328.802 62.4733 329.219 59.791 330 57.4473V56.5879C330.156 55.4421 330.312 54.5046 330.469 53.7754C330.625 52.9941 330.755 52.265 330.859 51.5879C331.016 50.4421 331.25 49.3743 331.562 48.3848C332.292 48.2285 332.839 47.9421 333.203 47.5254C333.568 47.0566 333.88 46.64 334.141 46.2754C334.87 46.2233 335.365 46.3275 335.625 46.5879C335.885 46.8483 336.146 47.265 336.406 47.8379C336.667 48.3066 336.979 48.8275 337.344 49.4004C337.76 49.9733 338.359 50.416 339.141 50.7285C339.245 51.1452 339.375 51.5879 339.531 52.0566C339.74 52.4733 339.948 52.9421 340.156 53.4629C340.573 54.3483 340.938 55.2858 341.25 56.2754C341.615 57.2129 341.823 58.1243 341.875 59.0098C341.354 59.9993 340.938 61.1452 340.625 62.4473C340.365 63.7493 340.182 65.0775 340.078 66.4316C340.026 67.7337 340.052 69.0098 340.156 70.2598C340.312 71.4577 340.547 72.4733 340.859 73.3066L341.328 74.3223L342.656 74.166C344.219 73.7493 345.625 73.3066 346.875 72.8379C348.177 72.3171 349.375 71.7181 350.469 71.041C351.562 70.3639 352.604 69.5827 353.594 68.6973C354.583 67.7598 355.625 66.6921 356.719 65.4941C357.812 64.2962 358.75 62.9421 359.531 61.4316C360.365 59.8691 361.042 58.2546 361.562 56.5879C362.135 54.9212 362.552 53.2806 362.812 51.666C363.125 49.9993 363.333 48.4368 363.438 46.9785C364.323 46.666 364.766 46.041 364.766 45.1035L364.609 44.2441C364.401 43.9316 364.401 43.5671 364.609 43.1504C364.922 42.1608 365.651 41.4056 366.797 40.8848C367.63 41.4056 368.359 41.9785 368.984 42.6035C369.661 43.2285 370.286 43.8535 370.859 44.4785ZM392.188 88.0723C390.729 88.541 389.141 89.0098 387.422 89.4785C385.703 89.9473 383.984 90.1816 382.266 90.1816C379.661 90.1816 377.604 89.5306 376.094 88.2285C375.833 87.6556 375.599 87.265 375.391 87.0566C375.234 86.8483 375.078 86.64 374.922 86.4316C374.818 86.1712 374.74 85.8327 374.688 85.416C374.062 84.6868 373.568 83.8535 373.203 82.916C372.839 81.9264 372.578 80.9368 372.422 79.9473C372.318 78.9056 372.292 77.8639 372.344 76.8223C372.448 75.7806 372.63 74.791 372.891 73.8535C372.995 73.6452 373.047 73.4368 373.047 73.2285C373.099 73.0202 373.151 72.7858 373.203 72.5254C373.411 71.6921 373.62 70.8848 373.828 70.1035C374.089 69.3223 374.427 68.6452 374.844 68.0723C374.635 67.6035 374.635 67.0827 374.844 66.5098C375.052 65.9368 375.286 65.416 375.547 64.9473C376.276 62.9681 376.875 61.3014 377.344 59.9473C377.865 58.541 378.385 57.1608 378.906 55.8066C379.792 53.4629 380.625 51.1452 381.406 48.8535C382.188 46.5618 382.891 44.0879 383.516 41.4316C383.932 41.1712 384.245 40.9889 384.453 40.8848C384.766 40.7806 385.026 40.7025 385.234 40.6504C386.172 41.1191 387.266 41.5879 388.516 42.0566C389.766 42.4733 390.807 42.6816 391.641 42.6816C392.057 42.9421 392.318 43.1504 392.422 43.3066C392.526 43.4108 392.63 43.515 392.734 43.6191C393.307 44.2962 393.802 44.9993 394.219 45.7285C394.635 46.4056 394.766 47.3171 394.609 48.4629C394.297 48.9316 394.062 49.166 393.906 49.166C393.646 50.2077 393.359 51.0931 393.047 51.8223C392.786 52.5514 392.5 53.2806 392.188 54.0098C391.823 54.791 391.484 55.5723 391.172 56.3535C390.859 57.1348 390.599 58.0983 390.391 59.2441C390.182 59.5046 390.026 59.7389 389.922 59.9473C389.87 60.1556 389.792 60.39 389.688 60.6504C389.583 60.9108 389.453 61.1973 389.297 61.5098C389.193 61.7702 389.01 62.0046 388.75 62.2129C388.594 63.5671 388.333 64.6608 387.969 65.4941C387.656 66.3275 387.318 67.1608 386.953 67.9941C386.328 69.5046 385.755 71.015 385.234 72.5254C384.766 74.0358 384.479 75.7546 384.375 77.6816C384.635 77.5775 384.87 77.5254 385.078 77.5254C385.339 77.5254 385.573 77.5254 385.781 77.5254C386.25 77.5254 386.797 77.6035 387.422 77.7598C388.984 76.9264 390.677 76.4316 392.5 76.2754C394.375 76.1191 396.224 76.015 398.047 75.9629C398.776 75.9629 399.505 75.9629 400.234 75.9629C400.964 75.9629 401.641 75.9108 402.266 75.8066C402.734 76.0671 403.021 76.2233 403.125 76.2754C403.281 76.2754 403.49 76.2754 403.75 76.2754C404.115 76.2754 404.427 76.3014 404.688 76.3535C405.312 76.9264 405.911 77.3431 406.484 77.6035C407.057 77.8639 407.656 78.0983 408.281 78.3066C408.854 78.515 409.401 78.7493 409.922 79.0098C410.495 79.2181 411.042 79.5306 411.562 79.9473L412.109 83.3066C412.474 83.7754 412.63 84.0879 412.578 84.2441C412.578 84.6608 412.474 84.9733 412.266 85.1816L412.422 86.041C411.641 86.1973 411.094 86.3796 410.781 86.5879C410.521 86.7962 410.26 87.0306 410 87.291C409.583 87.3431 409.271 87.3691 409.062 87.3691C408.906 87.3691 408.75 87.3691 408.594 87.3691C407.865 87.3691 406.979 87.4993 405.938 87.7598C404.531 87.291 403.073 87.0566 401.562 87.0566C400.99 87.0566 400.391 87.0827 399.766 87.1348C399.141 87.1868 398.516 87.2389 397.891 87.291C397.266 87.3952 396.615 87.4733 395.938 87.5254C395.312 87.5775 394.661 87.6035 393.984 87.6035L392.188 88.0723Z" fill="white"/>
<path d="M312.391 62.3594C312.495 62.776 312.573 63.1667 312.625 63.5312C312.677 63.8958 312.755 64.2865 312.859 64.7031C312.651 65.224 312.469 65.7448 312.312 66.2656C312.156 66.7344 312 67.2031 311.844 67.6719C311.688 68.0365 311.583 68.2708 311.531 68.375C311.479 68.4792 311.453 68.5573 311.453 68.6094C311.453 68.6615 311.453 68.7396 311.453 68.8438C311.505 68.8958 311.531 69.1042 311.531 69.4688L311.219 70.4062C310.958 70.7708 310.646 71.0573 310.281 71.2656C309.917 71.474 309.552 71.6562 309.188 71.8125C309.083 71.9167 308.927 71.9948 308.719 72.0469C308.51 72.151 308.354 72.2552 308.25 72.3594L308.016 73.2969L307 73.4531C306.115 73.6615 305.359 73.7656 304.734 73.7656H303.797C303.172 73.1927 302.677 72.75 302.312 72.4375C301.948 72.125 301.557 71.8385 301.141 71.5781C300.62 70.849 300.333 70.3281 300.281 70.0156C300.229 69.651 300.151 69.3125 300.047 69C299.943 68.3229 299.812 67.8802 299.656 67.6719L298.562 66.5781L299.5 65.875L298.641 64.3906C299.266 63.9219 299.734 63.5833 300.047 63.375C300.359 63.1667 300.62 62.9583 300.828 62.75C301.036 62.4896 301.271 62.1771 301.531 61.8125C301.792 61.4479 302.208 60.849 302.781 60.0156L303.484 59L304.5 59.5469C304.708 59.7031 305.151 59.8594 305.828 60.0156C306.557 60.1198 307.182 60.224 307.703 60.3281C308.589 60.5885 309.422 60.7969 310.203 60.9531C310.984 61.0573 311.609 61.3177 312.078 61.7344L312.391 62.3594Z" fill="white"/>
</svg>
