<svg width="160" height="27" viewBox="0 0 160 27" fill="none" xmlns="http://www.w3.org/2000/svg">
<g clip-path="url(#clip0_2944_6535)">
<path d="M3.25873 17.8899C2.66772 17.5549 2.2146 17.0821 1.89939 16.4714C1.58419 15.8607 1.40688 15.2795 1.36748 14.7279C1.42658 14.2551 1.55463 13.8906 1.75164 13.6345C1.92895 13.3587 2.14565 13.142 2.40176 12.9844C2.65787 12.8071 2.92382 12.6791 3.19963 12.6003C3.47544 12.5018 3.7414 12.423 3.9975 12.3638L4.44077 12.5116C4.53927 12.6101 4.63777 12.6988 4.73627 12.7776C4.85448 12.8564 4.96283 12.9352 5.06133 13.014C5.25834 12.9352 5.37654 12.817 5.41594 12.6594C5.47504 12.5018 5.53415 12.3441 5.59325 12.1865C5.65235 11.9698 5.7213 11.7531 5.8001 11.5364C5.87891 11.3197 5.97741 11.103 6.09561 10.8863C6.07591 10.709 6.08576 10.5514 6.12516 10.4135C6.16456 10.2756 6.20397 10.1574 6.24337 10.0589C6.12516 9.96038 6.03651 9.91113 5.97741 9.91113C5.93801 9.89143 5.85921 9.86188 5.741 9.82248C5.6819 9.82248 5.6228 9.82248 5.5637 9.82248C5.5046 9.80278 5.43564 9.78308 5.35684 9.76338C5.06133 9.54667 4.86433 9.36937 4.76582 9.23146C4.68702 9.07386 4.59837 8.91625 4.49987 8.75865C4.40136 8.60104 4.31271 8.46314 4.23391 8.34494C4.15511 8.22673 4.06646 8.11838 3.96795 8.01988L3.61334 7.78347L3.79065 7.42886C3.83005 7.38946 3.84975 7.34021 3.84975 7.28111C3.84975 7.2023 3.81035 7.09395 3.73155 6.95605C3.67244 6.69994 3.66259 6.51278 3.70199 6.39458L3.7611 6.03997C3.9581 5.78386 4.06646 5.63611 4.08616 5.59671L4.38166 5.3012C4.83478 5.183 5.29774 5.05494 5.77055 4.91704C6.24337 4.75944 6.70633 4.60183 7.15944 4.44423C7.61255 4.28662 8.07552 4.12902 8.54833 3.97141C9.02114 3.81381 9.49396 3.67591 9.96677 3.5577C10.1244 3.4198 10.2918 3.341 10.4691 3.3213C10.6661 3.28189 10.8434 3.25234 11.001 3.23264C11.139 3.23264 11.267 3.22279 11.3852 3.20309C11.5034 3.18339 11.5921 3.13414 11.6512 3.05534C11.9861 2.93713 12.3111 2.83863 12.6263 2.75983C13.2174 2.60223 13.9955 2.41507 14.9609 2.19836C15.9262 1.98166 17.0097 1.82405 18.2115 1.72555L18.832 1.696C18.9502 1.7157 19.0684 1.72555 19.1866 1.72555C19.3048 1.70585 19.423 1.696 19.5412 1.696C20.5657 1.696 21.2453 2.01121 21.5802 2.64163C21.7773 2.74013 21.9546 2.86818 22.1122 3.02579C22.2698 3.16369 22.4175 3.3016 22.5554 3.4395C22.6539 3.538 22.7426 3.62665 22.8214 3.70546C22.9002 3.76456 22.9691 3.81381 23.0282 3.85321L23.2646 4.08962C23.4813 4.56243 23.5208 5.02539 23.3828 5.47851C23.2646 5.71491 23.1366 5.85282 22.9987 5.89222C22.8608 5.93162 22.7229 5.97102 22.585 6.01042L22.2008 6.21728C21.9447 6.19758 21.7477 6.18773 21.6098 6.18773C21.4916 6.18773 21.3537 6.18773 21.1961 6.18773C20.6051 6.18773 19.9155 6.22713 19.1275 6.30593C18.3592 6.36503 17.5712 6.46353 16.7635 6.60144C15.9557 6.71964 15.1677 6.87725 14.3994 7.07425C13.6311 7.25156 12.9613 7.44856 12.3899 7.66527C12.2323 7.78347 12.0255 7.89182 11.7694 7.99033C11.7103 8.01003 11.6216 8.05928 11.5034 8.13808C11.5231 8.29568 11.5231 8.45329 11.5034 8.61089C11.4837 8.7488 11.4542 8.8867 11.4148 9.02461C11.3951 9.12311 11.3754 9.23146 11.3557 9.34966C11.3557 9.44817 11.3458 9.55652 11.3261 9.67472C10.9124 10.1672 10.7154 10.7484 10.7351 11.4182L10.5873 11.7137C10.5085 11.7925 10.4396 11.9107 10.3805 12.0683C10.3411 12.2062 10.3411 12.354 10.3805 12.5116L10.4987 12.8662C10.8927 12.8268 11.2769 12.7874 11.6512 12.748C12.0452 12.6889 12.4589 12.6298 12.8923 12.5707C13.4439 12.4722 13.9955 12.3934 14.5471 12.3343C15.1185 12.2555 15.7095 12.2161 16.3202 12.2161H17.4727L17.2067 12.4821L17.5318 12.5116L17.3545 12.9844C17.4924 13.0435 17.5909 13.0928 17.65 13.1322C17.7288 13.1519 17.7977 13.1814 17.8568 13.2208L18.0637 13.5163C18.1622 13.5754 18.2509 13.6739 18.3297 13.8118C18.4085 13.93 18.4577 14.0975 18.4774 14.3142L18.3888 14.6097L16.9999 16.3828L16.8226 16.6192L16.5271 16.5305C16.1527 16.5108 15.7981 16.5502 15.4632 16.6487C15.3056 16.6881 15.1382 16.7374 14.9609 16.7965C14.7836 16.8359 14.6063 16.8556 14.4289 16.8556C13.9561 16.9344 13.5621 17.0033 13.2469 17.0624C12.9317 17.1018 12.6165 17.1412 12.3013 17.1806C11.8679 17.2594 11.4443 17.3382 11.0306 17.417C10.6366 17.4761 10.2623 17.5746 9.90767 17.7125C9.69096 17.7322 9.56291 17.7421 9.52351 17.7421C9.48411 17.7224 9.44471 17.7125 9.4053 17.7125C9.2083 17.7125 9.01129 17.7421 8.81429 17.8012C8.61728 17.8603 8.43013 17.9194 8.25282 17.9785C8.13462 18.077 8.05582 18.1854 8.01642 18.3036C7.97701 18.4021 7.93761 18.5104 7.89821 18.6286C7.85881 18.7665 7.79971 18.9044 7.72091 19.0423C7.66181 19.1605 7.583 19.2886 7.4845 19.4265L7.51405 19.9584C7.33675 19.9978 7.24809 20.0274 7.24809 20.0471C7.24809 20.0471 7.23824 20.0471 7.21854 20.0471C7.21854 20.2047 7.18899 20.3524 7.12989 20.4903C7.09049 20.6282 7.05109 20.7563 7.01169 20.8745C6.97229 20.9533 6.94274 21.0222 6.92304 21.0813C6.90333 21.1404 6.89348 21.1995 6.89348 21.2586C7.09049 21.6133 7.13974 22.0171 7.04124 22.4702C6.96244 22.8445 6.81468 23.1795 6.59798 23.475C6.38127 23.7508 6.12516 23.9675 5.82965 24.1251C5.51445 24.1645 5.27804 24.1546 5.12043 24.0955C4.98253 24.0364 4.83478 23.9773 4.67717 23.9182C4.57867 23.8788 4.48017 23.8493 4.38166 23.8296C4.28316 23.7902 4.18466 23.7606 4.08616 23.7409L3.73155 23.4454C3.67244 23.3272 3.60349 23.2189 3.52469 23.1204C3.44589 23.0021 3.36709 22.8839 3.28828 22.7657C3.18978 22.6278 3.09128 22.4899 2.99278 22.352C2.89427 22.2141 2.80562 22.0565 2.72682 21.8792C2.58891 21.1897 2.55936 20.6184 2.63817 20.1653C2.73667 19.6925 2.86472 19.2295 3.02233 18.7764C3.06173 18.6188 3.10113 18.471 3.14053 18.3331C3.17993 18.1952 3.21933 18.0475 3.25873 17.8899ZM38.3947 20.8154C38.178 21.6034 37.981 22.2043 37.8037 22.618C37.646 23.012 37.3998 23.4257 37.0649 23.8591C36.8088 23.8197 36.6315 23.8493 36.533 23.9478C36.4345 24.0463 36.3261 24.1349 36.2079 24.2137C36.0306 24.2531 35.9025 24.2531 35.8237 24.2137C35.7449 24.1743 35.676 24.1251 35.6169 24.066C35.5578 24.0266 35.479 23.9773 35.3805 23.9182C35.3017 23.8788 35.1736 23.8591 34.9963 23.8591C34.9569 23.7015 34.9077 23.5538 34.8486 23.4159C34.8092 23.278 34.6811 23.2287 34.4644 23.2681C34.5038 23.1105 34.5137 22.9824 34.494 22.8839C34.4743 22.7657 34.4447 22.6672 34.4053 22.5884C34.3856 22.4899 34.3659 22.4013 34.3462 22.3225C34.3265 22.224 34.3364 22.1058 34.3758 21.9679C34.2773 21.9679 34.1984 21.8989 34.1393 21.761C34.0802 21.6231 34.0113 21.4852 33.9325 21.3473C33.9916 20.9927 34.0507 20.6578 34.1098 20.3426C34.1689 20.0274 34.2379 19.7319 34.3167 19.456C34.4152 19.1802 34.494 18.9044 34.5531 18.6286C34.6122 18.3528 34.5826 18.0672 34.4644 17.7717C34.5432 17.8308 34.6023 17.8209 34.6417 17.7421C34.6811 17.6436 34.7107 17.5254 34.7304 17.3875C34.7501 17.2299 34.7599 17.0821 34.7599 16.9442C34.7599 16.7866 34.7501 16.6586 34.7304 16.5601C34.9274 16.0479 35.085 15.5258 35.2032 14.9939C35.3411 14.4423 35.4593 13.9005 35.5578 13.3686C35.676 12.8367 35.7942 12.3146 35.9124 11.8024C36.0306 11.2902 36.1882 10.8174 36.3852 10.3839C36.6019 10.3445 36.8383 10.3741 37.0944 10.4726C37.3702 10.5514 37.5377 10.6598 37.5968 10.7977C38.109 10.4036 38.5621 9.93083 38.9561 9.37922C39.3501 8.8079 39.754 8.25628 40.1677 7.72437C40.5814 7.19245 41.0345 6.71964 41.5271 6.30593C42.0393 5.89222 42.6795 5.64596 43.4479 5.56716C43.8419 5.86267 44.2753 6.16803 44.7481 6.48323C45.2406 6.77874 45.6445 7.17275 45.9597 7.66527C46.1173 7.74407 46.2453 7.83272 46.3438 7.93122C46.462 8.01003 46.5999 8.09868 46.7576 8.19718V8.55179C46.994 8.7685 47.1811 9.02461 47.319 9.32011C47.4766 9.59592 47.6145 9.90128 47.7327 10.2362C47.8509 10.5514 47.9691 10.8765 48.0873 11.2114C48.2055 11.5266 48.3434 11.8319 48.5011 12.1274C48.4616 12.2259 48.4419 12.3146 48.4419 12.3934C48.4419 12.4525 48.4518 12.5215 48.4715 12.6003C48.5109 12.6791 48.5405 12.7579 48.5602 12.8367C48.5799 12.9155 48.5799 13.0238 48.5602 13.1617C48.5011 14.0285 48.2154 14.7279 47.7032 15.2598C47.2107 15.7917 46.6098 16.235 45.9006 16.5896C45.1914 16.9245 44.4329 17.2102 43.6252 17.4466C42.8174 17.683 42.0885 17.9391 41.4384 18.2149C41.4384 18.2937 41.468 18.3331 41.5271 18.3331C41.6059 18.3331 41.6354 18.3824 41.6157 18.4809C42.0885 18.7764 42.4628 19.0128 42.7386 19.1901C43.0144 19.3674 43.2706 19.5151 43.507 19.6334C43.7631 19.7516 44.029 19.8599 44.3048 19.9584C44.6003 20.0372 45.0042 20.1357 45.5164 20.2539C46.0286 20.3721 46.4226 20.4706 46.6984 20.5494C46.994 20.6085 47.2599 20.6676 47.4963 20.7267C47.7327 20.7661 47.9691 20.8055 48.2055 20.8449C48.4616 20.8646 48.8163 20.8942 49.2694 20.9336C49.4467 21.1109 49.5944 21.3276 49.7126 21.5837C49.8505 21.8201 49.9392 22.0664 49.9786 22.3225C50.018 22.5589 50.0278 22.7953 50.0081 23.0317C49.9884 23.2484 49.9195 23.4257 49.8013 23.5636C49.821 23.6227 49.8604 23.6523 49.9195 23.6523C49.9983 23.6326 50.0771 23.6326 50.1559 23.6523C50.0377 23.7311 49.9392 23.8296 49.8604 23.9478C49.7816 24.066 49.7028 24.1842 49.624 24.3024C49.5452 24.4206 49.4565 24.5191 49.358 24.5979C49.2595 24.6964 49.1216 24.7555 48.9443 24.7752C48.3336 25.0116 47.5653 25.0215 46.6393 24.8047C45.7134 24.6077 44.5412 24.2334 43.1228 23.6818C42.4136 23.406 41.8324 23.1696 41.3793 22.9726C40.9459 22.7559 40.5617 22.549 40.2268 22.352C39.9116 22.1353 39.6161 21.9088 39.3403 21.6724C39.0842 21.436 38.769 21.1503 38.3947 20.8154ZM42.6204 10.6795C42.4037 10.9947 42.1575 11.2803 41.8817 11.5364C41.6256 11.7925 41.3695 12.0585 41.1133 12.3343C40.8769 12.5904 40.6602 12.8859 40.4632 13.2208C40.2662 13.536 40.1283 13.9103 40.0495 14.3438C40.739 14.265 41.4581 14.0778 42.2067 13.7823C42.9553 13.4671 43.6646 13.1716 44.3344 12.8958C44.2556 12.285 44.0389 11.7925 43.6843 11.4182C43.3494 11.0439 42.9947 10.7977 42.6204 10.6795ZM70.4573 23.3568C70.2603 23.4553 70.0732 23.5439 69.8958 23.6227C69.7382 23.7015 69.5511 23.7409 69.3344 23.7409C68.5661 23.1696 68.1622 22.1747 68.1228 20.7563C68.1031 19.3378 68.4085 17.5352 69.0389 15.3485C69.1374 15.2894 69.1866 15.1712 69.1866 14.9939L68.9207 14.6984C68.8419 14.6984 68.7631 14.7082 68.6843 14.7279C68.6252 14.7476 68.5759 14.8166 68.5365 14.9348C68.0243 15.3091 67.4628 15.7031 66.8521 16.1168C66.2414 16.5108 65.6011 16.8851 64.9313 17.2397C64.2812 17.5746 63.6114 17.8505 62.9219 18.0672C62.252 18.2839 61.5921 18.3922 60.9419 18.3922C59.2871 18.3922 58.046 17.5549 57.2185 15.8804L56.9821 15.4371L56.7457 15.8213C56.6866 15.9001 56.598 16.0676 56.4798 16.3237C56.3616 16.5601 56.2434 16.8359 56.1252 17.1511C56.007 17.4663 55.8986 17.7914 55.8001 18.1263C55.7213 18.4415 55.6917 18.7173 55.7115 18.9537C55.5341 19.131 55.347 19.3378 55.15 19.5743C54.953 19.8107 54.8052 20.0766 54.7067 20.3721C54.6673 20.5297 54.687 20.6775 54.7658 20.8154C54.7264 20.9927 54.6378 21.1306 54.4999 21.2291C54.4211 21.3276 54.3324 21.4261 54.2339 21.5246C54.1551 21.6034 54.0862 21.6921 54.0271 21.7906C53.9877 21.8891 53.9581 21.9876 53.9384 22.0861C53.9384 22.1846 53.9286 22.2831 53.9088 22.3816C53.9088 22.5195 53.8891 22.6475 53.8497 22.7657C53.5148 23.4553 53.2489 23.8985 53.0519 24.0955C52.8549 24.3122 52.5889 24.4206 52.254 24.4206C52.0964 24.4206 51.8403 24.391 51.4857 24.3319C51.2296 24.0561 50.9932 23.6818 50.7765 23.209C50.5795 22.7165 50.4219 22.1944 50.3036 21.6428C50.2051 21.0912 50.1559 20.5396 50.1559 19.988C50.1756 19.4166 50.2741 18.9241 50.4514 18.5104C50.4514 18.4907 50.5302 18.2937 50.6878 17.9194C50.8454 17.5451 51.0424 17.0624 51.2788 16.4714C51.5349 15.8804 51.8206 15.2303 52.1358 14.5211C52.451 13.7921 52.7662 13.0928 53.0814 12.423C53.3966 11.7334 53.6921 11.103 53.968 10.5317C54.2635 9.96038 54.5097 9.52697 54.7067 9.23146C54.8643 8.99505 55.0022 8.77835 55.1204 8.58134C55.2583 8.36464 55.3864 8.15778 55.5046 7.96078C55.8592 7.35006 56.1941 6.84769 56.5093 6.45368C56.8442 6.03997 57.3269 5.71491 57.9573 5.47851C58.3907 5.65581 58.7059 5.86267 58.9029 6.09907L58.962 6.42413C59.0408 6.62114 59.159 6.71964 59.3167 6.71964C59.5334 6.77874 59.7107 6.83784 59.8486 6.89695C60.0062 6.93635 60.1736 6.97575 60.3509 7.01515C60.4888 7.17275 60.6169 7.35991 60.7351 7.57661C60.8927 7.81302 61.0404 8.04943 61.1784 8.28583C61.336 8.50254 61.4542 8.7291 61.533 8.9655C61.6315 9.18221 61.6807 9.40877 61.6807 9.64517C61.7004 9.88158 61.661 10.1278 61.5625 10.3839L61.5921 10.6795C61.6906 10.8568 61.7103 11.103 61.6512 11.4182C61.6315 11.5561 61.6216 11.7039 61.6216 11.8615C61.6216 11.9994 61.6413 12.157 61.6807 12.3343C62.0353 12.6101 62.3505 12.748 62.6263 12.748C62.9416 12.748 63.2272 12.6791 63.4833 12.5412C63.7591 12.3835 64.0152 12.2259 64.2516 12.0683C64.4092 11.9501 64.5668 11.8516 64.7245 11.7728C64.8821 11.6743 65.0397 11.6152 65.1973 11.5955C65.5519 11.2606 65.8671 10.9651 66.1429 10.709C66.4384 10.4529 66.7438 10.1968 67.059 9.94068C67.65 9.46787 68.2213 8.95565 68.7729 8.40404C69.3245 7.85242 69.7678 7.1629 70.1027 6.33548C70.2997 6.21728 70.5066 6.15818 70.7233 6.15818C70.94 6.15818 71.1665 6.20743 71.4029 6.30593C71.6393 6.40443 71.8659 6.50293 72.0826 6.60144C72.1417 6.64084 72.191 6.67039 72.2304 6.69009C72.2895 6.70979 72.3387 6.72949 72.3781 6.74919C72.3781 6.9462 72.4569 7.11365 72.6145 7.25156C72.6933 7.31066 72.7426 7.35006 72.7623 7.36976C72.782 7.38946 72.8115 7.40916 72.8509 7.42886C73.1464 7.58647 73.3336 7.74407 73.4124 7.90167C73.5503 8.35479 73.7966 8.69955 74.1512 8.93595C74.1118 9.13296 74.1118 9.32011 74.1512 9.49742C74.2103 9.65502 74.2792 9.82248 74.358 9.99978C74.3777 10.0589 74.3974 10.118 74.4171 10.1771C74.4368 10.2362 74.4664 10.3051 74.5058 10.3839L73.9443 10.3248L74.033 10.8863C74.0724 11.1621 74.0428 11.4675 73.9443 11.8024C73.8655 12.1373 73.767 12.4033 73.6488 12.6003C73.6685 13.1125 73.6784 13.5163 73.6784 13.8118C73.6981 14.0876 73.6882 14.3536 73.6488 14.6097C73.6094 14.8461 73.5503 15.0727 73.4715 15.2894C73.4124 15.5061 73.3237 15.7425 73.2055 15.9986C73.2843 17.2594 73.1366 18.4119 72.7623 19.456C72.4077 20.4805 72.0334 21.4458 71.6393 22.352C71.5999 22.4505 71.5507 22.549 71.4916 22.6475C71.4522 22.746 71.4128 22.8445 71.3734 22.943C71.1961 23.0021 71.0385 23.0711 70.9006 23.1499C70.7627 23.209 70.6149 23.278 70.4573 23.3568ZM89.3107 10.5612C89.3698 10.2657 89.4092 10.0293 89.4289 9.85203C89.4486 9.65502 89.3797 9.44817 89.2221 9.23146C89.3009 8.91625 89.36 8.67 89.3994 8.49269C89.4585 8.31539 89.4683 8.06913 89.4289 7.75392C89.6063 7.24171 89.8722 6.80829 90.2268 6.45368C90.6011 6.09907 91.005 5.80357 91.4384 5.56716C91.8718 5.31105 92.3249 5.1042 92.7977 4.94659C93.2706 4.76929 93.7138 4.62153 94.1275 4.50333C94.1275 4.42453 94.0881 4.38513 94.0093 4.38513C93.9305 4.38513 93.9108 4.33587 93.9502 4.23737C95.0141 4.04037 96.0779 3.75471 97.1417 3.3804C98.2252 3.00609 99.3285 2.67118 100.451 2.37567C101.574 2.08016 102.727 1.90286 103.909 1.84375C105.091 1.76495 106.332 1.91271 107.632 2.28702C107.711 2.52342 107.819 2.74998 107.957 2.96669C108.095 3.18339 108.233 3.4001 108.371 3.6168C108.529 3.81381 108.667 4.01081 108.785 4.20782C108.903 4.40483 108.972 4.61168 108.992 4.82839C109.228 5.04509 109.415 5.2815 109.553 5.53761C109.711 5.77401 109.74 6.09907 109.642 6.51278C109.425 6.67039 109.198 6.82799 108.962 6.9856C108.726 7.1432 108.479 7.29096 108.223 7.42886C107.337 7.21215 106.45 7.13335 105.564 7.19245C104.677 7.25156 103.879 7.32051 103.17 7.39931C102.953 7.1629 102.697 7.05455 102.402 7.07425C102.106 7.07425 101.791 7.1235 101.456 7.222C101.141 7.30081 100.826 7.38946 100.511 7.48796C100.195 7.56676 99.8998 7.58647 99.624 7.54706C99.4073 7.74407 99.1216 7.88197 98.767 7.96078C98.4124 8.01988 98.0381 8.06913 97.6441 8.10853C97.6244 8.20703 97.6441 8.27598 97.7032 8.31539C97.7623 8.35479 97.7721 8.43359 97.7327 8.55179C97.8706 8.7291 98.0578 8.85715 98.2942 8.93595C98.5306 8.99505 98.767 9.05416 99.0034 9.11326C99.2595 9.17236 99.4861 9.26101 99.6831 9.37922C99.8801 9.47772 100.008 9.64517 100.067 9.88158C100.422 9.90128 100.727 9.99978 100.983 10.1771C101.239 10.3347 101.456 10.5317 101.633 10.7681C101.811 11.0045 101.939 11.2606 102.018 11.5364C102.096 11.7925 102.126 12.0289 102.106 12.2456C102.185 12.4427 102.264 12.5215 102.343 12.4821C102.441 12.4427 102.55 12.4919 102.668 12.6298C102.747 12.9253 102.924 13.2405 103.2 13.5754C103.495 13.8906 103.722 14.2354 103.879 14.6097C103.919 15.2007 103.948 15.7326 103.968 16.2055C104.007 16.6783 103.929 17.1412 103.732 17.5943C103.397 18.4612 102.914 19.2393 102.284 19.9289C101.653 20.6184 100.934 21.2291 100.126 21.761C99.3383 22.2732 98.5011 22.7263 97.6145 23.1204C96.728 23.4947 95.8513 23.8099 94.9845 24.066C94.9057 24.0463 94.8072 24.0463 94.689 24.066C94.5905 24.0857 94.5708 24.0266 94.6299 23.8887C94.4526 24.0463 94.2457 24.1448 94.0093 24.1842C93.7926 24.2236 93.5464 24.2334 93.2706 24.2137C93.0144 24.2137 92.7485 24.2039 92.4727 24.1842C92.2166 24.1645 91.9605 24.1743 91.7044 24.2137C91.5468 24.0561 91.399 23.8985 91.2611 23.7409C91.1429 23.5833 91.0444 23.3962 90.9656 23.1795C90.8671 23.1598 90.8178 23.1006 90.8178 23.0021C90.8375 22.8839 90.7981 22.8248 90.6996 22.8248C90.6996 22.746 90.7095 22.6869 90.7292 22.6475C90.7489 22.6081 90.7686 22.5687 90.7883 22.5293C90.8671 22.4702 90.8966 22.4308 90.8769 22.4111C90.8769 22.3717 90.8474 22.3422 90.7883 22.3225C90.7489 22.2831 90.6996 22.2437 90.6405 22.2043C90.6011 22.1649 90.5913 22.1156 90.611 22.0565C90.7095 21.8792 90.739 21.6724 90.6996 21.436C90.6799 21.1798 90.6602 20.9237 90.6405 20.6676C90.6208 20.4115 90.6405 20.1751 90.6996 19.9584C90.7587 19.722 90.9262 19.525 91.202 19.3674C92.0097 19.4462 92.7682 19.4068 93.4774 19.2492C94.2063 19.0916 94.886 18.8749 95.5164 18.5991C96.1665 18.3233 96.7773 18.0278 97.3486 17.7125C97.9396 17.3776 98.5109 17.0723 99.0625 16.7965C99.1216 16.5995 99.2103 16.432 99.3285 16.2941C99.4664 16.1562 99.6043 16.0282 99.7422 15.9099C99.8801 15.772 100.008 15.6341 100.126 15.4962C100.245 15.3386 100.333 15.1515 100.392 14.9348C100.412 14.856 100.412 14.7969 100.392 14.7575C100.373 14.7181 100.343 14.6885 100.304 14.6688C100.264 14.6294 100.225 14.59 100.185 14.5506C100.146 14.5112 100.126 14.4521 100.126 14.3733C100.067 14.3536 100.008 14.3339 99.949 14.3142C99.9096 14.2945 99.8702 14.2847 99.8308 14.2847C99.3186 14.0285 98.7769 13.8118 98.2055 13.6345C97.6342 13.4572 97.1516 13.2602 96.7576 13.0435C96.5211 13.2011 96.2847 13.2405 96.0483 13.1617C95.8119 13.0829 95.5263 13.0041 95.1914 12.9253C94.3639 12.8859 93.5759 12.8071 92.8273 12.6889C92.0984 12.5707 91.3892 12.3638 90.6996 12.0683C90.6602 11.9501 90.611 11.8516 90.5519 11.7728C90.4928 11.6743 90.3549 11.6448 90.1382 11.6842C90.0003 11.4872 89.8525 11.3099 89.6949 11.1523C89.557 10.975 89.4289 10.778 89.3107 10.5612ZM141.645 7.07425C141.685 7.50766 141.754 7.88197 141.852 8.19718C141.951 8.51239 142.059 8.81775 142.177 9.11326C142.276 9.38907 142.364 9.66487 142.443 9.94068C142.542 10.1968 142.611 10.512 142.65 10.8863C142.492 11.3985 142.374 11.8713 142.295 12.3047C142.236 12.7382 142.167 13.1913 142.089 13.6641C141.773 14.3536 141.468 14.9643 141.172 15.4962C140.877 16.0282 140.641 16.4911 140.463 16.8851C140.365 16.9836 140.276 17.1018 140.197 17.2397C140.138 17.3579 140.069 17.486 139.99 17.6239C139.951 17.683 139.902 17.7717 139.843 17.8899C139.784 18.0081 139.734 18.0869 139.695 18.1263L139.104 17.9194L138.986 18.6582L138.572 18.7764L138.276 19.131C137.902 19.7811 137.508 20.3327 137.094 20.7858C136.681 21.2192 136.208 21.6133 135.676 21.9679C135.164 22.3028 134.573 22.618 133.903 22.9135C133.253 23.209 132.514 23.5341 131.687 23.8887C131.352 23.8493 131.056 23.8296 130.8 23.8296C130.564 23.8099 130.337 23.7902 130.12 23.7705C129.746 23.7705 129.283 23.7409 128.732 23.6818C128.672 23.5242 128.584 23.4159 128.466 23.3568C128.347 23.2977 128.239 23.2681 128.141 23.2681C127.806 23.1105 127.55 22.8839 127.372 22.5884C127.215 22.2732 127.057 21.9383 126.899 21.5837C126.801 21.367 126.702 21.17 126.604 20.9927C126.505 20.7957 126.397 20.5987 126.279 20.4017L126.781 20.2539L126.131 19.5447C126.092 19.4856 126.042 19.4363 125.983 19.3969C125.924 19.3378 125.875 19.2787 125.836 19.2196L125.806 18.7468C125.747 17.3875 125.717 16.1464 125.717 15.0234C125.737 13.8808 125.895 12.8662 126.19 11.9797V11.6546C126.249 11.2212 126.308 10.8666 126.367 10.5908C126.427 10.2953 126.476 10.0195 126.515 9.76338C126.574 9.32996 126.663 8.9261 126.781 8.55179C127.057 8.49269 127.264 8.38434 127.402 8.22673C127.54 8.04943 127.658 7.89182 127.756 7.75392C128.032 7.73422 128.219 7.77362 128.318 7.87212C128.416 7.97063 128.515 8.12823 128.613 8.34494C128.712 8.52224 128.83 8.71925 128.968 8.93595C129.126 9.15266 129.352 9.32011 129.648 9.43832C129.687 9.59592 129.736 9.76338 129.795 9.94068C129.874 10.0983 129.953 10.2756 130.032 10.4726C130.189 10.8075 130.327 11.1621 130.445 11.5364C130.583 11.891 130.662 12.2358 130.682 12.5707C130.485 12.945 130.327 13.3784 130.209 13.8709C130.111 14.3635 130.042 14.8658 130.002 15.378C129.983 15.8705 129.992 16.3532 130.032 16.826C130.091 17.2791 130.18 17.6633 130.298 17.9785L130.475 18.3627L130.977 18.3036C131.568 18.146 132.1 17.9785 132.573 17.8012C133.066 17.6042 133.519 17.3776 133.932 17.1215C134.346 16.8654 134.74 16.5699 135.115 16.235C135.489 15.8804 135.883 15.4765 136.297 15.0234C136.71 14.5703 137.065 14.0581 137.36 13.4868C137.676 12.8958 137.932 12.285 138.129 11.6546C138.345 11.0242 138.503 10.4036 138.602 9.79293C138.72 9.16251 138.799 8.57149 138.838 8.01988C139.173 7.90167 139.34 7.66527 139.34 7.31066L139.281 6.9856C139.202 6.86739 139.202 6.72949 139.281 6.57189C139.399 6.19758 139.675 5.91192 140.109 5.71491C140.424 5.91192 140.7 6.12862 140.936 6.36503C141.192 6.60144 141.429 6.83784 141.645 7.07425ZM149.713 23.5636C149.161 23.7409 148.56 23.9182 147.91 24.0955C147.26 24.2728 146.61 24.3615 145.96 24.3615C144.975 24.3615 144.196 24.1152 143.625 23.6227C143.527 23.406 143.438 23.2583 143.359 23.1795C143.3 23.1006 143.241 23.0218 143.182 22.943C143.143 22.8445 143.113 22.7165 143.093 22.5589C142.857 22.2831 142.67 21.9679 142.532 21.6133C142.394 21.2389 142.295 20.8646 142.236 20.4903C142.197 20.0963 142.187 19.7023 142.207 19.3083C142.246 18.9143 142.315 18.54 142.414 18.1854C142.453 18.1066 142.473 18.0278 142.473 17.949C142.492 17.8702 142.512 17.7815 142.532 17.683C142.611 17.3678 142.689 17.0624 142.768 16.7669C142.867 16.4714 142.995 16.2153 143.152 15.9986C143.074 15.8213 143.074 15.6243 143.152 15.4076C143.231 15.1909 143.32 14.9939 143.418 14.8166C143.694 14.0679 143.921 13.4375 144.098 12.9253C144.295 12.3934 144.492 11.8713 144.689 11.3591C145.024 10.4726 145.339 9.59592 145.635 8.7291C145.93 7.86227 146.196 6.9265 146.433 5.92177C146.59 5.82327 146.708 5.75431 146.787 5.71491C146.905 5.67551 147.004 5.64596 147.083 5.62626C147.437 5.80357 147.851 5.98087 148.324 6.15818C148.797 6.31578 149.191 6.39458 149.506 6.39458C149.663 6.49308 149.762 6.57189 149.801 6.63099C149.841 6.67039 149.88 6.70979 149.919 6.74919C150.136 7.0053 150.323 7.27126 150.481 7.54706C150.639 7.80317 150.688 8.14793 150.629 8.58134C150.511 8.75865 150.422 8.8473 150.363 8.8473C150.264 9.24131 150.156 9.57622 150.038 9.85203C149.939 10.1278 149.831 10.4036 149.713 10.6795C149.575 10.975 149.447 11.2705 149.328 11.566C149.21 11.8615 149.112 12.2259 149.033 12.6594C148.954 12.7579 148.895 12.8465 148.856 12.9253C148.836 13.0041 148.806 13.0928 148.767 13.1913C148.728 13.2898 148.678 13.3981 148.619 13.5163C148.58 13.6148 148.511 13.7035 148.412 13.7823C148.353 14.2945 148.255 14.7082 148.117 15.0234C147.999 15.3386 147.871 15.6538 147.733 15.969C147.496 16.5404 147.28 17.1117 147.083 17.683C146.905 18.2543 146.797 18.9044 146.758 19.6334C146.856 19.594 146.945 19.5743 147.024 19.5743C147.122 19.5743 147.211 19.5743 147.289 19.5743C147.467 19.5743 147.674 19.6038 147.91 19.6629C148.501 19.3477 149.141 19.1605 149.831 19.1014C150.54 19.0423 151.239 19.0029 151.929 18.9832C152.205 18.9832 152.481 18.9832 152.756 18.9832C153.032 18.9832 153.288 18.9635 153.525 18.9241C153.702 19.0226 153.81 19.0817 153.85 19.1014C153.909 19.1014 153.988 19.1014 154.086 19.1014C154.224 19.1014 154.342 19.1113 154.441 19.131C154.677 19.3477 154.904 19.5053 155.12 19.6038C155.337 19.7023 155.564 19.791 155.8 19.8698C156.017 19.9486 156.224 20.0372 156.421 20.1357C156.637 20.2145 156.844 20.3327 157.041 20.4903L157.248 21.761C157.386 21.9383 157.445 22.0565 157.425 22.1156C157.425 22.2732 157.386 22.3914 157.307 22.4702L157.366 22.7953C157.071 22.8544 156.864 22.9233 156.746 23.0021C156.647 23.0809 156.549 23.1696 156.45 23.2681C156.293 23.2878 156.174 23.2977 156.096 23.2977C156.037 23.2977 155.977 23.2977 155.918 23.2977C155.643 23.2977 155.308 23.3469 154.914 23.4454C154.382 23.2681 153.83 23.1795 153.259 23.1795C153.042 23.1795 152.815 23.1893 152.579 23.209C152.343 23.2287 152.106 23.2484 151.87 23.2681C151.633 23.3075 151.387 23.3371 151.131 23.3568C150.895 23.3765 150.648 23.3863 150.392 23.3863L149.713 23.5636Z" fill="black"/>
<path d="M32.285 17.2397C32.2703 17.417 32.285 17.587 32.3294 17.7495C32.3737 17.912 32.4254 18.0745 32.4845 18.2371C32.5584 18.3848 32.6249 18.54 32.684 18.7025C32.7431 18.865 32.7874 19.0276 32.8169 19.1901C32.8465 19.3969 32.8465 19.626 32.8169 19.8771C32.7874 20.1136 32.7357 20.35 32.6618 20.5864C32.5879 20.808 32.4919 21.0149 32.3737 21.2069C32.2555 21.3842 32.1151 21.5172 31.9526 21.6059C31.7457 21.8718 31.4945 22.0787 31.199 22.2264C30.9035 22.3742 30.6302 22.5515 30.379 22.7584C30.2165 22.8618 30.0318 22.9357 29.8249 22.98C29.6328 23.0243 29.4334 23.0686 29.2265 23.113C29.064 23.2016 28.8719 23.2977 28.6503 23.4011C28.4287 23.4897 28.1996 23.5784 27.9632 23.667C27.7268 23.7409 27.4904 23.8 27.254 23.8443C27.0176 23.8739 26.8107 23.8813 26.6334 23.8665C26.1902 24.029 25.7543 24.1325 25.3258 24.1768C24.9121 24.2359 24.4245 24.2063 23.863 24.0881C23.3311 24.162 22.8362 24.1399 22.3781 24.0217C21.9349 23.9034 21.5359 23.7188 21.1813 23.4676C20.8415 23.2016 20.5386 22.8913 20.2726 22.5367C20.0214 22.1673 19.8146 21.7832 19.6521 21.3842C19.5339 20.542 19.5634 19.7811 19.7407 19.1014C19.918 18.407 20.1692 17.7717 20.4943 17.1954C20.8341 16.6044 21.2182 16.0651 21.6467 15.5775C22.0752 15.0751 22.4889 14.5875 22.8879 14.1147C22.9765 14.1443 23.043 14.1443 23.0873 14.1147C23.1464 14.0704 23.1982 14.0187 23.2425 13.9596C23.2868 13.8857 23.3311 13.8192 23.3755 13.7601C23.4346 13.701 23.501 13.6641 23.5749 13.6493C23.6784 13.4277 23.8261 13.2651 24.0182 13.1617C24.225 13.0435 24.3876 12.881 24.5058 12.6741C24.6388 12.6446 24.7496 12.6003 24.8382 12.5412C24.9269 12.4821 25.0081 12.4156 25.082 12.3417C25.1707 12.2678 25.2593 12.2013 25.348 12.1422C25.4366 12.0683 25.5401 12.0166 25.6583 11.9871V11.7433C25.9242 11.6251 26.1163 11.4921 26.2345 11.3443C26.3675 11.1818 26.5226 10.9897 26.6999 10.7681C26.8329 10.7533 26.9363 10.7459 27.0102 10.7459C27.0989 10.7459 27.2245 10.7312 27.387 10.7016C27.5052 10.4948 27.6086 10.3396 27.6973 10.2362C27.8007 10.1328 27.9484 10.0219 28.1405 9.90374C28.3178 9.99239 28.5099 10.0515 28.7168 10.081C28.9384 10.1106 29.1305 10.2066 29.293 10.3692C29.3078 10.5169 29.3521 10.6351 29.426 10.7238C29.4999 10.7977 29.5811 10.8715 29.6698 10.9454C29.7584 11.0045 29.8397 11.071 29.9136 11.1449C30.0022 11.2188 30.0613 11.3222 30.0909 11.4552C30.15 11.4699 30.1869 11.4625 30.2017 11.433C30.2313 11.4034 30.2756 11.3961 30.3347 11.4108C30.379 11.6177 30.4307 11.7581 30.4898 11.8319C30.5489 11.891 30.608 12.0166 30.6671 12.2087C30.5932 12.3565 30.5341 12.5116 30.4898 12.6741C30.4603 12.8219 30.3716 12.9327 30.2239 13.0066C30.2091 13.11 30.2386 13.1691 30.3125 13.1839C30.3864 13.1839 30.4307 13.2208 30.4455 13.2947C30.4603 13.4277 30.4381 13.5237 30.379 13.5828C30.7336 14.1591 31.0513 14.7722 31.332 15.4224C31.6128 16.0577 31.9304 16.6635 32.285 17.2397ZM29.5146 19.3452C29.5737 19.1827 29.6476 19.0497 29.7363 18.9463C29.8397 18.8429 29.8988 18.6877 29.9136 18.4809C29.8397 18.3627 29.7954 18.274 29.7806 18.2149C29.7658 18.141 29.7584 18.0302 29.7584 17.8825C29.4334 17.4244 29.1526 16.9368 28.9162 16.4197C28.6798 15.8878 28.4139 15.3928 28.1184 14.9348C28.0888 14.9939 28.0371 15.053 27.9632 15.1121C27.8893 15.1712 27.8081 15.1564 27.7194 15.0677C27.6899 15.186 27.6382 15.2746 27.5643 15.3337C27.4904 15.378 27.4091 15.4002 27.3205 15.4002C27.2318 15.3854 27.1358 15.3633 27.0324 15.3337C26.9437 15.2894 26.8625 15.2377 26.7886 15.1786C26.3601 15.5184 25.9316 15.8508 25.5031 16.1759C25.0746 16.501 24.6905 16.8777 24.3506 17.3062C24.2915 17.3358 24.2546 17.3506 24.2398 17.3506C24.225 17.3358 24.1807 17.3432 24.1068 17.3727C23.9886 17.6534 23.8409 17.912 23.6636 18.1484C23.501 18.3701 23.3385 18.5991 23.176 18.8355C23.0135 19.0719 22.8731 19.3231 22.7549 19.589C22.6367 19.855 22.5702 20.1653 22.5554 20.5199C22.8066 20.7267 23.1021 20.8523 23.4419 20.8967C23.7818 20.941 24.129 20.9484 24.4836 20.9188C24.853 20.8893 25.2076 20.8449 25.5474 20.7858C25.9021 20.712 26.2271 20.675 26.5226 20.675C27.1432 20.5273 27.6751 20.3352 28.1184 20.0988C28.5616 19.8476 29.0271 19.5964 29.5146 19.3452Z" fill="#4F7A26"/>
<path d="M87.5746 17.2397C87.5599 17.417 87.5746 17.587 87.619 17.7495C87.6633 17.912 87.715 18.0745 87.7741 18.2371C87.848 18.3848 87.9145 18.54 87.9736 18.7025C88.0327 18.865 88.077 19.0276 88.1065 19.1901C88.1361 19.3969 88.1361 19.626 88.1065 19.8771C88.077 20.1136 88.0253 20.35 87.9514 20.5864C87.8775 20.808 87.7815 21.0149 87.6633 21.2069C87.5451 21.3842 87.4047 21.5172 87.2422 21.6059C87.0353 21.8718 86.7841 22.0787 86.4886 22.2264C86.1931 22.3742 85.9198 22.5515 85.6686 22.7584C85.5061 22.8618 85.3214 22.9357 85.1145 22.98C84.9224 23.0243 84.723 23.0686 84.5161 23.113C84.3536 23.2016 84.1615 23.2977 83.9399 23.4011C83.7183 23.4897 83.4892 23.5784 83.2528 23.667C83.0164 23.7409 82.78 23.8 82.5436 23.8443C82.3072 23.8739 82.1003 23.8813 81.923 23.8665C81.4798 24.029 81.0439 24.1325 80.6154 24.1768C80.2017 24.2359 79.7141 24.2063 79.1526 24.0881C78.6207 24.162 78.1258 24.1399 77.6677 24.0217C77.2245 23.9034 76.8255 23.7188 76.4709 23.4676C76.1311 23.2016 75.8282 22.8913 75.5622 22.5367C75.311 22.1673 75.1042 21.7832 74.9417 21.3842C74.8235 20.542 74.853 19.7811 75.0303 19.1014C75.2076 18.407 75.4588 17.7717 75.7839 17.1954C76.1237 16.6044 76.5078 16.0651 76.9363 15.5775C77.3648 15.0751 77.7785 14.5875 78.1775 14.1147C78.2661 14.1443 78.3326 14.1443 78.3769 14.1147C78.436 14.0704 78.4878 14.0187 78.5321 13.9596C78.5764 13.8857 78.6207 13.8192 78.6651 13.7601C78.7242 13.701 78.7906 13.6641 78.8645 13.6493C78.968 13.4277 79.1157 13.2651 79.3078 13.1617C79.5146 13.0435 79.6772 12.881 79.7954 12.6741C79.9284 12.6446 80.0392 12.6003 80.1278 12.5412C80.2165 12.4821 80.2977 12.4156 80.3716 12.3417C80.4603 12.2678 80.5489 12.2013 80.6376 12.1422C80.7262 12.0683 80.8297 12.0166 80.9479 11.9871V11.7433C81.2138 11.6251 81.4059 11.4921 81.5241 11.3443C81.6571 11.1818 81.8122 10.9897 81.9895 10.7681C82.1225 10.7533 82.2259 10.7459 82.2998 10.7459C82.3885 10.7459 82.5141 10.7312 82.6766 10.7016C82.7948 10.4948 82.8982 10.3396 82.9869 10.2362C83.0903 10.1328 83.238 10.0219 83.4301 9.90374C83.6074 9.99239 83.7995 10.0515 84.0064 10.081C84.228 10.1106 84.4201 10.2066 84.5826 10.3692C84.5974 10.5169 84.6417 10.6351 84.7156 10.7238C84.7895 10.7977 84.8707 10.8715 84.9594 10.9454C85.048 11.0045 85.1293 11.071 85.2032 11.1449C85.2918 11.2188 85.3509 11.3222 85.3805 11.4552C85.4396 11.4699 85.4765 11.4625 85.4913 11.433C85.5209 11.4034 85.5652 11.3961 85.6243 11.4108C85.6686 11.6177 85.7203 11.7581 85.7794 11.8319C85.8385 11.891 85.8976 12.0166 85.9567 12.2087C85.8828 12.3565 85.8237 12.5116 85.7794 12.6741C85.7499 12.8219 85.6612 12.9327 85.5135 13.0066C85.4987 13.11 85.5282 13.1691 85.6021 13.1839C85.676 13.1839 85.7203 13.2208 85.7351 13.2947C85.7499 13.4277 85.7277 13.5237 85.6686 13.5828C86.0232 14.1591 86.3409 14.7722 86.6216 15.4224C86.9024 16.0577 87.22 16.6635 87.5746 17.2397ZM84.8042 19.3452C84.8633 19.1827 84.9372 19.0497 85.0259 18.9463C85.1293 18.8429 85.1884 18.6877 85.2032 18.4809C85.1293 18.3627 85.085 18.274 85.0702 18.2149C85.0554 18.141 85.048 18.0302 85.048 17.8825C84.723 17.4244 84.4422 16.9368 84.2058 16.4197C83.9694 15.8878 83.7035 15.3928 83.408 14.9348C83.3784 14.9939 83.3267 15.053 83.2528 15.1121C83.1789 15.1712 83.0977 15.1564 83.009 15.0677C82.9795 15.186 82.9278 15.2746 82.8539 15.3337C82.78 15.378 82.6987 15.4002 82.6101 15.4002C82.5214 15.3854 82.4254 15.3633 82.322 15.3337C82.2333 15.2894 82.1521 15.2377 82.0782 15.1786C81.6497 15.5184 81.2212 15.8508 80.7927 16.1759C80.3642 16.501 79.9801 16.8777 79.6402 17.3062C79.5811 17.3358 79.5442 17.3506 79.5294 17.3506C79.5146 17.3358 79.4703 17.3432 79.3964 17.3727C79.2782 17.6534 79.1305 17.912 78.9532 18.1484C78.7906 18.3701 78.6281 18.5991 78.4656 18.8355C78.3031 19.0719 78.1627 19.3231 78.0445 19.589C77.9263 19.855 77.8598 20.1653 77.845 20.5199C78.0962 20.7267 78.3917 20.8523 78.7315 20.8967C79.0714 20.941 79.4186 20.9484 79.7732 20.9188C80.1426 20.8893 80.4972 20.8449 80.837 20.7858C81.1917 20.712 81.5167 20.675 81.8122 20.675C82.4328 20.5273 82.9647 20.3352 83.408 20.0988C83.8512 19.8476 84.3167 19.5964 84.8042 19.3452Z" fill="#FF9010"/>
<path d="M122.999 15.0234C122.979 15.2598 122.999 15.4864 123.058 15.7031C123.117 15.9198 123.186 16.1365 123.265 16.3532C123.363 16.5502 123.452 16.7571 123.531 16.9738C123.609 17.1905 123.669 17.4072 123.708 17.6239C123.747 17.8997 123.747 18.2051 123.708 18.54C123.669 18.8552 123.6 19.1704 123.501 19.4856C123.403 19.7811 123.274 20.0569 123.117 20.313C122.959 20.5494 122.772 20.7267 122.555 20.8449C122.28 21.1995 121.945 21.4754 121.551 21.6724C121.157 21.8694 120.792 22.1058 120.457 22.3816C120.241 22.5195 119.994 22.618 119.719 22.6771C119.462 22.7362 119.196 22.7953 118.921 22.8544C118.704 22.9726 118.448 23.1006 118.152 23.2386C117.857 23.3568 117.551 23.475 117.236 23.5932C116.921 23.6917 116.606 23.7705 116.291 23.8296C115.975 23.869 115.7 23.8788 115.463 23.8591C114.872 24.0758 114.291 24.2137 113.72 24.2728C113.168 24.3516 112.518 24.3122 111.769 24.1546C111.06 24.2531 110.4 24.2236 109.789 24.066C109.198 23.9084 108.667 23.6621 108.194 23.3272C107.741 22.9726 107.337 22.5589 106.982 22.0861C106.647 21.5936 106.371 21.0813 106.155 20.5494C105.997 19.4265 106.037 18.4119 106.273 17.5057C106.509 16.5798 106.844 15.7326 107.278 14.9643C107.731 14.1763 108.243 13.4572 108.814 12.8071C109.386 12.1373 109.937 11.4872 110.469 10.8568C110.587 10.8962 110.676 10.8962 110.735 10.8568C110.814 10.7977 110.883 10.7287 110.942 10.6499C111.001 10.5514 111.06 10.4627 111.119 10.3839C111.198 10.3051 111.287 10.2559 111.385 10.2362C111.523 9.94068 111.72 9.72397 111.976 9.58607C112.252 9.42847 112.469 9.21176 112.626 8.93595C112.804 8.89655 112.951 8.83745 113.07 8.75865C113.188 8.67985 113.296 8.59119 113.395 8.49269C113.513 8.39419 113.631 8.30554 113.749 8.22673C113.867 8.12823 114.005 8.05928 114.163 8.01988V7.69482C114.518 7.53721 114.774 7.35991 114.931 7.1629C115.109 6.9462 115.315 6.69009 115.552 6.39458C115.729 6.37488 115.867 6.36503 115.966 6.36503C116.084 6.36503 116.251 6.34533 116.468 6.30593C116.626 6.03012 116.763 5.82327 116.882 5.68536C117.02 5.54746 117.217 5.3997 117.473 5.2421C117.709 5.3603 117.965 5.4391 118.241 5.47851C118.537 5.51791 118.793 5.64596 119.009 5.86267C119.029 6.05967 119.088 6.21728 119.187 6.33548C119.285 6.43398 119.393 6.53249 119.512 6.63099C119.63 6.70979 119.738 6.79844 119.837 6.89695C119.955 6.99545 120.034 7.13335 120.073 7.31066C120.152 7.33036 120.201 7.32051 120.221 7.28111C120.26 7.24171 120.319 7.23186 120.398 7.25156C120.457 7.52736 120.526 7.71452 120.605 7.81302C120.684 7.89182 120.763 8.05928 120.841 8.31539C120.743 8.51239 120.664 8.71925 120.605 8.93595C120.566 9.13296 120.447 9.28071 120.25 9.37922C120.231 9.51712 120.27 9.59592 120.369 9.61562C120.467 9.61562 120.526 9.66487 120.546 9.76338C120.566 9.94068 120.536 10.0687 120.457 10.1475C120.93 10.9159 121.354 11.7334 121.728 12.6003C122.102 13.4474 122.526 14.2551 122.999 15.0234ZM119.305 17.8308C119.384 17.614 119.482 17.4367 119.6 17.2988C119.738 17.1609 119.817 16.9541 119.837 16.6783C119.738 16.5207 119.679 16.4025 119.659 16.3237C119.64 16.2252 119.63 16.0774 119.63 15.8804C119.196 15.2697 118.822 14.6196 118.507 13.93C118.192 13.2208 117.837 12.5609 117.443 11.9501C117.404 12.0289 117.335 12.1077 117.236 12.1865C117.138 12.2653 117.029 12.2456 116.911 12.1274C116.872 12.285 116.803 12.4033 116.704 12.4821C116.606 12.5412 116.498 12.5707 116.379 12.5707C116.261 12.551 116.133 12.5215 115.995 12.4821C115.877 12.423 115.769 12.354 115.67 12.2752C115.099 12.7283 114.527 13.1716 113.956 13.605C113.385 14.0384 112.873 14.5408 112.419 15.1121C112.341 15.1515 112.291 15.1712 112.272 15.1712C112.252 15.1515 112.193 15.1613 112.094 15.2007C111.937 15.575 111.74 15.9198 111.503 16.235C111.287 16.5305 111.07 16.8359 110.853 17.1511C110.637 17.4663 110.449 17.8012 110.292 18.1558C110.134 18.5104 110.046 18.9241 110.026 19.3969C110.361 19.6728 110.755 19.8402 111.208 19.8993C111.661 19.9584 112.124 19.9683 112.597 19.9289C113.089 19.8895 113.562 19.8304 114.015 19.7516C114.488 19.6531 114.921 19.6038 115.315 19.6038C116.143 19.4068 116.852 19.1507 117.443 18.8355C118.034 18.5006 118.655 18.1657 119.305 17.8308Z" fill="#CC202B"/>
<path d="M120.219 13.7531C120.258 13.9107 120.288 14.0585 120.307 14.1964C120.327 14.3343 120.357 14.482 120.396 14.6396C120.317 14.8366 120.248 15.0336 120.189 15.2306C120.13 15.408 120.071 15.5853 120.012 15.7626C119.953 15.9005 119.913 15.9891 119.894 16.0285C119.874 16.0679 119.864 16.0975 119.864 16.1172C119.864 16.1369 119.864 16.1664 119.864 16.2058C119.884 16.2255 119.894 16.3043 119.894 16.4423L119.775 16.7968C119.677 16.9347 119.559 17.0431 119.421 17.1219C119.283 17.2007 119.145 17.2696 119.007 17.3288C118.968 17.3682 118.909 17.3977 118.83 17.4174C118.751 17.4568 118.692 17.4962 118.653 17.5356L118.564 17.8902L118.18 17.9493C117.845 18.0281 117.559 18.0675 117.323 18.0675H116.968C116.732 17.8508 116.545 17.6834 116.407 17.5652C116.269 17.447 116.121 17.3386 115.963 17.2401C115.766 16.9643 115.658 16.7673 115.638 16.6491C115.619 16.5112 115.589 16.3831 115.55 16.2649C115.51 16.0088 115.461 15.8414 115.402 15.7626L114.988 15.3489L115.343 15.0829L115.018 14.5214C115.254 14.3441 115.432 14.2161 115.55 14.1373C115.668 14.0585 115.766 13.9797 115.845 13.9009C115.924 13.8024 116.013 13.6842 116.111 13.5463C116.21 13.4083 116.367 13.1818 116.584 12.8666L116.85 12.4824L117.234 12.6893C117.313 12.7484 117.48 12.8075 117.737 12.8666C118.012 12.906 118.249 12.9454 118.446 12.9848C118.781 13.0833 119.096 13.1621 119.391 13.2212C119.687 13.2606 119.923 13.3591 120.101 13.5167L120.219 13.7531Z" fill="#00529F"/>
</g>
<defs>
<clipPath id="clip0_2944_6535">
<rect width="160" height="26.4775" fill="white"/>
</clipPath>
</defs>
</svg>
