<svg width="440" height="73" viewBox="0 0 440 73" fill="none" xmlns="http://www.w3.org/2000/svg">
<g clip-path="url(#clip0_2942_6528)">
<path d="M10.3369 48.6966C8.71159 47.7756 7.46553 46.4754 6.5987 44.7959C5.73188 43.1164 5.24429 41.5182 5.13593 40.0013C5.29846 38.701 5.65061 37.6988 6.19238 36.9945C6.67997 36.236 7.27591 35.6401 7.9802 35.2067C8.6845 34.7191 9.41588 34.3669 10.1744 34.1502C10.9328 33.8793 11.6642 33.6626 12.3685 33.5001L13.5875 33.9064C13.8584 34.1773 14.1292 34.4211 14.4001 34.6378C14.7252 34.8545 15.0231 35.0712 15.294 35.2879C15.8358 35.0712 16.1609 34.7462 16.2692 34.3127C16.4317 33.8793 16.5943 33.4459 16.7568 33.0125C16.9193 32.4166 17.1089 31.8206 17.3257 31.2247C17.5424 30.6287 17.8132 30.0328 18.1383 29.4369C18.0841 28.9493 18.1112 28.5159 18.2196 28.1366C18.3279 27.7574 18.4363 27.4323 18.5446 27.1614C18.2196 26.8906 17.9758 26.7551 17.8132 26.7551C17.7049 26.7009 17.4882 26.6197 17.1631 26.5113C17.0006 26.5113 16.8381 26.5113 16.6755 26.5113C16.513 26.4571 16.3234 26.403 16.1067 26.3488C15.294 25.7529 14.7523 25.2653 14.4814 24.886C14.2647 24.4526 14.0209 24.0192 13.75 23.5858C13.4791 23.1524 13.2353 22.7731 13.0186 22.4481C12.8019 22.123 12.5581 21.8251 12.2872 21.5542L11.3121 20.9041L11.7996 19.9289C11.908 19.8205 11.9622 19.6851 11.9622 19.5226C11.9622 19.3058 11.8538 19.0079 11.6371 18.6286C11.4746 17.9243 11.4475 17.4097 11.5559 17.0846L11.7184 16.1094C12.2601 15.4051 12.5581 14.9988 12.6123 14.8905L13.4249 14.0778C14.671 13.7528 15.9442 13.4006 17.2444 13.0214C18.5446 12.588 19.8178 12.1545 21.0638 11.7211C22.3099 11.2877 23.583 10.8543 24.8833 10.4209C26.1835 9.98749 27.4837 9.60825 28.784 9.28319C29.2174 8.90396 29.6779 8.68725 30.1655 8.63307C30.7073 8.52472 31.1948 8.44346 31.6283 8.38928C32.0075 8.38928 32.3596 8.36219 32.6847 8.30801C33.0098 8.25384 33.2535 8.1184 33.4161 7.90169C34.3371 7.57663 35.231 7.30575 36.0978 7.08904C37.7231 6.65563 39.8631 6.14095 42.5177 5.54501C45.1724 4.94907 48.1521 4.51566 51.4569 4.24478L53.1634 4.16351C53.4885 4.21769 53.8135 4.24478 54.1386 4.24478C54.4637 4.1906 54.7887 4.16351 55.1138 4.16351C57.931 4.16351 59.8 5.03033 60.721 6.76398C61.2628 7.03487 61.7504 7.38701 62.1838 7.82043C62.6172 8.19966 63.0235 8.5789 63.4028 8.95813C63.6737 9.22901 63.9175 9.47281 64.1342 9.68952C64.3509 9.85204 64.5405 9.98749 64.703 10.0958L65.3531 10.746C65.9491 12.0462 66.0574 13.3193 65.6782 14.5654C65.3531 15.2155 65.001 15.5948 64.6218 15.7031C64.2425 15.8115 63.8633 15.9198 63.484 16.0282L62.4276 16.597C61.7233 16.5428 61.1815 16.5158 60.8023 16.5158C60.4772 16.5158 60.098 16.5158 59.6646 16.5158C58.0393 16.5158 56.1431 16.6241 53.9761 16.8408C51.8632 17.0033 49.6961 17.2742 47.4749 17.6535C45.2536 17.9785 43.0866 18.4119 40.9737 18.9537C38.8608 19.4413 37.0188 19.9831 35.4477 20.579C35.0143 20.9041 34.4454 21.202 33.7411 21.4729C33.5786 21.5271 33.3348 21.6625 33.0098 21.8792C33.0639 22.3126 33.0639 22.7461 33.0098 23.1795C32.9556 23.5587 32.8743 23.9379 32.766 24.3172C32.7118 24.5881 32.6576 24.886 32.6034 25.2111C32.6034 25.482 32.5763 25.7799 32.5222 26.105C31.3845 27.4594 30.8427 29.0576 30.8969 30.8996L30.4905 31.7123C30.2738 31.929 30.0842 32.254 29.9217 32.6874C29.8133 33.0667 29.8133 33.473 29.9217 33.9064L30.2468 34.8816C31.3303 34.7732 32.3867 34.6649 33.4161 34.5565C34.4996 34.394 35.6373 34.2315 36.8292 34.0689C38.3461 33.7981 39.8631 33.5814 41.38 33.4188C42.9511 33.2021 44.5764 33.0938 46.2559 33.0938H49.4252L48.6939 33.8252L49.5878 33.9064L49.1002 35.2067C49.4794 35.3692 49.7503 35.5046 49.9128 35.613C50.1295 35.6672 50.3192 35.7484 50.4817 35.8568L51.0505 36.6694C51.3214 36.832 51.5652 37.1028 51.7819 37.4821C51.9986 37.8071 52.1341 38.2676 52.1882 38.8636L51.9444 39.6762L48.125 44.5521L47.6374 45.2022L46.8248 44.9584C45.7954 44.9043 44.8202 45.0126 43.8992 45.2835C43.4658 45.3918 43.0053 45.5273 42.5177 45.6898C42.0301 45.7982 41.5426 45.8523 41.055 45.8523C39.7547 46.069 38.6712 46.2587 37.8044 46.4212C36.9376 46.5295 36.0707 46.6379 35.2039 46.7463C34.012 46.963 32.8472 47.1797 31.7095 47.3964C30.626 47.5589 29.5966 47.8298 28.6215 48.209C28.0255 48.2632 27.6734 48.2903 27.565 48.2903C27.4567 48.2361 27.3483 48.209 27.24 48.209C26.6982 48.209 26.1564 48.2903 25.6147 48.4528C25.0729 48.6153 24.5582 48.7779 24.0706 48.9404C23.7456 49.2113 23.5289 49.5093 23.4205 49.8343C23.3122 50.1052 23.2038 50.4032 23.0955 50.7282C22.9871 51.1075 22.8246 51.4867 22.6079 51.8659C22.4453 52.191 22.2286 52.5431 21.9577 52.9224L22.039 54.3851C21.5514 54.4935 21.3076 54.5748 21.3076 54.6289C21.3076 54.6289 21.2805 54.6289 21.2264 54.6289C21.2264 55.0624 21.1451 55.4687 20.9826 55.8479C20.8742 56.2271 20.7659 56.5793 20.6575 56.9044C20.5492 57.1211 20.4679 57.3107 20.4137 57.4732C20.3595 57.6357 20.3324 57.7983 20.3324 57.9608C20.8742 58.936 21.0097 60.0466 20.7388 61.2926C20.5221 62.322 20.1157 63.243 19.5198 64.0557C18.9239 64.8141 18.2196 65.4101 17.4069 65.8435C16.5401 65.9518 15.89 65.9247 15.4566 65.7622C15.0773 65.5997 14.671 65.4372 14.2376 65.2746C13.9667 65.1663 13.6958 65.085 13.4249 65.0308C13.1541 64.9225 12.8832 64.8412 12.6123 64.787L11.6371 63.9744C11.4746 63.6493 11.285 63.3514 11.0683 63.0805C10.8516 62.7554 10.6349 62.4304 10.4181 62.1053C10.1473 61.7261 9.87638 61.3468 9.6055 60.9676C9.33462 60.5884 9.09082 60.1549 8.87411 59.6674C8.49488 57.7712 8.41361 56.2001 8.63032 54.954C8.9012 53.6538 9.25335 52.3806 9.68676 51.1346C9.79512 50.7011 9.90347 50.2948 10.0118 49.9156C10.1202 49.5363 10.2285 49.13 10.3369 48.6966ZM90.1592 46.9088C90.1186 47.3964 90.1592 47.8636 90.2811 48.3106C90.403 48.7576 90.5452 49.2045 90.7077 49.6515C90.9109 50.0578 91.0938 50.4844 91.2563 50.9314C91.4188 51.3783 91.5407 51.8253 91.622 52.2723C91.7032 52.8411 91.7032 53.4709 91.622 54.1617C91.5407 54.8118 91.3985 55.4619 91.1953 56.112C90.9922 56.7215 90.7281 57.2904 90.403 57.8186C90.0779 58.3062 89.6919 58.6719 89.245 58.9157C88.6761 59.647 87.9854 60.2159 87.1727 60.6222C86.3601 61.0285 85.6084 61.5161 84.9176 62.085C84.4707 62.3694 83.9628 62.5726 83.3939 62.6945C82.8657 62.8164 82.3172 62.9383 81.7483 63.0602C81.3014 63.304 80.7731 63.5681 80.1636 63.8525C79.5542 64.0963 78.9244 64.3401 78.2742 64.5839C77.6241 64.787 76.974 64.9496 76.3239 65.0715C75.6738 65.1527 75.1049 65.173 74.6173 65.1324C73.3984 65.5794 72.1997 65.8638 71.0214 65.9857C69.8836 66.1482 68.5428 66.067 66.9987 65.7419C65.536 65.9451 64.1748 65.8841 62.9152 65.5591C61.6962 65.234 60.5991 64.7261 59.624 64.0353C58.6894 63.304 57.8565 62.4507 57.1251 61.4755C56.4343 60.4597 55.8655 59.4032 55.4185 58.3062C55.0935 55.9901 55.1747 53.8976 55.6623 52.0285C56.1499 50.1187 56.8407 48.3716 57.7346 46.7869C58.6691 45.1616 59.7256 43.6785 60.9039 42.3376C62.0822 40.9561 63.2199 39.6153 64.317 38.315C64.5608 38.3963 64.7437 38.3963 64.8655 38.315C65.0281 38.1931 65.1703 38.0509 65.2922 37.8884C65.4141 37.6852 65.536 37.5024 65.6579 37.3399C65.8204 37.1773 66.0033 37.0757 66.2064 37.0351C66.4908 36.4256 66.8972 35.9787 67.4254 35.6942C67.9942 35.3692 68.4412 34.9222 68.7663 34.3534C69.1319 34.2721 69.4367 34.1502 69.6805 33.9877C69.9243 33.8252 70.1478 33.6423 70.3509 33.4391C70.5947 33.236 70.8385 33.0531 71.0823 32.8906C71.3261 32.6874 71.6105 32.5452 71.9356 32.464V31.7935C72.667 31.4685 73.1952 31.1028 73.5202 30.6965C73.8859 30.2495 74.3126 29.7213 74.8002 29.1118C75.1659 29.0712 75.4503 29.0508 75.6534 29.0508C75.8972 29.0508 76.2426 29.0102 76.6896 28.929C77.0146 28.3601 77.2991 27.9335 77.5429 27.649C77.8273 27.3646 78.2336 27.0599 78.7618 26.7348C79.2494 26.9786 79.7776 27.1411 80.3465 27.2224C80.956 27.3037 81.4842 27.5678 81.9312 28.0147C81.9718 28.421 82.0937 28.7461 82.2968 28.9899C82.5 29.1931 82.7235 29.3962 82.9673 29.5994C83.2111 29.7619 83.4346 29.9448 83.6377 30.1479C83.8815 30.3511 84.044 30.6355 84.1253 31.0012C84.2878 31.0418 84.3894 31.0215 84.43 30.9403C84.5113 30.859 84.6332 30.8387 84.7957 30.8793C84.9176 31.4482 85.0598 31.8342 85.2224 32.0373C85.3849 32.1999 85.5474 32.5452 85.71 33.0735C85.5068 33.4798 85.3443 33.9064 85.2224 34.3534C85.1411 34.7597 84.8973 35.0644 84.491 35.2676C84.4504 35.552 84.5316 35.7146 84.7348 35.7552C84.9379 35.7552 85.0598 35.8568 85.1005 36.0599C85.1411 36.4256 85.0802 36.6897 84.9176 36.8523C85.8928 38.4369 86.7664 40.1232 87.5384 41.911C88.3104 43.6582 89.184 45.3241 90.1592 46.9088ZM82.5406 52.6989C82.7032 52.2519 82.9063 51.8863 83.1501 51.6018C83.4346 51.3174 83.5971 50.8908 83.6377 50.3219C83.4346 49.9968 83.3127 49.7531 83.272 49.5905C83.2314 49.3874 83.2111 49.0826 83.2111 48.6763C82.3172 47.4167 81.5451 46.0758 80.895 44.6537C80.2449 43.1909 79.5135 41.8297 78.7009 40.5701C78.6196 40.7327 78.4774 40.8952 78.2742 41.0577C78.0711 41.2202 77.8476 41.1796 77.6038 40.9358C77.5225 41.2609 77.3803 41.5047 77.1772 41.6672C76.974 41.7891 76.7505 41.8501 76.5067 41.8501C76.2629 41.8094 75.9988 41.7485 75.7144 41.6672C75.4706 41.5453 75.2471 41.4031 75.044 41.2406C73.8656 42.1751 72.6873 43.0893 71.5089 43.9833C70.3306 44.8772 69.2742 45.9133 68.3396 47.0916C68.1771 47.1729 68.0755 47.2135 68.0349 47.2135C67.9942 47.1729 67.8723 47.1932 67.6692 47.2745C67.3441 48.0465 66.9378 48.7576 66.4502 49.4077C66.0033 50.0172 65.5563 50.647 65.1093 51.2971C64.6624 51.9472 64.2764 52.638 63.9513 53.3693C63.6263 54.1007 63.4434 54.954 63.4028 55.9292C64.0935 56.498 64.9062 56.8434 65.8407 56.9653C66.7753 57.0872 67.7301 57.1075 68.7053 57.0262C69.7211 56.945 70.6963 56.8231 71.6308 56.6606C72.606 56.4574 73.4999 56.3558 74.3126 56.3558C76.0191 55.9495 77.4819 55.4213 78.7009 54.7712C79.9198 54.0804 81.1998 53.3897 82.5406 52.6989ZM106.961 56.7418C106.365 58.9089 105.823 60.5613 105.335 61.699C104.902 62.7825 104.225 63.9202 103.304 65.1121C102.599 65.0037 102.112 65.085 101.841 65.3559C101.57 65.6268 101.272 65.8706 100.947 66.0873C100.46 66.1956 100.107 66.1956 99.8907 66.0873C99.674 65.9789 99.4843 65.8435 99.3218 65.6809C99.1593 65.5726 98.9426 65.4372 98.6717 65.2746C98.455 65.1663 98.1028 65.1121 97.6153 65.1121C97.5069 64.6787 97.3715 64.2724 97.2089 63.8931C97.1006 63.5139 96.7484 63.3784 96.1525 63.4868C96.2608 63.0534 96.2879 62.7012 96.2338 62.4304C96.1796 62.1053 96.0983 61.8344 95.99 61.6177C95.9358 61.3468 95.8816 61.103 95.8274 60.8863C95.7733 60.6154 95.8003 60.2904 95.9087 59.9111C95.6378 59.9111 95.4211 59.7215 95.2586 59.3423C95.096 58.9631 94.9064 58.5838 94.6897 58.2046C94.8523 57.2294 95.0148 56.3084 95.1773 55.4416C95.3398 54.5748 95.5295 53.7621 95.7462 53.0036C96.017 52.2452 96.2338 51.4867 96.3963 50.7282C96.5588 49.9698 96.4775 49.1842 96.1525 48.3716C96.3692 48.5341 96.5317 48.507 96.6401 48.2903C96.7484 48.0194 96.8297 47.6943 96.8839 47.3151C96.938 46.8817 96.9651 46.4754 96.9651 46.0961C96.9651 45.6627 96.938 45.3106 96.8839 45.0397C97.4256 43.6311 97.859 42.1954 98.1841 40.7327C98.5633 39.2157 98.8884 37.7259 99.1593 36.2631C99.4843 34.8003 99.8094 33.3647 100.134 31.9561C100.46 30.5475 100.893 29.2472 101.435 28.0554C102.031 27.947 102.681 28.0283 103.385 28.2991C104.144 28.5159 104.604 28.8138 104.767 29.1931C106.175 28.1095 107.421 26.8093 108.505 25.2924C109.588 23.7212 110.699 22.2043 111.837 20.7415C112.974 19.2788 114.22 17.9785 115.575 16.8408C116.983 15.7031 118.744 15.0259 120.857 14.8092C121.941 15.6218 123.132 16.4616 124.433 17.3284C125.787 18.1411 126.898 19.2246 127.764 20.579C128.198 20.7957 128.55 21.0395 128.821 21.3104C129.146 21.5271 129.525 21.7709 129.959 22.0418V23.0169C130.609 23.6129 131.123 24.3172 131.503 25.1298C131.936 25.8883 132.315 26.728 132.64 27.649C132.965 28.5159 133.29 29.4098 133.616 30.3308C133.941 31.1976 134.32 32.0373 134.753 32.85C134.645 33.1209 134.591 33.3647 134.591 33.5814C134.591 33.7439 134.618 33.9335 134.672 34.1502C134.78 34.3669 134.862 34.5836 134.916 34.8003C134.97 35.017 134.97 35.315 134.916 35.6942C134.753 38.078 133.968 40.0013 132.559 41.464C131.205 42.9268 129.552 44.1458 127.602 45.121C125.652 46.042 123.566 46.8275 121.345 47.4776C119.123 48.1278 117.119 48.8321 115.331 49.5905C115.331 49.8072 115.412 49.9156 115.575 49.9156C115.791 49.9156 115.873 50.051 115.819 50.3219C117.119 51.1346 118.148 51.7847 118.907 52.2723C119.665 52.7598 120.369 53.1662 121.02 53.4912C121.724 53.8163 122.455 54.1143 123.214 54.3851C124.026 54.6018 125.137 54.8727 126.546 55.1978C127.954 55.5229 129.038 55.7937 129.796 56.0104C130.609 56.173 131.34 56.3355 131.99 56.498C132.64 56.6064 133.29 56.7147 133.941 56.8231C134.645 56.8773 135.62 56.9585 136.866 57.0669C137.354 57.5545 137.76 58.1504 138.085 58.8547C138.464 59.5048 138.708 60.182 138.816 60.8863C138.925 61.5364 138.952 62.1866 138.898 62.8367C138.844 63.4326 138.654 63.9202 138.329 64.2994C138.383 64.462 138.491 64.5432 138.654 64.5432C138.871 64.4891 139.087 64.4891 139.304 64.5432C138.979 64.7599 138.708 65.0308 138.491 65.3559C138.275 65.6809 138.058 66.006 137.841 66.3311C137.625 66.6561 137.381 66.927 137.11 67.1437C136.839 67.4146 136.46 67.5771 135.972 67.6313C134.293 68.2814 132.18 68.3085 129.634 67.7126C127.087 67.1708 123.864 66.1414 119.963 64.6245C118.013 63.866 116.415 63.2159 115.168 62.6742C113.977 62.0782 112.92 61.5094 111.999 60.9676C111.132 60.3716 110.32 59.7486 109.561 59.0985C108.857 58.4484 107.99 57.6628 106.961 56.7418ZM118.582 28.868C117.986 29.7348 117.308 30.5204 116.55 31.2247C115.846 31.929 115.141 32.6604 114.437 33.4188C113.787 34.1231 113.191 34.9358 112.649 35.8568C112.107 36.7236 111.728 37.753 111.512 38.9448C113.408 38.7281 115.385 38.2135 117.444 37.4008C119.503 36.534 121.453 35.7213 123.295 34.9629C123.078 33.2834 122.482 31.929 121.507 30.8996C120.586 29.8703 119.611 29.1931 118.582 28.868ZM195.133 63.7306C194.591 64.0015 194.077 64.2453 193.589 64.462C193.156 64.6787 192.641 64.787 192.045 64.787C189.932 63.2159 188.821 60.48 188.713 56.5793C188.659 52.6786 189.499 47.7214 191.232 41.7078C191.503 41.5453 191.639 41.2202 191.639 40.7327L190.907 39.92C190.691 39.92 190.474 39.9471 190.257 40.0013C190.095 40.0555 189.959 40.2451 189.851 40.5701C188.442 41.5995 186.898 42.683 185.219 43.8207C183.539 44.9043 181.778 45.9336 179.936 46.9088C178.149 47.8298 176.307 48.5883 174.41 49.1842C172.568 49.7801 170.754 50.0781 168.966 50.0781C164.415 50.0781 161.002 47.7756 158.726 43.1706L158.076 41.9516L157.426 43.0081C157.264 43.2248 157.02 43.6853 156.695 44.3896C156.37 45.0397 156.045 45.7982 155.72 46.665C155.395 47.5318 155.097 48.4257 154.826 49.3467C154.609 50.2136 154.528 50.972 154.582 51.6221C154.094 52.1097 153.58 52.6786 153.038 53.3287C152.496 53.9788 152.09 54.7102 151.819 55.5229C151.711 55.9563 151.765 56.3626 151.981 56.7418C151.873 57.2294 151.629 57.6086 151.25 57.8795C151.033 58.1504 150.79 58.4213 150.519 58.6922C150.302 58.9089 150.112 59.1527 149.95 59.4236C149.841 59.6944 149.76 59.9653 149.706 60.2362C149.706 60.5071 149.679 60.778 149.625 61.0489C149.625 61.4281 149.571 61.7802 149.462 62.1053C148.541 64.0015 147.81 65.2204 147.268 65.7622C146.726 66.3582 145.995 66.6561 145.074 66.6561C144.64 66.6561 143.936 66.5749 142.961 66.4123C142.257 65.6539 141.607 64.6245 141.011 63.3243C140.469 61.9699 140.035 60.5342 139.71 59.0172C139.44 57.5003 139.304 55.9834 139.304 54.4664C139.358 52.8953 139.629 51.5409 140.117 50.4032C140.117 50.349 140.333 49.8072 140.767 48.7779C141.2 47.7485 141.742 46.4212 142.392 44.7959C143.096 43.1706 143.882 41.3828 144.749 39.4324C145.616 37.4279 146.482 35.5046 147.349 33.6626C148.216 31.7664 149.029 30.0328 149.787 28.4617C150.6 26.8906 151.277 25.6987 151.819 24.886C152.252 24.2359 152.632 23.64 152.957 23.0982C153.336 22.5023 153.688 21.9334 154.013 21.3916C154.988 19.7122 155.909 18.3307 156.776 17.2471C157.697 16.1094 159.024 15.2155 160.758 14.5654C161.95 15.053 162.817 15.6218 163.358 16.272L163.521 17.1659C163.738 17.7076 164.063 17.9785 164.496 17.9785C165.092 18.1411 165.58 18.3036 165.959 18.4661C166.392 18.5745 166.853 18.6828 167.34 18.7912C167.72 19.2246 168.072 19.7393 168.397 20.3352C168.83 20.9853 169.237 21.6354 169.616 22.2856C170.049 22.8815 170.374 23.5045 170.591 24.1546C170.862 24.7506 170.997 25.3736 170.997 26.0237C171.052 26.6739 170.943 27.3511 170.672 28.0554L170.754 28.868C171.024 29.3556 171.079 30.0328 170.916 30.8996C170.862 31.2789 170.835 31.6852 170.835 32.1186C170.835 32.4978 170.889 32.9312 170.997 33.4188C171.973 34.1773 172.839 34.5565 173.598 34.5565C174.465 34.5565 175.25 34.3669 175.955 33.9877C176.713 33.5543 177.417 33.1209 178.067 32.6874C178.501 32.3624 178.934 32.0915 179.368 31.8748C179.801 31.6039 180.234 31.4414 180.668 31.3872C181.643 30.4662 182.51 29.6536 183.268 28.9493C184.081 28.245 184.921 27.5407 185.788 26.8364C187.413 25.5361 188.984 24.1276 190.501 22.6106C192.018 21.0937 193.237 19.1975 194.158 16.9221C194.7 16.597 195.268 16.4345 195.864 16.4345C196.46 16.4345 197.083 16.5699 197.733 16.8408C198.384 17.1117 199.007 17.3826 199.603 17.6535C199.765 17.7618 199.901 17.8431 200.009 17.8973C200.171 17.9514 200.307 18.0056 200.415 18.0598C200.415 18.6016 200.632 19.0621 201.065 19.4413C201.282 19.6038 201.417 19.7122 201.472 19.7663C201.526 19.8205 201.607 19.8747 201.715 19.9289C202.528 20.3623 203.043 20.7957 203.259 21.2291C203.639 22.4752 204.316 23.4233 205.291 24.0734C205.183 24.6151 205.183 25.1298 205.291 25.6174C205.454 26.0508 205.643 26.5113 205.86 26.9989C205.914 27.1614 205.968 27.324 206.022 27.4865C206.077 27.649 206.158 27.8386 206.266 28.0554L204.722 27.8928L204.966 29.4369C205.074 30.1953 204.993 31.0351 204.722 31.9561C204.506 32.8771 204.235 33.6084 203.91 34.1502C203.964 35.5588 203.991 36.6694 203.991 37.4821C204.045 38.2405 204.018 38.9719 203.91 39.6762C203.801 40.3263 203.639 40.9494 203.422 41.5453C203.259 42.1413 203.016 42.7914 202.691 43.4957C202.907 46.963 202.501 50.1323 201.472 53.0036C200.496 55.8208 199.467 58.4755 198.384 60.9676C198.275 61.2385 198.14 61.5094 197.977 61.7802C197.869 62.0511 197.761 62.322 197.652 62.5929C197.165 62.7554 196.731 62.945 196.352 63.1617C195.973 63.3243 195.566 63.5139 195.133 63.7306ZM242.206 46.9088C242.165 47.3964 242.206 47.8636 242.328 48.3106C242.449 48.7576 242.592 49.2045 242.754 49.6515C242.957 50.0578 243.14 50.4844 243.303 50.9314C243.465 51.3783 243.587 51.8253 243.668 52.2723C243.75 52.8411 243.75 53.4709 243.668 54.1617C243.587 54.8118 243.445 55.4619 243.242 56.112C243.039 56.7215 242.774 57.2904 242.449 57.8186C242.124 58.3062 241.738 58.6719 241.291 58.9157C240.723 59.647 240.032 60.2159 239.219 60.6222C238.406 61.0285 237.655 61.5161 236.964 62.085C236.517 62.3694 236.009 62.5726 235.44 62.6945C234.912 62.8164 234.364 62.9383 233.795 63.0602C233.348 63.304 232.82 63.5681 232.21 63.8525C231.601 64.0963 230.971 64.3401 230.321 64.5839C229.671 64.787 229.02 64.9496 228.37 65.0715C227.72 65.1527 227.151 65.173 226.664 65.1324C225.445 65.5794 224.246 65.8638 223.068 65.9857C221.93 66.1482 220.589 66.067 219.045 65.7419C217.582 65.9451 216.221 65.8841 214.962 65.5591C213.743 65.234 212.646 64.7261 211.67 64.0353C210.736 63.304 209.903 62.4507 209.171 61.4755C208.481 60.4597 207.912 59.4032 207.465 58.3062C207.14 55.9901 207.221 53.8976 207.709 52.0285C208.196 50.1187 208.887 48.3716 209.781 46.7869C210.716 45.1616 211.772 43.6785 212.95 42.3376C214.129 40.9561 215.266 39.6153 216.363 38.315C216.607 38.3963 216.79 38.3963 216.912 38.315C217.074 38.1931 217.217 38.0509 217.339 37.8884C217.46 37.6852 217.582 37.5024 217.704 37.3399C217.867 37.1773 218.05 37.0757 218.253 37.0351C218.537 36.4256 218.944 35.9787 219.472 35.6942C220.041 35.3692 220.488 34.9222 220.813 34.3534C221.178 34.2721 221.483 34.1502 221.727 33.9877C221.971 33.8252 222.194 33.6423 222.397 33.4391C222.641 33.236 222.885 33.0531 223.129 32.8906C223.373 32.6874 223.657 32.5452 223.982 32.464V31.7935C224.713 31.4685 225.242 31.1028 225.567 30.6965C225.932 30.2495 226.359 29.7213 226.847 29.1118C227.212 29.0712 227.497 29.0508 227.7 29.0508C227.944 29.0508 228.289 29.0102 228.736 28.929C229.061 28.3601 229.345 27.9335 229.589 27.649C229.874 27.3646 230.28 27.0599 230.808 26.7348C231.296 26.9786 231.824 27.1411 232.393 27.2224C233.002 27.3037 233.531 27.5678 233.978 28.0147C234.018 28.421 234.14 28.7461 234.343 28.9899C234.546 29.1931 234.77 29.3962 235.014 29.5994C235.257 29.7619 235.481 29.9448 235.684 30.1479C235.928 30.3511 236.09 30.6355 236.172 31.0012C236.334 31.0418 236.436 31.0215 236.476 30.9403C236.558 30.859 236.68 30.8387 236.842 30.8793C236.964 31.4482 237.106 31.8342 237.269 32.0373C237.431 32.1999 237.594 32.5452 237.756 33.0735C237.553 33.4798 237.391 33.9064 237.269 34.3534C237.188 34.7597 236.944 35.0644 236.537 35.2676C236.497 35.552 236.578 35.7146 236.781 35.7552C236.984 35.7552 237.106 35.8568 237.147 36.0599C237.188 36.4256 237.127 36.6897 236.964 36.8523C237.939 38.4369 238.813 40.1232 239.585 41.911C240.357 43.6582 241.23 45.3241 242.206 46.9088ZM234.587 52.6989C234.75 52.2519 234.953 51.8863 235.197 51.6018C235.481 51.3174 235.643 50.8908 235.684 50.3219C235.481 49.9968 235.359 49.7531 235.318 49.5905C235.278 49.3874 235.257 49.0826 235.257 48.6763C234.364 47.4167 233.592 46.0758 232.941 44.6537C232.291 43.1909 231.56 41.8297 230.747 40.5701C230.666 40.7327 230.524 40.8952 230.321 41.0577C230.117 41.2202 229.894 41.1796 229.65 40.9358C229.569 41.2609 229.427 41.5047 229.224 41.6672C229.02 41.7891 228.797 41.8501 228.553 41.8501C228.309 41.8094 228.045 41.7485 227.761 41.6672C227.517 41.5453 227.294 41.4031 227.09 41.2406C225.912 42.1751 224.734 43.0893 223.555 43.9833C222.377 44.8772 221.321 45.9133 220.386 47.0916C220.223 47.1729 220.122 47.2135 220.081 47.2135C220.041 47.1729 219.919 47.1932 219.716 47.2745C219.391 48.0465 218.984 48.7576 218.497 49.4077C218.05 50.0172 217.603 50.647 217.156 51.2971C216.709 51.9472 216.323 52.638 215.998 53.3693C215.673 54.1007 215.49 54.954 215.449 55.9292C216.14 56.498 216.953 56.8434 217.887 56.9653C218.822 57.0872 219.777 57.1075 220.752 57.0262C221.768 56.945 222.743 56.8231 223.677 56.6606C224.652 56.4574 225.546 56.3558 226.359 56.3558C228.066 55.9495 229.528 55.4213 230.747 54.7712C231.966 54.0804 233.246 53.3897 234.587 52.6989ZM246.98 28.5429C247.142 27.7303 247.251 27.0802 247.305 26.5926C247.359 26.0508 247.17 25.482 246.736 24.886C246.953 24.0192 247.115 23.342 247.224 22.8544C247.386 22.3668 247.413 21.6896 247.305 20.8228C247.793 19.4142 248.524 18.2223 249.499 17.2471C250.528 16.272 251.639 15.4593 252.831 14.8092C254.023 14.1049 255.269 13.536 256.569 13.1026C257.869 12.615 259.088 12.2087 260.226 11.8837C260.226 11.667 260.118 11.5586 259.901 11.5586C259.684 11.5586 259.63 11.4232 259.738 11.1523C262.664 10.6105 265.59 9.82496 268.515 8.7956C271.495 7.76625 274.529 6.84525 277.617 6.0326C280.705 5.21995 283.874 4.73236 287.125 4.56983C290.375 4.35313 293.788 4.75945 297.364 5.78881C297.581 6.43892 297.879 7.06195 298.258 7.6579C298.637 8.25384 299.016 8.84978 299.396 9.44572C299.829 9.98749 300.208 10.5293 300.533 11.071C300.858 11.6128 301.048 12.1816 301.102 12.7776C301.752 13.3735 302.267 14.0236 302.646 14.7279C303.08 15.378 303.161 16.272 302.89 17.4097C302.294 17.8431 301.671 18.2765 301.021 18.7099C300.371 19.1433 299.694 19.5496 298.989 19.9289C296.551 19.3329 294.113 19.1162 291.676 19.2788C289.238 19.4413 287.043 19.6309 285.093 19.8476C284.497 19.1975 283.793 18.8995 282.98 18.9537C282.168 18.9537 281.301 19.0891 280.38 19.36C279.513 19.5767 278.646 19.8205 277.779 20.0914C276.912 20.3081 276.1 20.3623 275.341 20.2539C274.745 20.7957 273.96 21.1749 272.985 21.3916C272.009 21.5542 270.98 21.6896 269.897 21.798C269.842 22.0689 269.897 22.2585 270.059 22.3668C270.222 22.4752 270.249 22.6919 270.14 23.0169C270.52 23.5045 271.034 23.8567 271.684 24.0734C272.335 24.2359 272.985 24.3984 273.635 24.561C274.339 24.7235 274.962 24.9673 275.504 25.2924C276.046 25.5632 276.398 26.0237 276.56 26.6739C277.535 26.728 278.375 26.9989 279.08 27.4865C279.784 27.9199 280.38 28.4617 280.867 29.1118C281.355 29.7619 281.707 30.4662 281.924 31.2247C282.14 31.929 282.222 32.5791 282.168 33.175C282.384 33.7168 282.601 33.9335 282.818 33.8252C283.089 33.7168 283.387 33.8522 283.712 34.2315C283.928 35.0441 284.416 35.911 285.174 36.832C285.987 37.6988 286.61 38.6469 287.043 39.6762C287.152 41.3015 287.233 42.7643 287.287 44.0645C287.396 45.3648 287.179 46.6379 286.637 47.884C285.716 50.2677 284.389 52.4077 282.655 54.3039C280.922 56.2001 278.944 57.8795 276.723 59.3423C274.556 60.7509 272.253 61.9969 269.815 63.0805C267.377 64.1098 264.967 64.9767 262.583 65.6809C262.366 65.6268 262.095 65.6268 261.77 65.6809C261.499 65.7351 261.445 65.5726 261.608 65.1934C261.12 65.6268 260.551 65.8977 259.901 66.006C259.305 66.1144 258.628 66.1414 257.869 66.0873C257.165 66.0873 256.434 66.0602 255.675 66.006C254.971 65.9518 254.267 65.9789 253.562 66.0873C253.129 65.6539 252.723 65.2204 252.343 64.787C252.018 64.3536 251.747 63.8389 251.531 63.243C251.26 63.1888 251.124 63.0263 251.124 62.7554C251.179 62.4304 251.07 62.2678 250.799 62.2678C250.799 62.0511 250.826 61.8886 250.881 61.7802C250.935 61.6719 250.989 61.5635 251.043 61.4552C251.26 61.2926 251.341 61.1843 251.287 61.1301C251.287 61.0218 251.206 60.9405 251.043 60.8863C250.935 60.778 250.799 60.6696 250.637 60.5613C250.528 60.4529 250.501 60.3175 250.556 60.1549C250.826 59.6674 250.908 59.0985 250.799 58.4484C250.745 57.7441 250.691 57.0398 250.637 56.3355C250.583 55.6312 250.637 54.9811 250.799 54.3851C250.962 53.735 251.422 53.1933 252.181 52.7598C254.402 52.9766 256.488 52.8682 258.438 52.4348C260.443 52.0014 262.312 51.4054 264.046 50.647C265.833 49.8885 267.513 49.0758 269.084 48.209C270.709 47.288 272.28 46.4483 273.797 45.6898C273.96 45.148 274.204 44.6875 274.529 44.3083C274.908 43.9291 275.287 43.5769 275.666 43.2519C276.046 42.8726 276.398 42.4934 276.723 42.1142C277.048 41.6807 277.292 41.1661 277.454 40.5701C277.508 40.3534 277.508 40.1909 277.454 40.0825C277.4 39.9742 277.319 39.8929 277.21 39.8387C277.102 39.7304 276.994 39.622 276.885 39.5137C276.777 39.4053 276.723 39.2428 276.723 39.0261C276.56 38.9719 276.398 38.9177 276.235 38.8636C276.127 38.8094 276.019 38.7823 275.91 38.7823C274.502 38.078 273.012 37.4821 271.441 36.9945C269.869 36.5069 268.542 35.9651 267.459 35.3692C266.809 35.8026 266.158 35.911 265.508 35.6942C264.858 35.4775 264.073 35.2608 263.152 35.0441C260.876 34.9358 258.709 34.7191 256.65 34.394C254.646 34.0689 252.696 33.5001 250.799 32.6874C250.691 32.3624 250.556 32.0915 250.393 31.8748C250.231 31.6039 249.851 31.5227 249.255 31.631C248.876 31.0892 248.47 30.6017 248.036 30.1682C247.657 29.6807 247.305 29.1389 246.98 28.5429ZM339.622 40.8139C339.568 41.464 339.622 42.0871 339.784 42.683C339.947 43.279 340.136 43.8749 340.353 44.4708C340.624 45.0126 340.868 45.5815 341.085 46.1774C341.301 46.7733 341.464 47.3693 341.572 47.9652C341.68 48.7237 341.68 49.5634 341.572 50.4844C341.464 51.3513 341.274 52.2181 341.003 53.0849C340.732 53.8976 340.38 54.656 339.947 55.3603C339.513 56.0104 338.999 56.498 338.403 56.8231C337.644 57.7983 336.723 58.5567 335.64 59.0985C334.556 59.6403 333.554 60.2904 332.633 61.0489C332.037 61.4281 331.36 61.699 330.601 61.8615C329.897 62.024 329.166 62.1866 328.407 62.3491C327.811 62.6742 327.107 63.0263 326.294 63.4055C325.482 63.7306 324.642 64.0557 323.775 64.3807C322.908 64.6516 322.042 64.8683 321.175 65.0308C320.308 65.1392 319.549 65.1663 318.899 65.1121C317.274 65.708 315.676 66.0873 314.105 66.2498C312.588 66.4665 310.8 66.3582 308.741 65.9247C306.791 66.1956 304.976 66.1144 303.296 65.6809C301.671 65.2475 300.208 64.5703 298.908 63.6493C297.662 62.6742 296.551 61.5364 295.576 60.2362C294.655 58.8818 293.897 57.4732 293.301 56.0104C292.867 52.9224 292.976 50.1323 293.626 47.6402C294.276 45.0939 295.197 42.7643 296.389 40.6514C297.635 38.4843 299.044 36.5069 300.615 34.7191C302.186 32.8771 303.703 31.0892 305.166 29.3556C305.491 29.4639 305.734 29.4639 305.897 29.3556C306.114 29.1931 306.303 29.0034 306.466 28.7867C306.628 28.5159 306.791 28.2721 306.953 28.0554C307.17 27.8386 307.414 27.7032 307.685 27.649C308.064 26.8364 308.606 26.2404 309.31 25.8612C310.068 25.4278 310.664 24.8319 311.098 24.0734C311.585 23.965 311.992 23.8025 312.317 23.5858C312.642 23.3691 312.94 23.1253 313.211 22.8544C313.536 22.5835 313.861 22.3397 314.186 22.123C314.511 21.8521 314.89 21.6625 315.324 21.5542V20.6603C316.299 20.2268 317.003 19.7393 317.436 19.1975C317.924 18.6016 318.493 17.8973 319.143 17.0846C319.631 17.0304 320.01 17.0033 320.281 17.0033C320.606 17.0033 321.066 16.9492 321.662 16.8408C322.096 16.0823 322.475 15.5135 322.8 15.1343C323.179 14.755 323.721 14.3487 324.425 13.9153C325.075 14.2403 325.78 14.457 326.538 14.5654C327.351 14.6738 328.055 15.0259 328.651 15.6218C328.705 16.1636 328.868 16.597 329.139 16.9221C329.41 17.193 329.707 17.4638 330.033 17.7347C330.358 17.9514 330.656 18.1952 330.926 18.4661C331.252 18.737 331.468 19.1162 331.577 19.6038C331.793 19.658 331.929 19.6309 331.983 19.5226C332.091 19.4142 332.254 19.3871 332.47 19.4413C332.633 20.1998 332.823 20.7144 333.039 20.9853C333.256 21.202 333.473 21.6625 333.689 22.3668C333.419 22.9086 333.202 23.4774 333.039 24.0734C332.931 24.6151 332.606 25.0215 332.064 25.2924C332.01 25.6716 332.118 25.8883 332.389 25.9425C332.66 25.9425 332.823 26.0779 332.877 26.3488C332.931 26.8364 332.85 27.1885 332.633 27.4052C333.933 29.5181 335.098 31.7664 336.127 34.1502C337.157 36.4798 338.322 38.701 339.622 40.8139ZM329.464 48.5341C329.68 47.9381 329.951 47.4505 330.276 47.0713C330.656 46.6921 330.872 46.1232 330.926 45.3648C330.656 44.9313 330.493 44.6063 330.439 44.3896C330.385 44.1187 330.358 43.7124 330.358 43.1706C329.166 41.4911 328.136 39.7033 327.27 37.8071C326.403 35.8568 325.428 34.0419 324.344 32.3624C324.236 32.5791 324.046 32.7958 323.775 33.0125C323.504 33.2292 323.206 33.175 322.881 32.85C322.773 33.2834 322.583 33.6084 322.312 33.8252C322.042 33.9877 321.744 34.0689 321.418 34.0689C321.093 34.0148 320.741 33.9335 320.362 33.8252C320.037 33.6626 319.739 33.473 319.468 33.2563C317.897 34.5024 316.326 35.7213 314.755 36.9132C313.184 38.1051 311.775 39.4866 310.529 41.0577C310.312 41.1661 310.177 41.2202 310.123 41.2202C310.068 41.1661 309.906 41.1932 309.635 41.3015C309.202 42.3309 308.66 43.279 308.01 44.1458C307.414 44.9584 306.818 45.7982 306.222 46.665C305.626 47.5318 305.111 48.4528 304.678 49.428C304.245 50.4032 304.001 51.5409 303.947 52.8411C304.868 53.5996 305.951 54.0601 307.197 54.2226C308.443 54.3851 309.716 54.4122 311.017 54.3039C312.371 54.1955 313.671 54.033 314.917 53.8163C316.218 53.5454 317.409 53.41 318.493 53.41C320.768 52.8682 322.719 52.1639 324.344 51.2971C325.969 50.3761 327.676 49.4551 329.464 48.5341ZM390.9 18.9537C391.008 20.1456 391.198 21.1749 391.469 22.0418C391.74 22.9086 392.038 23.7483 392.363 24.561C392.633 25.3194 392.877 26.0779 393.094 26.8364C393.365 27.5407 393.554 28.4075 393.663 29.4369C393.229 30.8454 392.904 32.1457 392.688 33.3376C392.525 34.5294 392.336 35.7755 392.119 37.0757C391.252 38.9719 390.412 40.6514 389.6 42.1142C388.787 43.5769 388.137 44.8501 387.649 45.9336C387.378 46.2045 387.135 46.5295 386.918 46.9088C386.755 47.2338 386.566 47.586 386.349 47.9652C386.241 48.1278 386.105 48.3716 385.943 48.6966C385.78 49.0217 385.645 49.2384 385.536 49.3467L383.911 48.7779L383.586 50.8095L382.448 51.1346L381.636 52.1097C380.606 53.8976 379.523 55.4145 378.385 56.6606C377.247 57.8524 375.947 58.936 374.484 59.9111C373.076 60.8321 371.45 61.699 369.608 62.5116C367.821 63.3243 365.789 64.2182 363.514 65.1934C362.593 65.085 361.78 65.0308 361.076 65.0308C360.426 64.9767 359.803 64.9225 359.207 64.8683C358.177 64.8683 356.904 64.787 355.387 64.6245C355.225 64.1911 354.981 63.8931 354.656 63.7306C354.331 63.5681 354.033 63.4868 353.762 63.4868C352.841 63.0534 352.137 62.4304 351.649 61.6177C351.216 60.7509 350.782 59.8299 350.349 58.8547C350.078 58.2588 349.807 57.717 349.536 57.2294C349.265 56.6876 348.967 56.1459 348.642 55.6041L350.024 55.1978L348.236 53.2474C348.127 53.0849 347.992 52.9495 347.83 52.8411C347.667 52.6786 347.532 52.5161 347.423 52.3535L347.342 51.0533C347.179 47.3151 347.098 43.902 347.098 40.8139C347.152 37.6717 347.586 34.8816 348.398 32.4437V31.5497C348.561 30.3579 348.723 29.3827 348.886 28.6242C349.048 27.8116 349.184 27.0531 349.292 26.3488C349.455 25.1569 349.699 24.0463 350.024 23.0169C350.782 22.8544 351.351 22.5564 351.73 22.123C352.109 21.6354 352.435 21.202 352.705 20.8228C353.464 20.7686 353.979 20.877 354.249 21.1478C354.52 21.4187 354.791 21.8521 355.062 22.4481C355.333 22.9357 355.658 23.4774 356.037 24.0734C356.471 24.6693 357.094 25.1298 357.906 25.4549C358.015 25.8883 358.15 26.3488 358.313 26.8364C358.529 27.2698 358.746 27.7574 358.963 28.2991C359.396 29.2202 359.775 30.1953 360.1 31.2247C360.48 32.1999 360.696 33.1479 360.751 34.0689C360.209 35.0983 359.775 36.2902 359.45 37.6446C359.179 38.999 358.99 40.3805 358.882 41.7891C358.827 43.1435 358.854 44.4708 358.963 45.7711C359.125 47.0171 359.369 48.0736 359.694 48.9404L360.182 49.9968L361.563 49.8343C363.189 49.4009 364.651 48.9404 365.952 48.4528C367.306 47.911 368.552 47.288 369.69 46.5837C370.827 45.8794 371.911 45.0668 372.94 44.1458C373.97 43.1706 375.053 42.06 376.191 40.8139C377.329 39.5679 378.304 38.1593 379.116 36.5882C379.983 34.9629 380.688 33.2834 381.229 31.5497C381.825 29.8161 382.259 28.1095 382.53 26.4301C382.855 24.6964 383.071 23.0711 383.18 21.5542C384.101 21.2291 384.561 20.579 384.561 19.6038L384.399 18.7099C384.182 18.3848 384.182 18.0056 384.399 17.5722C384.724 16.5428 385.482 15.7573 386.674 15.2155C387.541 15.7573 388.299 16.3532 388.949 17.0033C389.654 17.6535 390.304 18.3036 390.9 18.9537ZM413.085 64.2994C411.568 64.787 409.916 65.2746 408.128 65.7622C406.34 66.2498 404.552 66.4936 402.765 66.4936C400.056 66.4936 397.916 65.8164 396.345 64.462C396.074 63.866 395.83 63.4597 395.613 63.243C395.451 63.0263 395.288 62.8096 395.126 62.5929C395.017 62.322 394.936 61.9699 394.882 61.5364C394.232 60.778 393.717 59.9111 393.338 58.936C392.959 57.9066 392.688 56.8773 392.525 55.8479C392.417 54.7644 392.39 53.6808 392.444 52.5973C392.552 51.5138 392.742 50.4844 393.013 49.5093C393.121 49.2926 393.175 49.0758 393.175 48.8591C393.229 48.6424 393.284 48.3986 393.338 48.1278C393.554 47.2609 393.771 46.4212 393.988 45.6085C394.259 44.7959 394.611 44.0916 395.044 43.4957C394.828 43.0081 394.828 42.4663 395.044 41.8704C395.261 41.2744 395.505 40.7327 395.776 40.2451C396.534 38.1864 397.157 36.4527 397.645 35.0441C398.187 33.5814 398.728 32.1457 399.27 30.7371C400.191 28.2991 401.058 25.8883 401.871 23.5045C402.683 21.1208 403.415 18.5474 404.065 15.7844C404.498 15.5135 404.823 15.3239 405.04 15.2155C405.365 15.1072 405.636 15.0259 405.853 14.9717C406.828 15.4593 407.965 15.9469 409.266 16.4345C410.566 16.8679 411.649 17.0846 412.516 17.0846C412.95 17.3555 413.221 17.5722 413.329 17.7347C413.437 17.8431 413.546 17.9514 413.654 18.0598C414.25 18.7641 414.765 19.4955 415.198 20.2539C415.631 20.9582 415.767 21.9063 415.604 23.0982C415.279 23.5858 415.035 23.8296 414.873 23.8296C414.602 24.9131 414.304 25.8341 413.979 26.5926C413.708 27.3511 413.41 28.1095 413.085 28.868C412.706 29.6807 412.354 30.4933 412.029 31.3059C411.704 32.1186 411.433 33.1209 411.216 34.3127C410.999 34.5836 410.837 34.8274 410.728 35.0441C410.674 35.2608 410.593 35.5046 410.485 35.7755C410.376 36.0464 410.241 36.3444 410.078 36.6694C409.97 36.9403 409.78 37.1841 409.509 37.4008C409.347 38.8094 409.076 39.9471 408.697 40.8139C408.372 41.6807 408.02 42.5476 407.64 43.4144C406.99 44.9855 406.394 46.5566 405.853 48.1278C405.365 49.6989 405.067 51.4867 404.959 53.4912C405.23 53.3829 405.473 53.3287 405.69 53.3287C405.961 53.3287 406.205 53.3287 406.421 53.3287C406.909 53.3287 407.478 53.41 408.128 53.5725C409.753 52.7057 411.514 52.191 413.41 52.0285C415.361 51.8659 417.284 51.7576 419.18 51.7034C419.938 51.7034 420.697 51.7034 421.455 51.7034C422.214 51.7034 422.918 51.6492 423.568 51.5409C424.056 51.8118 424.354 51.9743 424.462 52.0285C424.625 52.0285 424.841 52.0285 425.112 52.0285C425.492 52.0285 425.817 52.0556 426.087 52.1097C426.738 52.7057 427.361 53.1391 427.957 53.41C428.553 53.6808 429.176 53.9246 429.826 54.1413C430.422 54.3581 430.99 54.6018 431.532 54.8727C432.128 55.0894 432.697 55.4145 433.239 55.8479L433.808 59.3423C434.187 59.8299 434.349 60.1549 434.295 60.3175C434.295 60.7509 434.187 61.0759 433.97 61.2926L434.133 62.1866C433.32 62.3491 432.751 62.5387 432.426 62.7554C432.155 62.9721 431.884 63.2159 431.613 63.4868C431.18 63.541 430.855 63.5681 430.638 63.5681C430.476 63.5681 430.313 63.5681 430.151 63.5681C429.392 63.5681 428.471 63.7035 427.388 63.9744C425.925 63.4868 424.408 63.243 422.837 63.243C422.241 63.243 421.618 63.2701 420.968 63.3243C420.318 63.3784 419.668 63.4326 419.017 63.4868C418.367 63.5952 417.69 63.6764 416.986 63.7306C416.336 63.7848 415.659 63.8119 414.954 63.8119L413.085 64.2994Z" fill="white"/>
<path d="M330.601 37.8186C330.71 38.252 330.791 38.6583 330.845 39.0376C330.899 39.4168 330.981 39.8231 331.089 40.2565C330.872 40.7983 330.683 41.3401 330.52 41.8818C330.358 42.3694 330.195 42.857 330.032 43.3446C329.87 43.7238 329.762 43.9676 329.708 44.076C329.653 44.1843 329.626 44.2656 329.626 44.3198C329.626 44.374 329.626 44.4552 329.626 44.5636C329.68 44.6178 329.708 44.8345 329.708 45.2138L329.382 46.1888C329.112 46.5681 328.786 46.8661 328.407 47.0828C328.028 47.2995 327.649 47.4891 327.27 47.6516C327.161 47.76 326.999 47.8413 326.782 47.8955C326.565 48.0037 326.403 48.1121 326.294 48.2205L326.051 49.1957L324.994 49.3582C324.073 49.575 323.288 49.6832 322.637 49.6832H321.662C321.012 49.0873 320.497 48.6268 320.118 48.3018C319.739 47.9767 319.333 47.6787 318.899 47.4078C318.357 46.6494 318.06 46.1076 318.005 45.7825C317.951 45.4033 317.87 45.0512 317.762 44.7261C317.653 44.0218 317.518 43.5613 317.355 43.3446L316.218 42.2069L317.193 41.4755L316.299 39.9315C316.949 39.4439 317.437 39.0917 317.762 38.875C318.087 38.6583 318.357 38.4416 318.574 38.2249C318.791 37.954 319.035 37.629 319.306 37.2498C319.576 36.8705 320.01 36.2475 320.606 35.3807L321.337 34.3242L322.394 34.8931C322.61 35.0556 323.071 35.2181 323.775 35.3807C324.534 35.489 325.184 35.5974 325.726 35.7057C326.646 35.9766 327.513 36.1933 328.326 36.3558C329.139 36.4642 329.789 36.7351 330.276 37.1685L330.601 37.8186Z" fill="white"/>
</g>
<defs>
<clipPath id="clip0_2942_6528">
<rect width="440" height="72.8132" fill="white"/>
</clipPath>
</defs>
</svg>
