<svg width="27" height="35" viewBox="0 0 27 35" fill="none" xmlns="http://www.w3.org/2000/svg">
<path d="M24.0549 23.3333C24.0549 28.1604 20.132 32.0833 15.3049 32.0833C11.4987 32.0833 8.0862 29.7645 6.6862 26.2354L2.89453 16.6979L3.66745 16.902C4.33828 17.077 4.87786 17.5729 5.12578 18.2145L6.55495 21.875H9.47162V6.56246C9.47162 6.15413 9.79245 5.83329 10.2008 5.83329C10.6091 5.83329 10.9299 6.15413 10.9299 6.56246V17.5H13.8466V3.64579C13.8466 3.23746 14.1674 2.91663 14.5758 2.91663C14.9841 2.91663 15.3049 3.23746 15.3049 3.64579V17.5H18.2216V5.83329C18.2216 5.42496 18.5424 5.10413 18.9508 5.10413C19.3591 5.10413 19.6799 5.42496 19.6799 5.83329V17.5H22.5966V10.2083C22.5966 9.79996 22.9174 9.47913 23.3258 9.47913C23.7341 9.47913 24.0549 9.79996 24.0549 10.2083V23.3333Z" fill="white"/>
<path d="M26.9727 10.2083C26.9728 9.66764 26.8527 9.1337 26.621 8.64517C26.3893 8.15665 26.0518 7.72578 25.633 7.38377C25.2142 7.04177 24.7246 6.79719 24.1996 6.66776C23.6747 6.53833 23.1275 6.52728 22.5977 6.63542V5.83333C22.598 5.271 22.4683 4.71621 22.2186 4.21235C21.9689 3.70849 21.606 3.26922 21.1584 2.92889C20.7107 2.58856 20.1904 2.3564 19.6381 2.25055C19.0858 2.1447 18.5166 2.16804 17.9748 2.31875C17.7059 1.63629 17.2383 1.05035 16.6324 0.636896C16.0265 0.223443 15.3104 0.00155411 14.5769 0C12.7831 0 11.2956 1.29792 10.9894 3.00417C10.4567 2.88633 9.90441 2.88953 9.37315 3.01354C8.8419 3.13754 8.34524 3.37919 7.91979 3.72067C7.49434 4.06215 7.15095 4.49475 6.91493 4.98659C6.67891 5.47842 6.55627 6.01696 6.55605 6.5625V15.1521C6.06022 14.7 5.44772 14.3646 4.77689 14.1896L3.65397 13.8833C2.44355 13.5479 1.1748 14.0146 0.460219 15.0938C-0.0939479 15.925 -0.123114 17.0042 0.241469 17.9375L3.9748 27.3146C4.87539 29.5839 6.43737 31.5302 8.45798 32.9007C10.4786 34.2711 12.8645 35.0026 15.3061 35C21.7519 35 26.9727 29.7792 26.9727 23.3333V10.2083ZM24.0561 23.3333C24.0561 28.1604 20.1331 32.0833 15.3061 32.0833C11.4998 32.0833 8.0873 29.7646 6.6873 26.2354L2.89564 16.6979L3.66855 16.9021C4.33939 17.0771 4.87897 17.5729 5.12689 18.2146L6.55605 21.875H9.47272V6.5625C9.47272 6.15417 9.79355 5.83333 10.2019 5.83333C10.6102 5.83333 10.9311 6.15417 10.9311 6.5625V17.5H13.8477V3.64583C13.8477 3.2375 14.1686 2.91667 14.5769 2.91667C14.9852 2.91667 15.3061 3.2375 15.3061 3.64583V10.5729V17.5H18.2227V5.83333C18.2227 5.425 18.5436 5.10417 18.9519 5.10417C19.3602 5.10417 19.6811 5.425 19.6811 5.83333V17.5H22.5977V10.2083C22.5977 9.8 22.9186 9.47917 23.3269 9.47917C23.7352 9.47917 24.0561 9.8 24.0561 10.2083V23.3333Z" fill="black"/>
</svg>
