<svg width="384" height="512" viewBox="0 0 384 512" fill="none" xmlns="http://www.w3.org/2000/svg">
<g clip-path="url(#clip0_3421_6422)">
<path d="M7.4 253.6C2.6 245.9 0 237.1 0 228V192C0 165.5 21.5 144 48 144H64V64C64 37.5 85.5 16 112 16C129.3 16 144.4 25.1 152.9 38.8C157.2 16.7 176.7 0 200 0C223.4 0 242.9 16.8 247.1 38.9C254.4 34.5 262.9 32 272 32C294.1 32 312.8 47 318.3 67.4C323.8 65.2 329.7 64 336 64C362.5 64 384 85.5 384 112V208.9C384 218.8 381.7 228.6 377.2 237.5L337.6 316.6C326.8 338.3 304.6 352 280.4 352H96C79.5 352 64.2 343.6 55.4 329.6L7.4 253.6ZM32 480V432C32 414.3 46.3 400 64 400H320C337.7 400 352 414.3 352 432V480C352 497.7 337.7 512 320 512H64C46.3 512 32 497.7 32 480Z" fill="black"/>
<g clip-path="url(#clip1_3421_6422)">
<path d="M53.55 254.2C49.95 248.425 48 241.825 48 235V208C48 188.125 64.125 172 84 172H96V112C96 92.125 112.125 76 132 76C144.975 76 156.3 82.825 162.675 93.1C165.9 76.525 180.525 64 198 64C215.55 64 230.175 76.6 233.325 93.175C238.8 89.875 245.175 88 252 88C268.575 88 282.6 99.25 286.725 114.55C290.85 112.9 295.275 112 300 112C319.875 112 336 128.125 336 148V220.675C336 228.1 334.275 235.45 330.9 242.125L301.2 301.45C293.1 317.725 276.45 328 258.3 328H120C107.625 328 96.15 321.7 89.55 311.2L53.55 254.2Z" fill="white"/>
</g>
</g>
<defs>
<clipPath id="clip0_3421_6422">
<rect width="384" height="512" fill="white"/>
</clipPath>
<clipPath id="clip1_3421_6422">
<rect width="288" height="384" fill="white" transform="translate(48 64)"/>
</clipPath>
</defs>
</svg>
