<svg width="483" height="516" viewBox="0 0 483 516" fill="none" xmlns="http://www.w3.org/2000/svg">
<path fill-rule="evenodd" clip-rule="evenodd" d="M235.249 4.9215C246.865 -0.5312 258.173 -1.06842 268.615 1.43517C289.32 6.39985 306.588 23.3119 316.245 37.4694C349.004 28.3805 370.434 36.6486 383.873 50.8014C397.144 64.7767 402.55 84.4151 403.495 98.4547C431.351 93.4352 450.351 101.704 462.765 114.168C475.235 126.688 481.021 143.4 482.532 154.981L482.535 155.013V342.576L482.532 342.606C474.114 412.153 441.199 455.488 403.455 481.383C365.736 507.262 323.214 515.71 295.544 515.546C237.813 516.748 185.798 495.199 144.247 467.8C102.737 440.428 71.637 407.195 55.6732 384.898C30.266 365.282 15.7715 347.33 7.98275 332.833C0.19732 318.341 -0.908321 307.258 0.550136 301.424L0.555996 301.405C6.87217 279.95 15.4425 265.29 25.2074 255.74C34.9789 246.183 45.9255 241.764 56.9398 240.76C78.5027 238.795 100.266 249.919 114.035 260.995V87.983L114.051 87.9225C121.688 57.9795 137.71 43.2957 154.691 37.1627C171.454 31.1084 189.076 33.4152 200.341 37.4469C211.906 20.5855 223.713 10.3368 235.249 4.9215Z" fill="white"/>
<path d="M256.95 0.000488281C231.65 0.000488281 209.75 14.7005 199.35 36.0005C192.35 33.4005 184.85 32.0005 176.95 32.0005C141.65 32.0005 112.95 60.7005 112.95 96.0005V261.5L110.25 258.8C85.25 233.8 44.75 233.8 19.75 258.8C-5.25 283.8 -5.25 324.3 19.75 349.3L107.45 437C155.45 485 220.55 512 288.45 512H304.95C306.45 512 307.95 511.9 309.45 511.6C401.15 505.4 474.45 432.201 480.55 340.5C480.85 339 480.95 337.5 480.95 336V160C480.95 124.7 452.25 96.0005 416.95 96.0005C411.45 96.0005 406.05 96.7005 400.95 98.0005V96.0005C400.95 60.7005 372.25 32.0005 336.95 32.0005C329.05 32.0005 321.55 33.4005 314.55 36.0005C304.15 14.7005 282.25 0.000488281 256.95 0.000488281ZM240.95 96.1005V96.0005V64.0005C240.95 55.2005 248.15 48.0005 256.95 48.0005C265.75 48.0005 272.95 55.2005 272.95 64.0005V232C272.95 245.3 283.65 256 296.95 256C310.25 256 320.95 245.3 320.95 232V96.0005C320.95 87.2005 328.15 80.0005 336.95 80.0005C345.75 80.0005 352.95 87.2005 352.95 96.0005V232C352.95 245.3 363.65 256 376.95 256C390.25 256 400.95 245.3 400.95 232V160C400.95 151.2 408.15 144 416.95 144C425.75 144 432.95 151.2 432.95 160V332.9C432.85 333.5 432.85 334.2 432.75 334.8C429.35 404.5 373.45 460.4 303.75 463.8C303.15 463.8 302.45 463.9 301.85 464H288.45C233.35 464 180.45 442.1 141.45 403.1L53.65 315.3C47.45 309.1 47.45 298.901 53.65 292.701C59.85 286.5 70.05 286.5 76.25 292.701L119.95 336.4C126.85 343.3 137.15 345.301 146.15 341.6C155.15 337.9 160.95 329.1 160.95 319.4V96.0005C160.95 87.2005 168.15 80.0005 176.95 80.0005C185.75 80.0005 192.95 87.1005 192.95 95.9005V232C192.95 245.3 203.65 256 216.95 256C230.25 256 240.95 245.3 240.95 232V96.1005Z" fill="black"/>
</svg>
